<mxfile host="65bd71144e">
    <diagram id="PCfKYbEzFx2BkbJEP_7W" name="Page-1">
        <mxGraphModel dx="1700" dy="1265" grid="0" gridSize="10" guides="1" tooltips="1" connect="1" arrows="1" fold="1" page="0" pageScale="1" pageWidth="850" pageHeight="1100" background="#ffffff" math="0" shadow="0">
            <root>
                <mxCell id="0"/>
                <mxCell id="1" parent="0"/>
                <mxCell id="3" value="" style="dashed=0;outlineConnect=0;html=1;align=center;labelPosition=center;verticalLabelPosition=bottom;verticalAlign=top;shape=mxgraph.weblogos.github" vertex="1" parent="1">
                    <mxGeometry x="-28" y="41" width="123" height="127" as="geometry"/>
                </mxCell>
                <mxCell id="4" value="" style="sketch=0;pointerEvents=1;shadow=0;dashed=0;html=1;strokeColor=none;fillColor=#505050;labelPosition=center;verticalLabelPosition=bottom;verticalAlign=top;outlineConnect=0;align=center;shape=mxgraph.office.devices.laptop;" vertex="1" parent="1">
                    <mxGeometry x="-38" y="461" width="150.25" height="103" as="geometry"/>
                </mxCell>
                <mxCell id="28" value="" style="group;movable=1;resizable=1;rotatable=1;deletable=1;editable=1;connectable=1;" vertex="1" connectable="0" parent="1">
                    <mxGeometry x="311" y="36" width="222.5" height="202" as="geometry"/>
                </mxCell>
                <mxCell id="8" value="" style="rounded=1;whiteSpace=wrap;html=1;fillColor=#d5e8d4;strokeColor=#82b366;movable=1;resizable=1;rotatable=1;deletable=1;editable=1;connectable=1;" vertex="1" parent="28">
                    <mxGeometry x="-30" y="-23" width="201" height="168" as="geometry"/>
                </mxCell>
                <mxCell id="19" style="edgeStyle=none;html=1;exitX=1;exitY=1;exitDx=0;exitDy=0;movable=0;resizable=0;rotatable=0;deletable=0;editable=0;connectable=0;" edge="1" parent="28" source="20">
                    <mxGeometry relative="1" as="geometry">
                        <mxPoint x="146" y="140.5" as="targetPoint"/>
                    </mxGeometry>
                </mxCell>
                <mxCell id="22" value="" style="group;movable=1;resizable=1;rotatable=1;deletable=1;editable=1;connectable=1;" vertex="1" connectable="0" parent="28">
                    <mxGeometry x="12" y="-10" width="121.5" height="42.5" as="geometry"/>
                </mxCell>
                <mxCell id="15" value="" style="shape=image;verticalLabelPosition=bottom;verticalAlign=top;imageAspect=0;image=https://upload.wikimedia.org/wikipedia/commons/9/93/Amazon_Web_Services_Logo.svg;fillColor=none;movable=1;resizable=1;rotatable=1;deletable=1;editable=1;connectable=1;" vertex="1" parent="22">
                    <mxGeometry y="1" width="73" height="37.5" as="geometry"/>
                </mxCell>
                <mxCell id="23" style="edgeStyle=none;html=1;exitX=1;exitY=0.5;exitDx=0;exitDy=0;movable=0;resizable=0;rotatable=0;deletable=0;editable=0;connectable=0;" edge="1" parent="22" source="15" target="15">
                    <mxGeometry relative="1" as="geometry"/>
                </mxCell>
                <mxCell id="10" value="" style="shape=image;verticalLabelPosition=bottom;labelBackgroundColor=default;verticalAlign=top;aspect=fixed;imageAspect=0;image=data:image/png,iVBORw0KGgoAAAANSUhEUgAAAgAAAAIACAIAAAB7GkOtAAAAAXNSR0IArs4c6QAAIABJREFUeAHtvX+oH9d16CuMEUKcHg4H1ZjS3P4T+m8u+eNijN69Ji+Q/NfyuJTWlOAaY4QwQoiDoyjGPCGEUPOrimscY4QjCimGFx6ht3D/CSEY9+EKowTX1wghi4M4kRX5cHyi60iqrOoxs2fW7Nmz98xae6+ZWTOzyvBlf/d3zlfxqbQ++7PW2nv2XN9Y3dpY8VwvrmyxX8dXtmKvG8dX/NeJlRtd180T+8nXS/tvcl+3Xt7fx7V9cn9+7ds+OcZ1at824to5tY92nd6307h2T+9Nus7s3e3hun12L+P12Xce7fH63qOfRV13vvdo8PrBo3eI171zj4xzvfLIvcB1/5VHIq9XH7nvux68uifpem3PA77r4Wt7sut1z7Xn+saqubY2VgwMKiSwA+DFeABshQBwvBsAN06sGACYAeY1uz8WALdeDv5sHwC49XIGgPx1X/srDyFOZZjZyV+LL0QAYJsKgFMeAOyc3tcEQDZ5Zq/5yB4378xmKAC4fRZ7PyMAbp/d2yMAvkMAwJ0fZDeb12zQcqEBcO9cRYt75x6584NHva/xeHglQ8v9wGv2tQEA3IsGwCt+ANx/9REvAELznptxAHiY3/bw9QwYodfsowADagCwPaDAwOwYgFEBAEY0A26+lEVk74/3x4BODzB44MFAbhsVBkZlQDPWGxI056kM2D2Tre4x2JglAxxdYGEA6EJLlDdgaLkh6aOxGeCJ9SFdwDEA6QpeBlQAcDyggsEcGdAuATdf2s/CAC8ADBv6wECnBzCG/izt42ScxmZAbflfOgELAzAAMKhgxMCSPSApvptlvnpAwwm8HuABgAn9tXTQHBlAUIHYXJA0D7ATRG74dqI5+m0lASdRxYD+ckHeWG9SQ56PKLkg9QBbBQbwADs1lAqDUL1BPSAvCbgAAA+oDMCUiGfHgHYJqAzAFJATGCDHA7iCftv3SPCA03lJoF0CiPUApASoB0CGp3PQUg/gCfqBSoCpEGR/xNgMkFAPCALANoBl1gMyBjDlgoTUA2wD4K0HyPWAdgyoB0Q1BXHVhAESTsS3DUDrAUXNoJ96gB8ARcRvtofOzgNunijS/U0hKHJETAyQ4AFtK3d0zgf1JXI8IF/pBxNB6gEi+4IcHiS9VQ/wdQdBPSAIgKYBLMoD3OV/yYlQHMfMj+4BTQNYigeUSSFPMYDOAO0LgpJAT/WApgGoB/TkAW0AWI4HBJf/eQHAfFoVjSdbD0At3hlVQIIHQAoIBt7dZMRcELIkwNgUtKj9AUlLfm/VVz0g4AEdAFimB9jLfzN2MkWY9X7onhE9IGQAy/GAXaMCHAxQD+jPA0IGoB7A7gHdAFiOB0CUrxb7LWdITNADhjYAIxMSPKBMAbUVA+i5IPWAnvYJ8xuA0YLleUDL9mCzbRgFgKV5QDMj1JzJIJHAgFE8oN0AluIBrLkg9QD1gO5DhHyHBRF6QPvcJ4wFwKI8oMMAJtsX1HlWRI+KIMcDtC+o87w5dG9or+cFqQd0HxqB7g0NHRNEAIB6gPEAwEPxVj0gXDeWuz+gTAppX5D/zAk0A8AAzIC9L0jrAR0YQDPAe2QQDQBL94By7e+QICUXFPrZPg4LypM8iz47Ws8L8od7rxOgGaAe0J0FMqeNUnJBhBwRmgFNDyADYMkeAGv/olxc8kDrAe25I8keoH1BbUhAM0A9oA8GdKz97doAmgGOB8QAYKEeUIb72vK/nExkgHpA86kytAfIoJ8fABG/ZgPexlDtCxKzT1jrAd0wQDPA9oBIACzTA8AAMgbYoX+y+4S1LyirAWhfkDcFBJPqAYFj47Cr/ubTZii5oO7QDyqAZgB4QDwAluUBZbivLf+nv09Y+4KKnQGsDND9Abo/oJsNFAb0Vw9IAsDSPMAYgL38N2PYQVbgQfuCtC9InyNWeoP2BQVhQGFATx6QCoBFeUBz+Q9JIXeQwACtBwxdD4DlPwy8JQE9L6iM6U7Jt/lW+4KCQd9JB1EY0IcH7Nk8VjwUHp4OHzFwHihfUGGOZ0c7i32DhOZrxoMEBug+4SEZ0NwKEDwxgsgA3ScMbFAPCCKBwgB2D8gAwMUA9yFiGytbM2WAu963jwwqqwWJDAjxQ/cHELqDTu/baVzNcK99QW2doFAKhoF6wKg1YV4PKADAxYBmVWCuDGiu+p0EUfFWPWCK9QDWXJB6gHpAcPkPGaGRPKACABcDlusB5drfIUFoLZ8yrx7Qrwdw94ZqX5D2BfEygMsDagDgYsAyPcDOC2UMKHmQmAvSesCI9QCzWcybNULGdLhNPUA9gJcBLPUAFwBcDFicB5Thvrb8LycTGRByBfWAvjwAUkAw0L4gqAHYA60HTLwe4AEAFwOW5gFgAO7yX/cJh8sAcIiQnhcErrB7Zu8snyUJBmAG2hcUFIIB6wF+AHAxYCkeUK70a8t/3SeMiPsAAHcg5/kB7RKg5wXpeUEBCbgHBd6IAYUBKfWAIAC4GLAcDzAGYC//zdjZOhDK52DmtR4wWj2gHQO6PwCdC1IPCC78HU5QGBBdD2gDABcDFuIBzeU/JIXcQUJvaIgTWg/oqx4Az5FnZYCd8GkZzzIXpPuE+2BAnAd0AICLAcvxAIOB9teMBwkMUA8YzQP0OWJ2Bbg5Vg8IpIOwEd+RgFceud+zB3QDgIsBC/EAd7FvbxLO434lCgkMCPFDPaAvD4DlPwy0L6gJAK0HBAAgth6AAgAXA9QDAA8FBhIYoB4wogfA6RGeLQJaD1APCGBAoAdgAcDFgOV6QKhTKIEB6gFDMsCcEGe2hgVPizNaQGRASw3A/kjrAXd+8CjmuneuuE2fI9ZZHCYAgIsBy/QAWPvr84Tdjs/WblG5+wNYc0G6Txi6g3R/QFAUeqgH0ADAxYDFeYB3+V9OJtaE1QPG8QA9L8hbA7An0bkg7QsKBn2nLExhAKYviAwALgYszQPAALLsvx36dZ9wqwEYXZDrAdoXZEf85hjNADAA3SfcAQMKA5hTQObhAVwMWIoHlOG+6v8pW4PcGa0HIGCQIUHCPmFIAcFA+4KaANC+oEBBWEhfUIwBMD5DZjkeYAzAXv6bse4TxpcEJHuA9gW1PVVGPSCAgY7FvpP/sd8yeUA8ANQDbpxY6bxqmZ9y4Q+T/oF6wIQ8oEwBaV9QGwDUAwIAGN0DkgDAxYDleIDJ+bS/ZlRIYIDuD2gmiAi7w07ty25uPEiyI76X3Z9ttxF7Q7UvCKoC2hcUFIVkD0gFABcDllIPaJeAslqQyIAQP3SfMIEEaAaYoF+Efq0HeMsAMInOBWlfUDDo24kg4lkRzb4gBgBwMUA9ADJCRhFCcRwzrx4wmgeUSSHPJmH62dHqAeoB3SRI8AAeAHAxYLkeUK79i9APopCQCwpxQj2gLw+A5T8MtC8I1v72QD0gUBLojvXO8h/eUhhgewAbALgYsEwPgLW/7hPGNwVtn8zy9dX9Y/eGNpf8wZKA1gPQDAAD0P0BHXigMAD2B3ACgIsBi/MA7/K/nNR6QBXiO7uDxmZAVQ9olwB6Lsg+FKhlrOcFYQ4LuvODR/W8IOMBzADgYsDSPAAMIEsB2aFf9wl3Bn3JHtCOAfUA9YBRc0EPXt3DDwAuBizFA8pw72b/IfRrPQDBgJolyPEAPS/ITv17x2gGaF9QRwooqh6wZ/PoKhzwwDi4vrGaeG1trCzHA4wB2Mt/M9Z9wrXI3koCyfWALDV0Zm+zSJDNqAegGaD1AHYG5AAQzICFeEBz+Q9JIXegfUGtGKiAIcEDIAUEA+0LUg8498j9Vx65V75mDy0IJIIG2CdcAkAwA5bjAQYD7a8ZDxIYoPsDRtwfoOcFtR0XoR4QwAB21Q8pIBgg+oIsAAhmwEI8wF3sQ/bfDMpqQSIDQvzQ/QF97Q8ot4YFu0LLkySo6SDM/doXpH1BzSfLW22gR1ezMgBcx/hLAonFgKYBmJmtF1f4r+MrW7HXjeMr/otyZpyT9LdtAPBQ5IvUA8K5ILn1ANZckO4ThqqAnhcUFIVWD6gbgMGAVAYs1wPKtX8R+sEMEhigHjBkLqjaH6B9Qd4agD2JzgVpX1Aw6EMWyAzCDNhzDdb+9kAqA5o2wC8BL8ZLwFZIAo53HxztBHfv2l/3CVc13vDyH+6R6wFlUkj7gvxVATQDwAB0n3AHDAIMyAAwLQYszgO8y/9yUusBEO67B9oXdHYvY0nAH7vttXzKGM0A9YCO0A824GNAbgDHJsaApXlALftvh37YLJaQC9K+oCFzQc0lf7AyrPsD0AxQD4hmQGEA6gH+VFJsQZgtF1SGeydBBLViYEMop58yr31B2hfUaQzqAVkjf9xl7QawdwaY8TD7AywDUA/wthWNzoCy5JsxwObBS/sBAwUe1APChQG59QDtC2rPFKkH9Lk/oGYA6gEyPaC5/K8W/iUeipkEBoRcQT2gXw/QvqB2AOjzhAMAYNkn3DAA9QCpHmAw0P6aYSCBAVoPGLEeoOcFtWWT1AMCGMBm/6EUDIO8JuwxAPUAmR4QXPXrPuFw5qejNUj7grQv6AePYrYKz/X5AQEDUA+YmgcAHrQe0BH0JT8/ID8TQvuCgiqgHsDtAUEDUA+YjAfYlWG7JJCQCwrlkbQe0G89oL0gTD87GnNY0O4Zzs0Bt8/uDYbvzlw/5gY0A3R/ACY7VAFg06z6m6/2DmHZZ0UsbX9AsziczZQ80HpAuwpoX5CNh852T9INQhig+wM6GVABwCz5va/VUXEAA6lnReg+YRP3KzaoByArBBLqAeaICO0L6lQB9QCmXJALAPUAf+anWRIQsD+givJ55sdd/us+YUTol+sBel5QOwbQDFAPaPEAFwBeA9B6gJ8KozOgzPY4JIANYlAZDuX0U+a1HtBXPQAqATDQ54h5YYBmgNYDQgzwA0A9wB/xRXqAifL28t+MAQMFHhJyQbo/YMT9AfocsbaKApoB6gFeBvgBoB6ABYCAs6Oby/9q4W83BaXtEQu5gnpAXx5QpoCCXaH6HDGjBWgGqAc0GdAGAPUALAZGzwWV6X4Dg9CrqQ+HQnnnvHrAaB7AmgvS54iBDehzxNoAoB6ABYAADwiu+nWfMKIU7G8Y1b4g3Sc8933C3QBQD8BiQLAHAB60HuCP9RYktC9I9wdUZoADgH2YxL1zj9z5waMtr5FnR3eeOB1oDG0/M64bAOoBWADI9IBQp1BCTTiULNJ6QF/1AEgBwUD7grQv6Nwj9lME4p4fsOfa0bWWEA8fqQdgMSDMA2DtXzQFlTxYXD3g1B98+v0/2X39yep648nd7uuJ3TeI1/kndonX7fNPsF1vPnG76/r9m0+Y67MLT0i+7lx4wlx3/+G/MF53Xv9Pd36wD8oAMKhW/d971B3P1wMMAFAMABg4A90n7LJBAAOKuF+G+1qnUDmZyIApeMD+31342r2Lf//5J9cePnzwUP9PfwPFb+DB559cu3fx7+/9P//nZ9/LTgM1GHDjvk0CNAOmdW4oAADFAPUAN9Y3dwaYGQEMqAV90yZkh/6ycSgUxzHzkvuCfnfha/dvXNKIp7+BwG+gWBA8uHHJYICRAVASaKkEmDrB6PWAPdeOrOVZIPOaPR0+7lIPcNkwOgPKcO+QADaIVdmhmdUDTq/d/dVPAv/sdVp/A57fwL//6sKdc/sZGTAVD8gBQGSAeoAb6wV7gInyGQNsHsz3ecLbZ79wf/NfPP/EdUp/A62/gc+3/jUvD2TpIJZc0CQ8oAQAkQEhS1APcNkwtgc0l//Vwn9++4RPr2n0b41y+mHoN/Dg4cMHGQMW5gEWAIgMUA9wY71gDzAYaH9NrAlLqAdo5icU3nQe9xt4kOWCWGvCwj2gDgAiA9QDJsSA4MI/PyOoEoXJ1gN+d+FruH/kepf+Btp+A+w1Ycn1gAYAiAxQD5gQA0IGAGwoMJDAgPE8YP/9Le35aYtr+hnyN5AlgqyNAvOuB/gAQGSAesCEGACxvhjYlWG7JJDAgFD/aK/7hHX5j4xuehvmN7Cc/QEBABAZoB4wIQbYHmDzIJsveZDNJzBgeA+4d/HvMf+w9R79DWB+A/cu/j1UAhh7QwXWA8IAIDJAPWBCDGhb/jMxIMSPnjwg3+uL+aet9+hvoPM3kO0TNnF/9vuEWwFAZIB6wIQYUKT7y7SPu/yf1j7hk6t60kNnVNMbKL+BB44BzNUDugBAZIB6wGQYUK70HRJMb5/wydVPv/8niH/bDx7ev3v3Vz+5c/F8dr032nXvvfN9XZfO3+O77l96Q8T16zfu813//qsLD+/fRfxteXjn9f9UBP28KxR4wFITltMXhAAAkQHqAZNhgG/5b1QAMFDgQXY9YOe1JzH/pO/+6iedDwNIvWHsZ8jseo+J9k6e2Wuf+881vi38GTLfezRjAOL/7v7Df4EskDNgYYCQegAOAEQGqAdMhQHN5b9dFq6NExjQdz1g53UUAO5cPG/i+62X96cGeniAzKl92yf3yXmGTPYA4fKZAfbYDwYKA5APktw9s1c0A7736P1fv4GI/w8dABgDmJ8HoAFAZIB6wFQY4Cz2DRKar5L7gqgA4MdAzoMKA8I8wJAgnQEmuGNcQTID4gDgSMBszguiAIDIAPWACTGgttgvU0PFZFktSGRAfx5ABQCnARgVyD2gZhVjM6C2/C+dgIUBGABI9oAUAMzPA4gAIDJAPWBCDGiu+p0EUfE2IRfU0/4AKgBsA+CFQSUBJ/dtj82AZrjPqMBRD0Cmg2R6QAoA5ucBdAAQGaAeMCEGuB5Qrv0dEoTW8inzKfsDqADgDfq1hT/UBsAMEBggPEn4VFZv2DntubyR3UT8mg14AXC6l4KwTA9IB8CcPCAKAEQGqAdMiAG2B9g8yOZLHiTmgtg9gAqApgHwIkGuB7DmgibqAekAmJMHxAKAyAD1gAkxoIj7ZbivLf/LyUQGhFwhzgOoAOAN920GIM0D8pV+MBG0DA/gAsA8PCABAEQGqAdMiAG1oC/+ecJUAIQMgBcMcj3g9F6TFPJmjZA1Xrhtch7ABYB5eEAaAIgMUA+YDAPKlb5DAugZrbJDCTVhLg+gACDbAcAb6LsNQI4HQAoIBt6SAGV/AJCgcyCkJswLgKl7QDIAiAxQD5gMA8pmUDv7b8aAgQIPCQxgqQcQAVDsAjMYCL1iw7pT9W28lewBu0YFOBgwIQ/gBcDUPYADAEQGqAdMhQHN5X+18C/xAAWD0HI+eh5fD0AeBXHn4vk83O8fxwDkeECZAmorBsy3HtAHAKbrAUwAIDJAPWAqDHAW+wYJzdfEmnCiB5AAYBiwfbLAQMgAeCEh1wNYc0GT8AACAL7zaHOBj5yZynlBfAAgMkA9YEIMCC78ZTxPmAoAYABXnof8PYjNAdum5Z/0GrE/YHl9QTQAUBgwRQ9gBQCRAeoBE2JAc9XvJIiKt2PUAyIAAAxoN4CleECZFFpCXxAZABQGOH4g3wO4AUBkgHrAhBjgekCoUyiBAaGCQXs9IA4AwADy+r1R6Y38BgkeACkgGHDUhDs7gswNo/QFxQCAwoBpeUAPACAyQD1gQgywPcDmQTZf8mD4ekA0AIAB6gGw9g9Whom9oWLrAZEAoDBgQh6w5+oLa9eO9HAdXbtWXKuhZX7n/ObRVfc6trrJfV3fWE28tjZWPNeLK9jIjr/z+MpW7HXj+Ir/OrFyo+uyY30xLsN9LRFUTiYygOoBKQAABkSu4tNtQIIHlCmgYPQ3WkBkgEwPiAcAhQFT8YAMABIYoB6ApUUsALZCADjeDYBalIfHBZedoO7yH25IyAWR+oISAQAMUA/IPIA1FyTQA5IAQGHAJDygAIAEBoSEwJWAo/wSsHksVQKub6x6JGCjBwl4MV4C2BhQrvQdMEDPaGUMCQzAe0A6AIAB6gHsDJDmAakAoDBAvgdUAJDAAPWACXmAifL28t+MAQMFHhIYgPQAFgAAA9QDTD1grucFMQCAwgDhHlADgAQGqAdMhQHN5X+18C+zQ8VMAgMwHsAFAGDAoj0AUkAwmFdfEA8AKAyQ7AEuACQwQD1gKgxwFvsGCc3XDAMJDOj0AEYAAAPUA+baF8QGAAoDxHqABwASGKAeMCEGBBf+Q+0T5gUAMGDRHjDfviBOAFAYINMD/ACQwAD1gAkxoLnqdxJExdt+PIAdAMAA9QD2mvDofUHMAKAwQKAHBAEggQHqARNigOsBoU6hBAaE8kh9AAAYoB7AzoBx+4L4AUBhgDQPaAOABAaoB0yIAbYH2DzI5kse9FEP6AkAwAD1gDn1BSEBcOfCE59951HC9b3Io0PHPS+oAwASGKAeMCEGFHG/DPe1RFA5mciApgf0BwBgwKI9ANqBYDDlvqD7l954iPg/MgCm6QHdAJDAAPWACTGgFvQHeZ5wrwAABqgHzKMvqEcAUBggpB6AAoAEBqgHTIYB5UrfIQH0jFbZIaZ6QN8AAAYs2gPm0heEBMBn1BQQ5IvQuSAJ9QAsACQwQD1gMgwoN4LZ2X8zBgwUeEhgAOwPGAAAwAD1APaa8MB9Qb0DYFIeQACABAaoB0yFAc3lf7XwL/EABYNmWp80MwwAgAHqAewMGLIvaAgAUBgwrgfQACCBAeoBU2GAs9g3SGi+pteEBwMAMEA9YLp9QQMBgMKAseoB9849QgaABAaoB0yIAcGFP8c+YZMF2n7tIKKt4+Gdi+fbnyyG/HT75P782jeOCkh4fgC0A8FgOn1BwwGAwoCxPCAGABIYoB4wIQY0V/1Ogqh4G1sPGBgA6gHQDgSD4JNkiM+QGaAeMCgAKAwY3gMiDUDIM2TUAybEANcDQp1CUQwYHgDAgHEk4OS+bQkeMM2+oKEBQGHA8B4QaQBCGKAeMCEG2B5g8yCbL3kQVw8YBQDAAK0HsNeEe/WAEQBAYcCQHpBkAEIYoB4wIQYUcb8M97VEUDkZwYCxAAAMUA9gZ0B/fUHjAIDCgCE9IMkAhDBAPWBCDKgF/X72CYdaSJE1XuptpiasHmDqAfKfIzYaACgMGMYDGAxACAPUAybDgHKl75AAekar7FBUPeDmS/thg1iTBNTgjrxf+4KqR8mL7wsaEwAUBgzjAQwGIIQB6gGTYUC5EczO/psxYKDAQywDWjCAjOnU29QDoCOoUgGO3lD2esDIAKAwoG8PYDMAIQxQD5gKA5rL/2rhX+IBCgbNhXziDDW4I+9XD9idQl/Q+ACgMKBvD2AzACEMUA+YCgOcxb5BQvM1oiZs4yGUDkLGdOpt6gGVB7Dmghg9QAQAKAzo1QOYASBhj5h6wIQYEFz4c+wTtknQHFODO/J+9YDCA07vrQoDHLkgrr4gPABun91LeCAMnAaKHwg4N5QfABIYoB4wIQY0V/1Ogqh4q/WAk8HDJ3ZOWR+NvUeskoA87kvrCyIBQA4DevKAXgAggQHqARNigOsBoU6hBAY0DcDMINf11NvUA6rlP2suKN0DqACQw4A+6gF7rhxeM+l79tdrR9b4r6Nr14prNRTiYV49YEIMsD3A5kE2X/JA6wHtO84ke0CVF2qmg4Y9LygCAHIYwO4BGQBmzACAgTPYPLrqXsdWN7mv6xuridfWxornenEFG9nxdx5f2Yq9bhxf8V8nVm50XXasL8ZluK8lgsrJRAaoBzQPEdo5tY92nd6307ictI/dCWpSQMHT4gwPiAxI8YA4AMhhAK8HFACYMQPUA7C0iAXAVggAx7sBUIvyZmOw1QbqLv/hhoRckPYFDcmAGhhYc0HRfUHRAJDDAEYPKFJA6gGFEHBLwOaxVAm4vrHqkYCNHiTgxXgJYGNAudJ3wAA9o5UxJDBAPWBIBpi1f2EArAyI84AUAMhhAJcHVAYwbwaoB7R4wG++9Ye3Xjl481x23XoleN049ac3TrRBwp8ICnjAze9+efu1g7deza7t8FWE/pf2w6BiA5EB22e/sP3aQbh2XnvSe22f/QK15Gvu3z77hZ3Xn2xen/7ooLnMR9n/jJP7QmcHtWf5m5/uvvFk6/XE7htP7L72n5sRvzlDSwSd8iSCOvI8ZfY/u+3M3poclB8hYzrcFuEBiQCQwwAWD6gM4OoLWTFgxrkgpwwAb91iwFH+YoBoDzi+cvMc6olan118s7NOgGfAveuXMI/xMkv+Kugn7A/Y/dkLmD9x92cvxAHg9j+hvv/2P73QjOPRM5j/ovtbl5rh3jvTHwNM0JfgAekAkMOAdA9wDWDeDFAP8HoAFgDvdgMAnwvCA8BUAppZoIIKaA8QBYCQAZh5PA+wABDwDJnmkj9oDMSaMMkDWAAghwGJHuAagHpAJQSLqQfwAgDJADwA7Ly/Cfo1IcidIJTWt+fxADBnyVE9QLQBmE1kY+8RMxG/ZgOQ/HEGRAZAUqh9cPvsXi4AyGFAigf4DUA9QHhN2FSG7Vfv0h45yQ4ADAPwAPAG/WyyrBgje0NJAIhgAAUA2ZnVLZUAvAcgDaDaIjA2A2oewFoTRnoAIwDkMCDaA/wGoB6wKA/oAwCdDMADoDCAMtzXlv/lJIYBVABQGYAEwP/+2QuM+4SRAKjllMZmQOUBY5wXxAsAOQyI84A2A1APWIgH9ASAdgaQAFAL+rHPEYsAAIkBSADc/qesyMx1bigeAJUEyKsHmKRQTQ4gI0TMBXV6ADsA5DAgwgPaDEA9YCEe0B8AWhhAAgBkexwSNCvDdtLfGccBAM8AEgCAAbW1efi4t9BteAC43yDBAyAFBAOI+/aAyID2MkAfAJDDAKoHdBuAesDsPaBXAIQYQANAYHuwqQQABgo8BPqCogGAZAAVAMAAk/Fvf3XDd4kKKgAke8Aw5wX1BAA5DCB5QLcBqAfM3gP6BoCXAUgA2Et+e1y1BllsqCZ9DEgBAIYBEQAABoTie+c8FQDuF0rwgGGfI9YfAOQwAO8BWANQD5ixBwwAgCYD8ABw4r552/7qrQknAqCTAXEAAAa0G4D51A3fJ/fFAUCuB7CMosL/AAAgAElEQVTmgrz1gF4BIIcBSA+oAGBW+u2vuk84w8Ds9gcQAMB3XhAJAA4DqpV+c/kf7gvCAyB0YFw7A5Dfb4rAziaD6L6gOAC4IJHjAf33BfUNADkMwHjAniuH183qHv/K/uQAfZ4w11kR9s6A4hQ5xInQNAAwMYAKAIcBIQMANhT3W7kgZIDe/dkLpnocwoATu+Et8vu9AIj2gBQAyPWAMinUR1/QAACQw4BODzAAqBjQbgBaD5hlPYAMAA4GRADAYQDE+mJQrv3d20oGIAM0AMBpIrLfQtC3B8jvDwEAGOAuz8t6r3c+BQDuF0rwAEgBwcBuB4JxQl/QMACQw4B2DwAAVAxAqoB6gNhcENUDYgCQzIA4ADjB3bx1JkPnhiIDtAMAvAcgv78FAMAAk/FvfzXhOx0Akj2gj76gwQAghwEtHmADoGKAegCcFWoPquU/PFBsFvWASACkMSAaAM1wnxmAd/lfTpobkAHaAYC98HfG9vL/1sv7kd/fDgBggLs8D3hAOgDcP0iCB5QpILNn2J8IyqsF7S3/3k+HBIAcBoQ8wAFAxQD1gGt5vdd9hdAPA6kMwHtAPAASGJACAIcBnrd26C+fI4YM0F4AYDwA+f2dAAAGtBuA+ZQLAHI9gDsXNDAA5DDA6wFNAFQMUA+wl/8wnp8HJAEgigE3TqwkAqAW9MtwX5vMG4TsGWSA9gLAWfvbb8EDkN+PAQAwwF2eNzyACwDuHyTHA/j6gm7nlYPhASCHAU0P8AKgYoB6gGsAx1azmeY1ZQ9IBUAUA9IBYAd3KAhnkzYP4FFiJ7ApmhYAtHsALwCAAe0ewAsAuR5QJoX86SBKTXgUAMhhgOMBIQBUDFAPgLW/PZgQAzyPFK73hjIAgMgAFgO4cSJ76Hwt9De3BVgzyADdAgB74e+MGWsAoBTAAHd5bnkALwDcP0iCB0AKCAbQC2QP0AzAA2D3zN7bZzmvz77zaI/X9x51gnvore0BLQCoGKAeMG8P4AEAkQEsBuAwwDkUyOABIMEFgJAHIL8fmQICDLSfG9oHACR7QHpfEAkAc2UAsKEdABUD1APs5T+M5+EBbABAM+DGcXQNIPBMeRP64RU8wDMoM0LIAB1nADdfwqaYqABo94A+ACDRA8oUUHpfEBUAc2WA8YBOAFQMUA+YqwdwAgDNAKwBHF/JHjSfZ3vaX+3Q76z9zUe8AGh6APL7IwAADGjWA/oDgFwPSMsF3bt0HvNL++zCE3YX6SxzQZ9971EMACoGqAfA2t8eTN0DmAGAYwANAHQGZEG/XPsbHiADtEADMOkg73lBmFh2f+uSu6i3qgjYjyTUA4wHpPUFxQFgrh6w58qh9fw4oM7XNaQBmNt0n/CE9gnzAwDBADIA4hjQcxHY9gA8YCC/Tx006wF9A0CuB5RJIWpfUDQAZsmAHABEBqgH2Mt/GE/XA3oBQBcDYgBAYYCdBRJlALs/yx4JGX05HtA3AFw/kOABkAKCgd0OBONAX1AKAObHgBIARAYgbUA9QK4HfPuL2z/+q51/Pv37d/7uzvs/w8SRz397+bN33+S6Htz+GPOHxv1xdy6eb173N/8F8yfe3/yX5s9iZvr+fu//Bsx/0X/c+fTOe+d//87fffY/jvzuwtfcmI5IB0n2AGpfUCIAZsYACwBEBqgHwNrfHgj3gK3jKx//8Ot3/9f/fHj/bh47HmAiiN4z8d/Ag4cP4Xr44PbHv3/n77bPfiGCBMWPSPCAMgVE7QtKB8CcGLDn8qH1rAwAV/Z4gM5L6wH5fmCzK7j5Knaf8Le/iFzsTzze6f/87t/Af9z59LP/cYTEALkeQMkFsQBgNgzIAJDCAPUAe/kPY4EecPO7X/78k2vdgUHvWNJv4M5757dP/QEJA9XNcjyA0hfEBYB5MKAAQAoDtB4gf3/AjVN/isy5Lyn66X9r9hv4919dqGL6xOsBWTrozN72viBGAMyAARUAUhigHgBrf3sgxAN+860/vLd5SaOd/gZCvwFqLqgGDAkeACkgGEAvkD3I+4J4ATB1BtQAkMIA9QCxHvDJT7+V1wBD//x1fum/gf+48ym1Jiy3HpBH/GBl+MxeJAB+/2a2E/j22b32fuDQeLr7hF0ApDBAPcBe/sN4XA/4zbf+UJM/Sw/wiP/+rC8Ikf8J3iPBA3B9QSQAhCJ+c36iDPAAIIUB6gHSPGD7x3+F+Oevtyz9N/Dg9sf5FrN9wRDvw4NcDwjngiIAMGMP8AMghQHqAbD2twejeMDWiyu3331r6bFN//txv4HdN54kRX/PzXI8INwXhATA7TwF1Fzpt89MzgOCAEhhgHqAHA+4v6XlX1z8W/xdWSk4qiVUrgeUSSG7LygaALP0gDYApDBAPcBe/sN4eA/4jzufLj6y6S8A8xt4kFoGgByRBA+AFBAMynagaAC0r/3tTyfkAR0ASGGAeoAED9D+H0zw03sePnx45+J5T1YHwnrXQLIH2OcFJQJgZh7QDYAUBqgHwNrfHpA84NrRtZvf/fK965fiLkxo+/y3l2+e+6++6+DNc0Nct145yH+9evBW67X96sF+r9cObjeundeeTL1ef3IHcX36o4Pm2nn9ydv/77OYvwYPbn98f+tS4vXgRvENu6/9522ECuyc2ke7Tu/baVx2hgfGphPUbA2zu0ITAWCv9NvHk/AAFABSGKAekO4Bv/n+f8P8A46+5971S9c3Vr2X54HyGytb9WfK87w9vrIVe2VPCjMPDnNeic8Rs58p1jZ+KXvUDO8VfTp0+w+as6N3Xn8y+u9G9A/uvvEEBgDbVACc8gDAju8AAHdQ5oJYADAbD8ACIIUB6gH28h/GeA8YEQCGClsbK9c3VuE1o4I0BjihH96iGdB8fkBoxjxrLA4A9gNknG9oD+XRn26f3P/pjw5Gx/HoH8wAcHLfuAywl/8ACRYAtK/97U+FewABACkMUA9I8QAJALBVwMBgfgxoW/WXTxYzVEhhwM2XsqfBONHfvI2O8u0/OBIAyqZSRCJoOA84jd0JjGkDnYEH0ACQwgD1AFj72wOMB4wOAMcDKhjMzgNuntgfWvgXob98znAiA7wAMGxoj+YRn44MgLE9oKgAs6aA7DU+ZizWA8gASGGAekCcB8gBgAn9tXTQHBlAUIGEYsBgHjBSDSAzgKo1SIwHsKeAJu0BMQBIYYB6gL38h3G7BwgBAHhAZQAbK9l4dgxol4AqC2TyQgkMGMYDRgRAra90bAaYMgA7ADAGYO4R6AGRAEhhgHoA1QOkAcA2gGXWAzIGMOWCBvCAcQFQSYCAXNAuaw3ADv0T9YB4AKQwQD0A1v72IOQBogBQRHyz9rdfZ+cBLfWAIkfExIC+PWBcANQkQAADsAZwPjsOuo9LlAckASCFAeoBeA+QBoCmASzKA9zlf1k3DsVxzHyvHiABAHI84N575zG9rbfPP5HtJCAyYHIekAqAFAaoB9jLfxg3PUAgAJbjAc16gF0inkQ9QAIA5HgADQB0BiCZIcQDGACQwgD1AIwHyATAMj3AXv6bsZMpwqz3Q/f05AFyACDBA8gAoDNgQh7AA4AUBqgHwNrfHtgeIBYAy/EAiPL28j84FtYXJAcAEjwgBgB0BkzFA9gAkMIA9QCMB2RIOEa+MOnOlrOAvAcEOZNwRITtBPPrDTXhvpkRas5kdyYwgN0DkABIPA3UDe7h00PH9YBIANAZMAkP2HP5+fXLh9iuK4fWq+vw+pXua81Ef/UAe/kPY9sDijGRAQMAYFEeEFz1l3sCDA8SGRDiR8Q24Fsv76cC4NbL+7dP7mu+4kM87c5h9wfEA4DOAPkekANABgPUA/rwgGEAYK/97fHSPADwUGBAhgdQARAK3wYJoU+p82N5QBIA6AwQ7gElAGQwQD0A1v72IMUDkADYPOY/DtrJ9rS/dXcIz3SfMET52qDcE1AZQOkEoeV89DzVAygA8K/9eUO/HxVDeUAqAOgMkOwBFgBkMEA9gNcD8ADgYoBtAEV2aI57xKAs7EZ8sy2g5EFiLoilHkAEQMYA72Unhbw3REwO7wEkAMAh0s2nCyDDurlNrAfUASCDAeoB9vIfxnEeQAIAFwM8KjBTBhQSUIb7GgzKyUQGhEQB7wE7r6EeCHPn4vk8xGenVQ9aA7B5078HkADgxv3ywcIRe8SQwBh4f0ADADIYoB7A5QFUAHAxYGkeAOmgjAF26BewT5gEAMOA/FFirgc0wRCx5Pf+yJAeQAKA/UgZDwymv0/YBwAZDFAPgLW/PaB6QAQAuBiwFA8ow31t+Z8XANyZhJpwigdQARDyAG/s7mWyTw8gAcAT9G0JmH49IAAAGQxQD0j3gDgAcDFgOR5gDMBe/puxWypIYEB0PSACAF4PaBqAmeFiwDAeQAKAbQCzrAeEASCDAeoB9vIfxngPiAYAFwMW4gHuYt+0AHlfExgQ5wFxAGh6AFegx35PPx5AAkC3ARghIOaC5NQDWgEggwHqASkekAIALgYsxwMMBtpfE2vCER4QDQDHA0IGMC0PoAIAJQH0XJCQvqAuAMhggHoArP3tAcYDEgHAxYCFeACUgv2DslqQyACqB6QAwPYA7Mrd7upJH3N7ABUANQkoHyxcm4SqwAQ9AAEAGQxQD4jzgHQAcDFAPQCoUOSLEnJBJA9IBAB4QLsBTMUD4gBgFwCME7AwYHQPwAFABgPUA+zlP4zbPYAFAFwMWK4HlGt/t1SQwAC8B6QDABgwjgSwPkcsDgBZuIflPwxg7W8PJuUBaADIYIB6ANUDuADAxYBlegCs/YumoJIHibkgpAewAAAYMHUPiAeAHeXzsa0FNSEgMmBED6AAQAYD1ANg7W8PQh7ACAAuBizOA8pwX1v+l5OJDMB4ABcAgAGT9oAUAJiIb1JAwehvOEFkwFh9QUQAyGCAegDeA3gBwMWApXkAGEDGADv0D7JPmBEAwIDpekAKAGrLfDsp1JADkzJChnVz2ygekAHgw+cOZE8FwF/6/IAja9fYr6Nr14pr1V7ak8ZND2AHABcDluIBZbivLf+H3SfMCwBgwEQ9AA+A0Bq/8gBuBiCBwXheUGEAGQMgrGNIADcnD6oHyBzCPEBmHbn8h9uuvrDWx8UPgCMAgDVM0N88lnHC83p01cZAHwDgYsByPMAYgL38N+Nh9gmzAwAYMEUPIAEgxABHBbLbzux1Jou3xFzQwB5QpoAOZR5QYAADABm5IK0HeFExAAC4GLAQD2gu/yEp5A566AvqAwDAgMl5ABUAIQaYoF98Otm+oBIAZdCnpYOSl/+gHeoBlVJQckEeAzBmUHpATwZgnk7c/nwYzKf6PGFXAnp4nnBPAAAGTMsDkADYPf/Ezul9cPlX943Uf4gWyNwO3DaYB9QAQDMAwwwBDFAPaPGAXgGgHnDjxErn5a7xvQcE5XG/EgVWD+gPAMCACXlAHABCkd3MZ6/tEkA/KwJg0D5IrAfUAAAFYRoJBDAAMv7tgz6KAVdf6KEgzFcP6BsAXAxYTj3ARPnmK3CiwEACA5z9Ab0CABgwFQ+IBkCIATU5aMeAvHqAC4DLeTGgeC3zQt0NQgIYoB7g9YABAMDFgIXUAyDQV4NQp1ACA+z9AX0DABgwCQ9IAUCIAZUHTK0vqAEAfNB37hTAgPblP3y6HA+4dnR1GABwMWCZHlCRoJ/nCQ8AAGCAfA8gAOBUVQOAYkCIATUPOL03u20KfUFtAKAVhLUvqLdc0PVvf/HWW0e33zoScQ0GAC4GLM4DvMv/cjJjQ7IHIAFwf/Nfdn/2wu7PXrj9TzHX/67/4PbZLwwtBLhzQ2kAoDDABP2CEKy5oPYyAHwaUQ9oA0BREoClvbPk976Fm5MH2hcEfUG/+f5/w8Tx6HvuXb9kunrSXzGdP+33LLAvCAwgy/7boZ9jn/DNl/YjARD998f7gzuvP+l9srxRBEY2UJ8jdue9897/wc5k1gV0al9xWe1AoALOkj/0NmgMMuoBHQAwxYDJ1YRnVg/Y+tunnL+dvG8ZAaAe0NkUVNR4TS9QGe5rk3z7hE01ePu1g7x/YTDfZgDAGOixX9XlATEAoHpAmQIKRn8x5wV1AaBc5tPSQcnLf90fAMv/a0fWpgUALgYspx5gDMBe/puxu0UgNhc0CgA+/dHBFgMY0QMiAUBhQM0GWHNB7PsD9nz4XPcpQDQDMMwQwICZeMDR6QGAiwELqQc0l/+QFHIHUQwYDwD7scv29AeHOd8Q9oB4AFAYYNb+8usBGQCwDDDHxh3qBkbRNiqAAdD50z4Q3hc0OQPQfcI3jndvEHPivnnb/prxgM6AUQGwX1pfUBIAKAyoeUCZFHImi7fj1QMKAHQzQPcHRB0qZ2dyIsfDGEB+rlx6Edj5hvZ6L+ZTjwRsrGy92MN1fGUr9srCvfeSsU94FADsvP5kHvr3b5+U5QGpAKAwIDMASAHBoHGARIYBIgOQ93f2BVUA6GZAWQ/o3hdm36kekHxw9BAGYM4OOpYdL8p7YaJ8+z0L7AtqegDkggpvoHjAiAAABsjxAAYAUBjQXPIHK8NEBrDUA6oUEDIXBMdFEDAggAETrgcMZgCyGeBRgYV4QKhTCM2AcQEADBBSD+ABAIUBVT2gXQLG8ICaAdAYAGHdXu+HxnBz8mCB+wOGMwDZDFhOX5BtALD2j36e8Par47SB3no5KwCYK08EiagHsAGAwoCaB7RjYFgPqAEgX92jasK6PyCibiy9BlCeIJ09ToA7EaR9QbT9AXBiqHf5X04ia8ISACDHAzgBQGFA5QGSzgvakz8HJgv6zoXM8Oj+ABIJ4hgwtAGoB7wYXxDe8laDzSSxJlyk+0sYZG/t0I/eJywEAMCAcesBzACgMKDmATL6ggwADtjRH+8Buj+AFP3NzWQGDFIDyJ4u2bzUA8btCyrDvUMC2CBWZYda6wFyAAAMGLEegAXAG9ZREHAmRGiAPitCWl8QAKDGAOBBpwcYA6CRILkMsLR9wuYwuFtvHcVczoFxmF37965fMkdJT4gBy6kHmChvL//NGDBQ4CHMACQA4DA4cyRc52v7mXHbZ78ABQBnMG49oBcAJHjArlEBjt7QiL4gGwA1BmA9QPcHjLU/oNld6nuWJAkA6gGeHQaxEsCVC2ou/6uFf5kdKmYCDEAC4M7F881dZk7s5nprGDCKB/QFAAoDqnpAe0G4/74gBwA1BuA9oFMUPDeoBzQjePpMgwF4AJjHC0+LAcvxAIOB9tcMAz4GpADg5ktVJw9X9DffM5YH4AGwHUr4tMyjc0G1ekA7BvrsC2oCoMYArAfk3Z+0grA+P6C35wdcKzCwin8gTJECyh8oPy0GLHd/gL38L6sFXgYkAqBvBgzsASQA9MqAygPG6wvyAqDGAJIHFMUAs7oP7Qmw59UD0lf9zW+wPCDGAHIMaD3ATQeNnQtykv62DUBSqMgX1T2ABADnecKgFLzLf/i24T2ACoBeGVDzgDH6gkIAqDGA4AF5SWByNeEJ7xNuRn8zUzIAD4DmI4UnxIDlekC59i9CP2iBxQASACDiNwcQtXkHA9cDIgDQKwPG7QtqAUCNASQPyIFxwJP3t9f+9liAB3x05MD1b39x88xXrp99iuva+tunOq/I3tBQ3LfncwbgAWBqAPbrtHJBy6wHwNq/ZZ9wBABm7AFxAOiVAY4HDNkX1A6AGgPwHkAzAEOCkRiwde7Pdn7+o88/uYYJlH3cAzsJyPsD7FgfGh9dw/xvvrdZtIHaEjDFmvDiPMC7/C8noR4QAYDm8h9meJf/8G2DeUA0AHplQFUPaC8Ic/cFdQKgxgC8B5iCMI0EwzJg69yf3du8hImPvd4DALjaT00Y8z8eAOAs/zMD0HqA98g5MfUAMIAsBWSHfmufcDQAZukBKQDolQE1D2jHAF9fEAYANQZgPUDw/oCPjhy4/e5bmMg4wD02APpgAOY/AQDgNYCiQUj3CTskGJ0BZbh3s/8Q+st6QDQAYNXfHMDKnXcwgAckAqBXBlQeMFRfEBIANQbgPYBQBoCSQM8ecP3bX7z70buYsDjMPQ4A2BmA+a9wAADJn8oA1AOc6G/ejs6AMsTby38ztluGEgEwMw9IB0CvDKh5QP99QXgA1BiA9YA8rJt0EAEGvTHgoyMHREX/hw8fNgHAy4AIABRL/nJPQE0L1AMcEozNgObyH5JCMEgEQHP5DzO8y3/4tl49gAUAvTJgyL4gEgBqDCB5QFEMMJEdFvstg34YICfzA3HZCwBGBsAf1DJwDKAW8c3a336dDgOW2RdkkGC/sgBgNh7ABYBeGeB4QH99QVQA1BhA8AAB+wO2zv1ZSxAc66MQALgYgPnv8gLATgTZSJhWb+ji+oLKpBAs/2+e2M8CAFj1Nwewcucd9OQBjADolQFVPaC9IJzWFxQBgBoDSB6QA2Ok/QGH1yX0/DTDcQsAWBjQ/BObM14A2IkguztI+4LcHcJi6gH2qt8eMwJgBh7AC4BeGVDzgHYMxPYFxQGgxgC8B9C6Qk2CiCkXJHP5H6oB2FRI3B/QDPfNmRYAOGt/+63uE3ZJMHY9wF7122NGADSX/zDDu/yHb2P3AAIATu7bPoW6dlqOh/N+hD4zrvKAfvqCogFQYwDeA0xBmEYCDgbs/PxHzcAnYcaO9aFxCgMw/42dAPAYgPYFOdVgwR7ADoBJewAaAE8Wp9SNzYCaB7D2Be2e2ZsCgBoDsB4w0v6AEff6tofgUNB35qMZ0P6nm087AWAv/J2xeoB8D2AHAKz6mwNYufMOGD2ADAAhHgApIBikPUPmdp41SgRAjQF4DyC0hEKnUIIHXDm8jomDo9zjBPqWt3EMwPxHIQGgHuDGeq8ESHqesKkE9ASAiXoACQA7p/bJ9ACuvqA9Hzx7IH8ufMpr9UB5rAfkYd2kgwgwiGLAlcPrV7/5JUwcfHj/7u1339p9+8KQV0vEh4+yR0L+41HaVT4/EvMfngNgzVnak96qB7hskFQPQAKA+kjI9mdGtjwSMloOWDyABIDaswrGzgVV9YB2CaD0BWUA4GUAyQOKYoCJ7LDYbxlEMWDzzFOYOHj73beuHF67cng9cK3ln2JfIXynD7b+FvW/H/Pf6L2nBACKAeoBbqwX7wFIAHj/bkRP7rz2ZHSgb/lBw4D84fL72l9rsftkuZA/uY8KgEoCBOSCavWAdgzg+oIKAPAygOABg+wPQAJg9+0LgdAPSCii/8DPDxgQACgGhORAPcBlgwwPmBMA8qC/P8dAFdNDsd47TwWA+yVyPICjL6gCAC8DSB6QA6PH/QF8AFgnScCVw2vpy/+rL6wNAYAja+WDJFEMUA9wY71gDxgLAH0/S7LdAMynbvimG4D5BrkekNYXVAMALwPwHkDrCjUJIkouiBUAFQMG84CBAEBkgHrAVBgwIgD6ZkAzvnfOpBqAySZJ8ABIAcGA3hfkAoCXAXgPMAVhGgnQDCAA4BBke9oH2EqAMYZEDxgOAEQGqAdMggHjAqBvBlA9IAUAkj0gri/IAwBeBmA9oM/9ATQAEBkwgAcMCgAiA9QD5DNgdAD0zYDOVb99QwoA7O/JxhI8oEwBmR6hWpXYFoJATdgPAF4G4D2A0BIKnUIIDyADgMgAZGEg2gOGBgCRAeoBwhkgAQB9MwDvAekAkOsB9FxQEAC8DMB6QB7WTTqIAIMuBiABsPP2hSuH1qsr2A9qZ4eG6AsaAQBEBqgHSGaAEAD0zQB3eW61ftofpQPA/jZZHkDvC2oDAC8DSB5QFANMZIfFfsuglQF4AFy2ASDGA8YBAJEB6gFiGXDr1YPR7fzRP7j92sHmQRF9MwDjAVgAvF6eBRQAiVwPKJNC/nRQPRfUAQBeBhA8gHV/AAkAKQzoqR4wGgCIDFAPkMkAUQDomwHu8rwRvu9cPI+h2m4XANw/SEI9AFJAMLDLADC2GNANAF4GkDwgBwbD/gAqAFIY0Ec9YEwAEBmgHiCQASMCQOB5QbwAkOwBmL4gFAB4GYD3AFpXqEkQ+XJBEQBIYQC7B1w/2/9REEfW2g6bOwrbxFZDy/zOed0n7LJhqH3CIwLAmwUyky3nPaR81Hle0N1f/QRjADtUA5CzP6BMAWH6grAA4GUA3gNMQZhGggYD4gCQwgBeD4g5DK48PA7zdz07C6gdAOoBGytu+A5t/SXND8IAJADYD4OD6N/iAXcunh/yyqL//bsPHz7o/Hfx6ff/xE3yNLJJcINcD+jKBREAwMsArAdw7A+IBkAKAxg9IDvQ9AXaqRIQ0Dv/oj98+BAFACIDQkKgHuCCpH8GIAFw5+J5+zlinvFL+yGmcw0wfz/HuOfB9qk/gPhOHkioBxgP6OoLogGAlwF4DyC0hEKnkOUBKQBIYQCvB8QxAPOPBwsAIgO0HuDG+pAc9MwAEgDshwk3xylx3+sBmL+fw9/z+W8vk4P+yX1yPaBMCjX7gsgA4GUA1gPysG7SQQQYlAxIBEAKAxg9gAoA80x5zD8eAgCIDFAPkMAAEgA8C/8T+2uTrB6A+fs5/D2/f+fvIgDg/ogED4AUEAygFygfxACAlwEkDyiKASayw2K/ZZDfuXn6K5i/QztvX7hcMqM5qDaIidkfgEEC5j+cBgAiA9QDRmcACQDNVX9zhtEDMH8/h7/ndxe+5kbzcAHAuVOyBzT7giIBwMsAggdE7Q9gAcBEPQDzj4cMACID1APGZQAJALXFvrP2t98yeQDm7+fA93y+9a8pzxtweCD8vKB4APAygOQBOTAI+wO4AJDCgLHqAZh/PDEAIDJAPWBEBlAB0FzyN2cyTiQwAOoBmL+fA9+TsvyH6C/XA+q5oCQA8DIA7wG0rtDn1xkBkMKAUeoBmH88kQAgMkA9YCwG3HoFdRREdxeQMYCX9hseJDLA8APz93PIe+68dx6COOdAQj3A1xeUCgBeBuA9wBSEkSTgBUAKA4b3AMw/nngAEBmgHjAKA5AA+OzdN+38T0gK4IcAACAASURBVHPVX8X9nATF2wQPuPnSfszfz8Huub/5L0ndn406gVwPKGHAAABeBmA9gLI/gB0AKQwY2AMw/3iSAEBkgHrA8AzAA8AJ8TYPzHrfpkL1aRQDTBYI8/dzmHuy6H/2C5yr/gYPRNUDTEsoDwB4GYD3AGRLaB8ASGHAkB6A+ceTCgAiA9QDBmYACQAOA/wR/0SeBeLIBWH+fg5wT5b5KXd+hR4mHM0GgR4Ap0SwAYCXAVgPwO0P6AkAKQwYzAMw/3gYAEBkgHrAkAygAsBhQLHSL8N97dNy0vhBRFkY8/ez13s+3/pXqPqyh34/M0atBxShvywFcwKAlwEkD2jfH9AfAFIYMIwHYP7x8ACAyAD1gMEYEAGAWpQ3632rBzT71A79cAM9F4T5+9nDPQ8+/+3lexf//ncXvmY/QsDE6+aMP443MzytMwI9YPf0XmYA8DKA4AGt+wN6BUAKAwbwAMw/HjYAEBmgHjAMA+IAUGNAGe5rk3YpGPBAZMD2awfta+e1J1Ov15/cCV/brx389Pt/cuvkKhw4agf3gQzAcGJUD4AdYfwA4GUAyQNyYHj2B/QNgBQG9O0BQwOAyAD1gAEYEA2AZri/Wc/+GxUoJhM8oDN3BPGad2DOjnbivm0Azkc2LeLG0jygFwDwMgDvAaGu0AEAkMKAXj1gBAAQGaAe0DcDUgBgM8AeVy1AsPa3B0QPAADABjGYgQFv6Idvs58fwB7uuyExtgfs+eCZAx8828v14XMH0q51WP7DoLPtx7s/YBgApDCgPw8YBwBEBqgH9MqARAA4cd+8bX+NrgmbcB/CAERt3oHNgO2T+5oGwA4GOR6QA2AKDMB6gG9/wGAASGFATx4wGgCIDFAP6I8B6QBwGNC2/C+rBYkMgIW/M+AN/fBt3lxQ9/q9tepL+PHxPGDP+88cyCRgCgzAe4AjCkMCIIUBfXgAEgDm7Gh4jAzbgPIsSfWAnhjAAgCHASEDADYU98fmgsyz453oD34AgZtxAB4QMoBZekAGgAkxAOsB9f0B1ziOg24eEN0yE312NLsH4AEggQHqAX0wgAsADgMg1heDcu3v3pbAAC8ADBsYQz98FTCAsHjnkoCT+0bZJ5wbwLNTYgDJA0xZGAuAX7Y9D6Al3Hs/imYArweQACCBAeoB7AxgBIAT3M1bZ9LpFErMBY1SD2iXAF4VGLceUBjAjD3g8vPrBAA8v+6N5nGT0Qxg9AAqACQwQD2AlwEEABxfuXGi+3LX/vnR0B4YlE6QyAD1gKYc7JzKnkBJuE7v22lc2UawLP9jDGC+HkADgAwGcHlABAAkMEA9gJEBNADQGeAYQPbWDv0c+wPUA3piQM0A5uoBZADIYACLB8QBQAID1AO4GEAGAJUBZbh3SAAbxCpj0HoAsmYwVF9QwwDm6AExAJDBgHQPiAaABAaoB7AwIAYAVAaUu8Ds5b8ZAwYKPCQwQD2A3QM8BjA/D4gEgAwGJHpACgAkMEA9IJ0BkQAgMqC5/K8W/iUeipkEBmg9gJcBAQOYlwfEA0AGA66ffQoTx6Pvubd56eoLa6GLbU/AkbXqq3R/wIsr2MiOv/P4ypbvQgIg+u+P9we3Xz3orP0NIdQDOntMh+wLChrAnDwgCQACGDAuANQDrm+sJl5bGyueCx/Z8XcKA0BQAtKeKa8ewOUBrQYwFw9IBcDYDNg8M6YBGDOoFu/2Qj5xrB6Aj+z4OxsMEGgA6gFCPKDDAObhAQwAGJUBEgCgHpAoAdc3Vj0SsNFDIuhFNxE0IgDaDMAUBrQeMGpfUAGA2lYAs/C3Xid0VoR3nzAPAMZjgBAASGCA9gVhKweWB4wIADvvHxqH8jmYee0LSswFdRuAYcOEGNA8L4gNACMxQA4AJDBA+4KoDBgRAN0GoB6ANABzG/f+gBoAmh5gUkDVbuFpnhvKCYAxGCAKABIYoB5AYsC4AAgt/O35jBMJuSD1gGgPqAEAwn2R+q9ngaZbD2AGwOAMkAYACQxQD8AzYFwAdEhAuYs4kQEhfsBJn7yD2Zwb6gEA5HxsHtTkYGoewA+AYRkgEAASGKAegGSABADY6317DHgwk6E4jplXD4jwAA8AqoSPzwCm6AHXTn3Fu1fFmdx5+4LzJJmOt4fYjg5tPzdUJgAkMEA9AMOAm+cOOn/VB3h769WDRUx3tgHD23Lt796WkAsKcYJ3+Q/fNgMP8APAXvsXEd+CQWED0/EALAB+mQEg9GR5PwwGYYBYAEhggHpAJwNGBIAT3M1bZ1KfH9C5J8C+gXefsB8AH5jHhFlBv4mECfUF4QFAi/75c8fiHhXg/amQB0gGgAQGqAe0M2BcADTDvUn3e2BQOoHWA+yI3zFO6wvyA6AZ7ms1AAsMk3ieMB4AhQEI84CP/u//497mpbgLI/vtZwGFzgiy53WfcOI2sa2NFbNTzH5tD+v4T5EAeHD74/tbl+5d57lufvfL9rNlINcPBwTBTEYCO/Tr8wMQjaFcHtAGANsDmkiAGfkMIAHg8qEiC5TZgFnjY177zQWtXTm8Hr7WWk6NHgYA6gGJAOh1nzASAJ+9+6ZzltyNE9mm4trr8ZUbzoV4gpghAUR8CPdNOXBntB6AgEGmCLEe0AYACPHesnDNCWTXA2gAwIR77z39MqAFAOs2AOzjo68cXhsMABIYoPUArxZEA8DhgXnrAgB4gCBBxYCyFGwv/80YFKGAQQIDtC+oCQbnKZLdADAeYMPAO5bsAdEAoEnAsL2hDSFwPcCQYEgASGCA1gOaDOAFQOYEoYvCAHexXyKhCYlQb0/KPHTy8A4m1xe05/1nHvMG9OZkbclvlwHyseSacDQAqqYgs7r3LvydSRkeAE4wMAAkMEA9wGEAOwC4GOAs9g0Smq8ZEtQDwrmglHqAAQCWAU0qmBnDBrEMSAGAKQnQuoPGZoCdBRoeABIYoB5gM6APADAywLPkBxuwi8MJDAjxg3f5D982IQ/Y8/43HsslAMuApgcAFYqP5NUDkgBQLvBp6aCxGTCiAejzAzaPpT5Axu4Fssd2WMePewIAIwOaq34nQVS8TWCA1gO89YAcAEQGQMR3isMwL60ekA4AmgEYZozNgFFqAKJ6Q9UDDCT6AwAjA1wPKNf+DglCa/mUeVi58w4m4QElAIgMgJwPBH0HBqIYkA4AmfsDGnVgu1OoqAmPkgICDOj+gMT2UJb9Ab0CgJEBtgfYPMjmSx5oPaB9Xxi1HmABIIoBdkbIhoGoegALAETuD7AjfnOcMQAJgCuHgw+Fh2geNxidAeoBfQOAkQFF3C/DfW35X04mMiDkCrzLf/g24R5QBwCRAW7Eb7QGCfEAHgCUxQDC7jABuSA8AGbMgIX3BQ0AAEYG1IK+2RVsh37dJxxuBwI5wHtAAwBoBtj7hL0ZIYMHCQzAA+DD59Yx8Z1WEB51fwAJADNmwJI9gACAxvOEvXvBQpMs+wMg2+OQAHpGq+xQQk1YPcDUhH0AQDOg2wCME4zdF0QCAIEBUObFyAHcnDwInRnnLQngAWCKxjNmwGI9gAYACQwo20Dt7L8ZAwYKPCQwQPuCtk/tCwAAzQDbAxwe2G/H9QAqAFAMyI8MonUHJYd+OEMUzwA8AEzoN/2jcen+zp/SekB6TXhrY8W9XlxpbwklA0AAA5rL/2rhX+IBCgah5Xz0PGTweQcC6wFhAKAZAIHeLgh7xuN5QAQAUAzIF/60dNDgDCABAHYPqAdsHl3dPMZ/JQLA3hNgj/kBIIABzmLfIKH5mlgTXrgHtAIAzQDh5wVRAZA3fa5jGEAzgDFqwiQA2FuIZ8yApdUDYgzAWMXx7DTQuIunHuAs9p23dnE4IRcUEgXe5T98mygP6AIAmgHGAzwLf6s1aKzeUCoAPnwui/7m6qwJGwOgkWBAD8ADAGoA6gHZ8h+u6XtAPABkewAkhbQeAP0/oUGoLwgBACIDICPkDKBTaPh6QBwAsB4g8fkB1Z4APAAg7qsHVNHfYEAqA9xiwIa/GJAEABkMgFgPeX87F1R9qh6AaBLNIFE+PwAHACIDmh4AMCg+GrYeQAHAAVj724NOD4i5YRAPwAPAifvAgxnnghbSF5QKABkM8Ef85kaBBAYssB6ABgCRARDxnSMiYH5IDyACoMYArAdEFIQH2R+AB4Ad8aEjCPJCnR0+cTdoX1BiWdgjAQ0PYACADAa0Lf+1HoBc+9u3tbWBfuOx7KBQ58oeHkA7NxQivhnU5GAoD6ADoMYAUAHMMr8oBpjVvYD9AXgA2AYAcd+mQlyI7/yp0Rkwew/gAYAMBhTp/rIanL21Q7/uE7bje2Bs1wMoBmBgQGeAHfRdHgzCgCgA1BhA8ABh+wPwALBjPYxtKsw4FzTvviA2AEhgQBnuHRJAz6jWA0J1YO88HQAJuSAnHTRYPSAWADUGkDwgB4aIZ8qTAGCHe68EzJgBM/YATgBIYIBv+W9UADBQ4EHrAQEJ2D65z3hAFADQDLD3CZtw7xhAkRfq2QMSAFBjAN4DaF2hfe4PIAEAFv4w8CKhM6sTd8PouaC5egAzAAQwoLn8rxb+JR6gYBBq84+eh45+3sEo+wNiAYBmgBPx7XRQbdwnA9IAUGMA3gOE7A+IAIAd9IEEziAuxHf+1OgMmKUH8ANAAAOcxb5BQvM1w4B6QNgDEgCAZoDtAQ4P7Lf99QVdPflVTBzc+eWFD587ELhqW8MMBjpqwjL2B2D+w+9tXsoPkiueIWPHehsG9njGuaD5eUAvAJDBgODCP4/7lSgkMCDED97lP3zbwB6QBgA0AyDQ11b91ibhYr4fD+AAQKQHdEDC2ybU2B9w9Ztf2n3nws7b5Gv37QsUAKw3Q7890xx3rujjblAPSO8NtU8KQgLg899e/uzdN7muG6f+9MaJtmMkuM6KaK76q7ifp4OKtwkMmPH+gGQAoBkw1nlBHz53gAkANQbg6wHkgnBjf8DmmacwcTz6ntIAzP7hmgfYq/7mWD1A8plxsEUACYDovz/eH7z16sHOQ4S4GOB6QKhTKIEBc/UADgCgGWA8oF0C+jgviA8ANQbg6wEFA2Bp7134O5Nw86H1YQFQ84Dmqr85E7fM7/wp9QAuDxgHAK90A4D9OWLO2r+oE5Q80HpAsxOUCQBEBkBGyBkYNvAygNUATIWAXg/IF/WmupCd6e/E+tDbkgGDA6BiQHPV35xRDxDuAZIBwMiAwgPKcF+DQTmZyID5eQAfAIgMaHoAwIC9HsBqAC4DSB5ATgflDNg8/RWvZXNN1lNAcJBcLRfUXPg7M50r+rgb1APSPUA4ABgZUAv6zWOCdJ9wox2IFQBEBkDEdzaIwTxLX1APBuAyAF8PiNsfMBIA1ANWQx1BZt49NFTqM2TkA4CNAeVK3yEB9IxW1QKtB+Qw4AYAkQGQ84Gg78CAhQE9GIDLALwHROwPGA8AFQOc9X7obdwyv/On1ANSPODmuf/KJYv477mFqwHYhWLemnDGAJsHL+0HDBR4SGDAbPqCegBAFAPsjJANg/R6QG8G4DIA6wH0/QGjAqBiQDP735zReoDAesBUAMDlAc3lf7Xw133C9SxQPwAgMsCN+Nz7A3ozAJcBeA/A1oHz+vDYAKgYEFr4O/OdK/q4G9QD4jxgQgDgYoCz2DdIaL4m1oRn4AF7fv3XjTOfnSOgo9/izg219wl7M0IGD9G5oJ4NwGUA1gPyyG7SQZ0wEACAigHNVX9zRj1AlAdMCwCMDAgu/HWfcOkBGQBGZ0C3ARgniN0n3LMBuAwgeUBRFjYdn4F+UBkAqBjgrPdDb+OW+Z0/pR5A9YBRAHDzHGofgF0DsMdc9YDmqt9JEBVvl1oPKAAwOgNsD3B4YL+N84BBAFDbI0bwAMTzA4YAwCHo/mwfFL2hzVV/c0Y9QIgHjAYAmecF2ZVhuySQwIDp7g+oADA6AyDQ2wVhz5juAUMBoMYAkgfkwAg+P2AgABAZEFr4O/OdK/q4G9QD8B4wJgBkMMD2ADsvlM2XPFhmPaAGgNEZ0NN5QXgAfPCsyeekvMbsEw7uD8j94KMjBzZPfyV4nXlqM3yh+vbu3723eUkv2m/g+qV7E7k+/+1lzF+DO+//7Oa5gyzXrVcO/uZbf7j14kpxHW87Fc7O/DTHXLmgIu6X4b6WCConExkwRQ9wATA6A4wHeBb+VmsQtTeUBABeBuA9ILg/IC8P+MvF5VkR2fESgevh/bsPHz7A/PvXexb+G/j9O39nzhCtAjdE8IjB8TL6m58VwIBa0Nd9wmYjmCkCO6/us+CjG4GcH8T1BUEuyDuATiF8PYAKAF4GYOsB3v0B5uAgE9y9JeJA3C948Pz6559cW3hc0/985G/gk59+qwDARj12R0R/74+MzoBype+QAHpGq+zQYuoBHgOQ0xfU9ABAQvERrh4QAQBeBuA9wNMSmsaAzy6/owaAjIALv237x3+VZWA2Vjg9wCHB6Awoq7529t+MAQMFHhIYMKH9AUEACMkFQcR3joiAeYwHxAGAlwFYDyiX+VVVAABQfuSHhFcFnl//5KffWnhc0/981G/g/t0bp/60MoCNjAQ8uSBhDGgu/6uFf4kHKBiE0vrR8/DkL95B9HPE2gAghAGQ84Gg78CgkwHRAOBlANUDDANcEoQw4AXAofWr3/ySGgAqAi77prv/63/CA2QMBubtAQYD7a+JNeFJeEAHAEQxwM4I2TDorAmnAICXATQPKKsCkND3rP1tHjQYcCXv7Pz0nZ8sO7jpf333b+DjH35968Uy+WOW//DqLOFZ3orJBfmX/2W1IJEBIVHgXf7Dt0V4QDcAhDDAjfhWU1BnPSARALwMSPUAO+I3xw0GXDYSoL1A3TFwuXfcef9nsKsAagBL9gCgwuzrASgAjM4Ae5+wNyNk8BDKBaUDgJcBkR7QDPfemSYDnl//7Y+f1UTQcgN863/5559cM9l/mwGQDqoGLAt/50sEekC59ndLBQk1YckegAXA6AzoNoDweUEsAOBlANUDOpI/Dgl8DNBqcGsYXOiHD25/fPO7X948tgrR3wwW6wGw9i+agkoeJOaCxNYDCAAYnQG2Bzg8sN82PYALALwMIHmAfyOYE/fttw0GfPjcgcwDslyQ/p/+BrLfwN2P3nXW/jYGqrU/FANm2hdUBf0y3NeW/+VkIgNkegANAKMzAAK9XRD2jOv7AxgBwMsAkgcU7UAmstuxPjRuMODy81lT0M7bFzQdtHACPLj98Sc//dZvvvWHdsRvjhfoAQCDjAF26J/p84TJABidARHnBfECgJcBBA9AnBvqZoqaDDi0fiUvC3/y0299dvmd7JQYdYJl0ODB7Y/vb1367N03t3/8V52hH2CwIA8ow31t+Z/vDHBnZlQPiAHA6AwwHuBZ+FutQXZvKDsAeBlA8oAcGMFzQ10APB88I6i689D65pmnMDFw9+0LWV+puQ63nxptPi3OjnbOBzVv721ewvyhcWeF2j8F54be+sejmD/x1ltH4UeCg6Nr14qrenD89ltHMN+//dYRxmfKY/7Ee9cvQUCPGCzKA4wB2Mt/M57rPuFIAAhhAGSEnAF0Cpl6ABIA27+48MGzB/DXh8+lHBpaOzsa7wHVvrBQ5qc57/MA+/A4JAB2bAAQz45uPi1gMABcfWHNxHFOABwBAKyZaH7t6CoeAJvHCmxkDwxwrmOrm5QLD4BmpRcPg+V4gLvYd/YG229n4QHxABDCgKYHAAyKj5450BMAxvIAUxCmkaCVAXgAXAYDSPaAIQFgGMAMgAYD8AAoDCDHgAuAo30BAB/uvXcuygMMBtpfE2vCQvqCkgAghAEQ8Z0jImC+PwDwMgDrAeUOYUOCKpnTXPvbM2EGkACQwgDbAwYGwNUX1rAA+EdECuhIYRVlIijzADwAwADSc0FIA0hZ/gMPluMBUAr2D8pqQSIDJPQFpQJACAMg5wNBH2Dwfp8GYPJFjLkgaj0AG/0NCQIMoAIghQFQD5gJACwPwAOgZgBpHoAHABcD7B3CyzwvCKhQ5IsSckGjewADAEQxwM4IAQN6NQB2BmA9II/pNAkI1IQjAJDCAOMB8wFAyYBbb6GKzNtvHXEMIMUDSADgYoBHBZwtvixvdZ/wy/vhnB+ugXNeEA8AhDDAXv7b4wEAwJsLInlAUQwwq3s75xMaNzwgDgApDLhyeG1WAMgZgAeAxwBiPYAKAC4GLNMDYO0/m33CbACQwAB7+W+PhwEALwMIHpC8PyAaACkMmBsAjqzhAeA1gDgPiAAAFwMW5wFl6r/WKVROTrQewAkACQywF/4wHgwAvAwgeUAOjMj9ASkAiGYAEgBXDq/ZTf0p416KwFANpgAgaAB0D4gDABcDluYBYAAZA+zQP9l9wswAkMAAe+1vxkMCgJcBeA+gdYXWa8KJAIhjAB4AXAyQBgCDAe8rvjc0GgBcDFiKB5Thvrb8n/4+YX4ASGAArP3NYGAA8DIA7wGmIEwjQV4P2Dz9FUwc2Xn7gr19zBlXm4Rxe8RIAGBhgEwAmHSQ59XZIBbYH4D5f9y965dCm8ugxTN6sKj9AcYA7OW/GU93n/CeS08/Zp4Cz/v6/jce6+V65rH3s+tA52V7wPAA4GUA1gNi9wewAIDqAXgAmK6hdAbIBIDXAIocEYIBiQBQD7hxYqXzqmV+7M3ALeOE3tAh9wdkAJgrAwASowCAlwF4D6DtDMhzQVwAIDEADwDYOpDIAMkA8BgArh6QDgAuBiytHmByQaHXxJrwYPsDCgDMlQGj1ADs04QY94hhPSCP6SYdhIQBIwDwDMADwN4/nMIAyQCI9gAWAHAxYCn1gJaF/4n9teKweA8oUkDz9oCxDIB9jxjJA4piAGJ/AC8AkAzAA8A2ADOO6wWSD4AID+ACABcD1APcfFECAwbwgMoAZsyAcQHAmwsieAB6fwA7ADAMwAPANoCUeoB8AER4ACMAuBiwXA8IdQolMKDvekBlAL/+66wYMMtcEAEAzxCOg7ZTPZ1jxlwQyQNyYHTsD+gDAJ0MwAOgaQBxHjAVAJA8gBcAXAxYpgfA2n9C+4RdA5glA2gAmAID8B6A6QrtCQDtDMADoGkAcR4wFQCQPIAdAFwMWJwHeJf/5WRiTbg/D3ANYJYegAeA/RyxzkV9xA2jeIApCLeQoD8AtDAAD4CQAVA9AA8AeIZM8Ilg1gZguAd5FET2xLGj1XPEQmOkB/QBAC4GLM0DwADsjQJm0jQLheI4Zr6neoDfAGbmASQATIgBWA/o2h/QKwBCDMADIGQAVA8gASCCARQAVM8RCwGgZd7eJ9wTALgYsBQPKFf6RaC32oTcGWH1AL8BzMwD8AAwbaMTYgC1HuBtDO0bAF4G4AHQbgB4D6ACgMoAIgBQDOj0gP4AwMWA5XhAtdi3efDSfsn7hNsMYDYegAcA7B2bEAOwHhDeHzAAAJoMwAOg3QDwHhABABID6ABAMSCkAsYDegUAFwMW4gHuYt/yAMgOFQMxHlABwKz6m68z6AvCA8A+QGJCDCB5QHN/wDAAcBiABwDGADAeEAcAPAOw3/9W/sjJo/BY+aR6QN8A4GLAcjzAYKD9NcNAAgMY6wEVAMx6P/TKe1KQ+bZeDgv6hjksqHZeEB4AYACTywURPKCxP2AwANgMoAIg3QOwAfofjzY3mkGlt2WA/X4DgPI5YvlThbsZEPKAAQDAxYCFeIC72Hc8oMwOJTIgxA/qg8NcADQNYAb1ADwAIO4bEhRC8MyBD6bQG0rygBwYxf6AIQEADEADYB1vAO0egA3QPgBgPAD7/QAAIgOa9YBrR1eHAQAXA9QDAA9FvmhsD3ABEDKASdcD8ABoGkBBgokwAO8Bdlfo1W9+aeeXFzqv3/74WecI6JS3O/98evftC53XlcPr+bUGwd0cB9Ty6j0v6Mrh9Y9/+HX/H/fOhV3r+viHX28agJlpWf5fO7L28Q+/fvudNzuvj3/49dr3UHJBtgcYHgT/uP/vzdvltfPPp0PHQZPmo4+Mhh/0SMDGyhbLA4SdL9HnCeOeJ+wHwMw8AA8AtwbwbHbu9Fw9oHN/gKdlqPE84WgGUJ8fwOUBoeCOnK/F7vpuAIwl+H+cwgDbA2o8QJwdTQr33pshlEcPFvX8ALsSAGt/UfuE/QCYmQfgAQAG4B1kiaAp5IKwHlDuD/AEevPIMPv10Hp2Gx8AIBdUkKBY6Zv1fug11QOQUb79Nn8Qr8OAfA+FARD3HRjY+wOK8bFVbxxPmYwO/fCDS/SAMvVfZH5MYaCcHLEesOfS04+Hwv1sPAAPANsAmuNZ9gWZXJCdEQryQBIDkELQHsqjPyXHdwweKAwwoR9IcC1/Xlj22rykMmBp9QAwgIwBdugf9XnCBgBBBoTYMK3eUDwAvAv/ogyQp4MmxACqB5iMUHf0N1rApwLRuaD0vqBoAMRne9pJQGFAFfTzR8cADCbEAI8KOKl8lrej1wPKcF9b/ucS4M4k1ITj+oIAAEEGzMADrrz8VUyzxPYvLtix3jYAAMNc6wHBuO/NAolhwMI9AIK+A4MJMWA5HmAMwF7+m/G4+4RtAAQZMHUPoAIAwn2TB/DR3OoBeUxvkwDI/zhIYFIB9YAqrYT2AKcGUOPBdHJBC/EAd7Hv7A+w3w7oAQ4AggyYtAfEAcAs9iHiN2EwFQaQ9gcUxQAT1u1YbyrA8AofMQEgpSasHuAaAO55wimlYPhZKO1GDxbbF2SQ0HxNrAmT9gk3ARBkwHQ9IA4AVQOo1Qzq8mBmfUF5fDdnVmcNPxDlIe47k+YGAQxYcj2gWRAGFZhQLmghHgClYP+grBYkMgBfD/ACIMiAiXpANACccO9Fwiw9wN4nXGHAmwUSw4CFe4CdDqqNp5MLWk49oLnqdxJExduEXBDSA0IACDJgih4QDYAPnrE2gpVdQB4qzM4DPF2hLdFfDAOW7AGw6m8O1APczcaj9wXZGX8zLtf+DglCa/mUefu8oBYAkAaHhQAAGsJJREFUBBkwOQ+IBoAn1lvpILtNaH4eYArCNRJMgQHqAVoPcMO9t5dUAANsD7AzQtl8yYPEXFCnB7QDIMiAaXlAIgBsD2giAWamwoCY/QFQE/bWAJxSAVNJQPuCIvqCmst/mFEPcMEggAFF3C/DfW35X04mMiDkCsYDOgEQZMCEPCARABDi/TUA2wkmkgsi9QUV9QA4N2IKDEjxgN/++NnsbLjmQXXWgXG771y4/u0vfnTkgHcrWRW427d9kT5F94b6DUD7gmR7ABiAu/zveZ8wBgBBBkzFA1gAYDzAhoF3PDcPKPP7tVyQveT3jpkkIKU3NLoesPvOBcy2wetnnwoBQMg+YVj72wP1AHEeUK70a8v/vDDgziTUhEMesOe9v3w8Pw6o8/Uxb7ifhAewAADCfS31by//yyrxVBgQ5wFVU5A39MOkAAbEecDu2ygAbP3tU97lP0yqB0TvDDA/uKj9AcYA7OW/Gfe9TzgDQCIDvGAwk0KeI8YLACBBcwB7x6bCAGw9wIR1kwWCEN85EMCACA/gAoB6QCIATFfoQvYHuIv9ZpsQzLB6QAGARAYI9wAKAGrPkmyGeJhpeoD70UzrAVgDKJnBdYJ0dE2Y6gGMAJDAgNqeAFMJ0HqA7HqAgUHoNbEm7PQFVQBIZIBkDyACAMsAiPhOcRjmZ+kBpj2UgIGpeQAvACQwwK4B2GOtB4irB8Ay3zsoqwWJDLDrATUAJDJArAcQAOB7pjwE9OYAcj72RzU5mKMHFAVhE9k7E0HmGAkmDAzgAUgAXD/bUQOAYoAEBqgHuLHeKwEvrmwJ6A1tW/vnYCjyRQm5IPAAFwCJDJDpATQARDHADvo2DDI5mAgDCPWAvBgw176gPgAggQH22t8eqwe4bBDAAOgKLQbl2r8I/eAHCQwwHuABQCIDBHoAGQBEBrgRv9EaNBUGxPQFYQxgUvWAngAggQHqAW6sn4gH2DzIGFDyID0X5AdAIgOkeUAMANAMsPcJezNCBg9TYQDeA2gGIIMBmKag/gAggQH22t8eqwe4bJDjAWW4ry3/y8loBpgsUBAAiQwQ5QGRAEAzoNsAjBNMJBeE9wBTEKaRgKkYkLJHrL0vqFcASGCAeoAb68V7ABiAu/xP3ifcBoBEBsjxgHgAoBlge4DDA/vt3DygPB/CkADbGjQ2A9o9oG8ASGCAvfa3x+oBLhtG94BypV9b/tul4LR6QAcAEhkgxAOSAIBmAAR6uyDsGc/OA7Bx364WjM2AFgkYAAASGKAe4MZ6wR5gDMBe/ptx+j7hbgAkMkCCB6QCAM2AJZ8XRJMAAb2hIQ8YBgASGGCv/e2xeoDLhrE9oLn8h6SQOyD2BaEAkMiA0T2AAQBoBhgP8Cz8rdagCfWG4usBcGhosfXXXu+HxiI9YDAASGCAeoAb6wV7gMFA+2vGAwoDsABIZMC4HsADACIDICPkDKBTaG71gJbnCYcAINIDhgSABAbYa397rB7gsmFsD3AX+5D9N4OyWkBiAAEAiQwY0QPYAEBkQNMDAAbFRzOtB9DSQcI8YGAASGCAeoAb6yfoAYCHIl+E8wAaABIZMJYHcAKAyACI+Ms5L4jWFWrkYGwG2PWA4QEggQH22t8eqwe4bBDoAeXa3y0VIBhABkAiA0bxAGYAEBkAOZ8QDKaSC8LXA4wB0EgwNgOgL2gUAEhggHqAG+sn4gGw9i+agkoeYHJBMQBIZMDwHsAPgCgG2BkhGwYTqglj9wlPeX/AWACQwAB77W+P1QNcNsjxgDLc15b/5WQnAyIBkMiAgT2gFwAQGeBGfKspaN71ANouAQEeMCIAJDBAPcCN9eI9AAwgY4Ad+hH7hOMBkMiAIT3gyktfxTzldfsXF97/xmO065nH3s+uA+2XvU/YmxEyPz6VXBDWA/L8Pq0gLKAvaFwASGCAvfa3x+oBLhtG94Ay3NeW/5R9wkkASGTAYB7QIwBiPcBOB9XGc+wLKooBZnXf0hIKH43qAXgAXDm8Zh/6zzjW5wknPk5Snyec7QYoDaDAg68mnAqARAYM4wH9AgDNANsDWoxhhh4wqecHkAAwYwbYa397rB4gzQOay39ICrmDBgMYAJDIgAE8oHcAoBkAcb+26l9MPYCWDhrJA6gAmDEDtB7gxnrx9QADg9BrsybMA4BEBvTtAUMAAM2AxZ4XROsKHW9/AAkAZgPBjBlgr/3tsXqAy4bR6wHOxmDnbVktcBjABoBEBvTqAQMBAM2AouTbXPhbMxPqDZ3Z/gASAGD3wIwZoB7gxvoJegDkgpx6ACcAEhnQnwcMBwAiAyAj5AygU2hu9YAp7A8gAcDeQjxjBthrf3usHuCyQaAHlGt/t1SQ1wOYAZDIgJ48YFAAEBnQLAYADIqP5tgXRNscMGxvKAkAtgGYMWMvkP1V2hekfUE3Tqy0XLDGd5t/rFxQxoCSByYXxA+ARAb04QFDA4DIAIj4yzkvqDg7Gvo+MYOhasIkANgGoPWASgiOrW5yX4kAuL6xurWx4rlC+ZyUeTkeUIb72vK/nLx5Yv+e9/7i8ff+kv+69PTjiOsxb7hn94ARAEBkAOR8QjCYSi4IXw8Q+/wAEgCaBqAeUGCAGwCbx1ZZGGBIYL+6aZyU0A8/K4ABtaBv9gRYod8YQw4AeQzwgsFM/vqvH6NeSAB8+s5PaNuAO7cN4/YJm6DfkgsqbphILoiwT1jk/oDb776F2Td+/exTJunvfdV6QIYBqQxYigeU4b5GgvpkCQB5DGD0gKvf/BLmn/TD+3c/fecn27/4h/y6sP2Lka+dX2b/A8xr3P+YnV9mPz636+0LO0zX7tsXnCuL/vfvYv62XP/2F68cXg8ZgHqAekAmFgI8wKz03ex/WRiwACCPAVwecOnpxx8+fID5V6336G8A9xt48NGRA961v10VUA9QDxidAbXlfx73zYx5rQNAHgO4PODzT67h/mHrXfob6P4NfP7by53Lf5ADu5mHcax9QYklgUWdF1QF/fyMIGgZagBAHgPSPeDS04/v/PxH3f+s9Q79DeB+Azs//xEkedQD7J0BZlzkf46uVgOtB8Smg24cX/FfrV2hpmEUAr09qGBQdAH9xeNZL5B9za4v6OrpP8f909a79DfQ/RvYOvdnsMBHDhjX/vZXqQeoB7RsDjCxHqK/87ZsA7VDP4yFMSDFA0xD6t2P3u3+l6136G+g6zdwb/NSnv+pKsB23j801nqA1gNGrwdkJAh2AUHoh4EwBiTWA1QCuiKbfo76DeTL/3WHAeoB1/K+T/fVzgKZsdRckL0zoNg1Bk39jIPYRNBWKBF0vG17MMgBSIAz2HMRwr13IIwBiR7w6Ts/Qf0T15v0NxD4Dey+c6EM/S4DQmt/e149QD1gdA+o1QAu/sXj02JAigf829/88WeX3wn809Zp/Q10/AbufvRu3v0JoR8Ga0gDMLfZSXzGsdYDtB4AS37vwFn+ZzUAA4BpMSDOAy49/fi//c0fKwM6gpx+7P8NPLj70btXv/mlxvLfZYC93g+N1QPUA4R4QJ4C+stMAqbFgDgPAAZs/+If/P/MdVZ/A77fwO47F8zOrzAAqpow0gYY1/72V6kHqAd4l/8waXtAZQCTY0C0B5imoKun/1zTQb5Yp3O138C9zUtZ1fcQrPTbB0UuKLT2t+fVA9QDRveAAgDv5RJQvHqrwWZSWE04zgPMWXKXnn7813/92NXTf77z8x/l+4T1rIha4Fv2mweff3Jt5+c/2jr3Z5cPrWfR31zZ4T+dl9YDVt1eoGPWjPYFOT1Fo/YFuQawEA+A80RzG3iscIJvfunKS1/tuF7+6pUerqsnvzqV69qpr/Bfp79yjXJtnv4K4Trz1CblMon+y9bjByoAqAccXbtWXFlMj7uyhb9zSe0Nnf25oTUALNADgAS5TGRO0HkxHxkNZ0pTzo62HxvgHac8P+DD5w588OyB0Kv56MPnshtir3V4bAAMyM8I6+0ZMlcOr9nR34yjGaD1AL8NOAAQfHb0vPcH1AAAHUFL84BQ0H//mYIHMDB3jsuAD5454Dw7zPssgRQGfPBsxoCWKzb0AzMqBhCeH/D8+ofPHaChwlrIN8M6aSaaAXbePzTWeoDWA0apB3gAsHAPcGJ9kA2wcucdMHnAjJ8nnDEAwnpvHlD9EfBnQSVA6wFHIBG0hskCbdo1AHusHjB2PcADAPWAYpnfWP6//41agkiyB0BeaIYeIPI5YuHisPYFtZUK3GKA4FzQLOsBQQAs3AP+7W/+2LQJhQxAQi4IonxzUEsKTeRZktR6AC0dZC3kvat7/GR0LkjrAVoPQD1/eMC+oCAAluwBEPohHdQcABhkeoCDhPl5QJEIwqSA4B4BDAjVAOx5rQdoPWCwekAHAJbjARD0IbJ3DiAjNC4DnFhv3tYM4Nm8aDw7DzAGQCOBAAaoB6gHyPGADgAswQMg9MPAhP5LTz/+/jPZFoF/+5s/NjOVB9SLAb/+68fGZUCzL8hPhYkwANsXlBcDLptXWOZ3DgQwwF7vh8bqAeoBA3gACgCz9wAn9Heu/b03jMsAJ+J7DGCmHkDrCjV4EMAA9QD1AAkegALAXD3AxH2I/s5bJ8obG6gkoOwRsm8blwG2Bzg8sN/Orx6QG4PuD1izj4TrHI9+Zlyof1T7glww9FkTJgBgxh7gMMCO6cixtHpA0ADm6wFFMcCs7jsTQc+v49t+Ou/UvqAKJ5SzInR/gBvrnW0B8LY3BhAAMEcPeLwZ+r0e4K8E5BIAoR9QIcED7CW/dzxDD9D9AS/QJODqC2tV4D7CN6YwQD1gXAaQATAzD7CPAHJgAG8hsuMH4zLARPx2CcgOk5hITVj3B5iCQWdWJ+6G0RmgHjAiA/Zc/O/F02CcBT7y7XvTOTu6+fwAiP4Q62FgYr3z1tzvFAOyFiB59QDvqh8mDRsmxABsX5A5LOjQOq0yLKAmHOoFsue1L0j7gtj7gnIA0BkwAw8wPAAGNAfQBtqy8A+FfvMjMj3AwcD8PED3B0SogHrAMp8jVgKAzgBbEaboAXnEz9r8Tei3wz0s/OHTJgNgc4D9kbR6AMR6GNh5oWpyIrkgrAfo/gB6MUDrAYkAMKdGT+68IAsAdAZM2gMcAzDPhIFoDgwwMy1vQQJgAF9iBnI8ACK+GdgwmJ8H0LJAuj8gZ4Z6QCIGtjZWpvX8gDoA6AyYrgeUBpAd8Anx3caAs/yHe5z4jnkrhwF20Hd5MDMPyGO6SQcRYKD1AMZ2IPgq7QuChk7GAUdvaAMAdAZM1AOaNWEI8S0DJ9ybQ0O9a38nHSSBAW7EN3sC7NeJMIDUF6T7A6glAfWA5XiADwB0BkzRA4wBNF6LkoDRAtPwY4K+IwS2NwAVDAmc0F99yvvoGPg23DNk7H3C0AXkIGGWfUHmsKACA5gNYjL2iNn9P6Gx9gVpX1BiX9Cei//9j7JO0Ob1F7T20Hl4AIR1O9yDEMCnENNhMMXnB9jpoNp4jh5APi5CQC5IzwvS84JQWwQSckEGADwMmJwH5AHd1ACK12bcb+kOgugPA8gFwQA+gsG4uSDbA5rLf5iZSk0Y2xek+wO0L+jY6ibxSkwETaIvCADAw4AZe4CJ4GADMIDI3jJwkkLjMqCK8nb2vzmenQfo/gBqMUBCb6juE0ZJwIsrcbkgGwA8DJilB9jJHwj9MIDQ3zwyyAn9cOe4DDAeACQIDebmAbo/QD2AKAGbx1bn7QEOAHgYMEsPQDIAQnznYFwGmKBfS/03JGBCNWFSXxChK1T3B+j+ACYGyNwf0AQADwPm5wGw3rerAjYVIOLbHhA6KcjcLIEBweV/zoMJMQBfDyAXhLUvSM8N3UhVAc8m4Y0VbHqHtHuAUhP2AoCHATPzAIj1hgTAA5gHALQPnKSQBAY0PQCoUHw0u3pAwQBo9cG0h8LNyQN9fkC11YCyR0zrAVhgoBkQAgAPA+bnASa4Q/RvDuzoD+cFSd4fALEeBjYPqsmJMIDgAfr8AHpJoArcsMs3fUBhgD4/gJcBLQDgYcAMPADW+M7avz36w6c2EkJjOR4AEd8MbBhMpSZMrQfQjotIXv7D88XUAyqcUBigHsDIgHYA8DBgch5w6enuzQFeFfAGffAA+fWAWrgvawA2EqbCALwH0HYIi6kJh/YG2/O6T1j3CXf2hnYCgIcBS/AAEAVnmW+oYJ8qYW5wigEZHuB0B94B7qwIO9DDuImEqTAA7wG6P0D3B4yyR0xCXxAGADwMmLoHQHw3AR1eIbLD8h8GQALnIWKT2CdsQj+QwB5MhQFYD9D9AfRigIQ9YloPSM8FIQHAw4C5egBE/OYAMkXN9T7gwRmI8gCPAZjtAhOpCeM9gLw5QEZvqJ4XpOcFoTAQ6AvCA4CHAbP0AJAD76BiwDPZgwdg+d/SGjQuAxZ7XlDRG4ppCYV7BNSE7bx/aKz1AK0HeOsBJADwMGCuHmCiP2SEbBg4a3zM23EZAAmfoAHM1wOKsrCJ7BDoWwYCGKAeoB4Q5wFUAPAwYOoeYFI99iuEe+9kM+JDaxAIQfOecRmw0POC8sTOh88doHUHCWBAaO1vz6sHqAc4HhABAB4GzMwDIPsPJLAHzeCOnBmXAcYD2iVgQmdFUOsBpjsIWxsQwAD1APUAqgfEAYCHAfPzAMCAM4C3obgvth4AuSDvADqF5tYXpM8P0L6gZZwbGg0AHgbMzAPsVb8d9O0xMACyQDATGsj0AEBCoQiz6wvS/QG6P2D2+wNSAMDDgBl7QJMHNglgbJMgVBKQwACI+FnaxxSB67uF5+YBuj9APWDuHpAIAB4GzNUDIMTDILTGD83buwckMAByPiEYTIUB1HoAthJgmoW0HpB+QlzzG/S8INKh0Lib97z7f/1R/lz4lFeGZ8pP3QNgsW9ivR3xYdz8yPyUd5+wHfoBD3IY4DUAQ4WpMAC7TziP6bSCsIw9Ynb/T2isfUEL7wvKACCEAXP1AGCDPYCYTh1IYIC9/HfSQXOtBxR7xGBp37ItAD6Cm5MHem6onhu6tbFSPGUet7RHtQO9uFIAQAgDZukBtgHANjGYdAAgvx5g7xP2ZoRm6wH6/AB6SaAK3M2UTvQMJRek5wW1k6ACgBAGzM8DYOHvpIBCDHCQAG/tpJAoD7DTQbXx7PqCTCWAlg5KXv7r8wM8FKEwQJ8f0MKAGgCEMGDqHmAH+ktPP+48Qxh4YA9MlIc7oRdI7P4A2wOcjJD9dn71gCz6H1qfXE04VAOw57UesMB6gAsAIQyYmQc4SIBwD6v7uIEQD6it+q320GJ+dh6g+wN0f8Bs9gd4ACCEAXPygJbFfvMjgMFU6gH2kt87npsH6P4AejFAnx9wfWM18draWPFcaTVhPwCEMGAGHlA+XfJxCPQsNiCtHtAuATM+L2hyuSA9L0jPC7JLAkEACGHA5DwgD/TYRwoDFewBJIimtT/Au/aHJtEJMUD3BxhIROR5MD/iqehGtwPBD1JqwtoXhAWAEAbM0gPsiA/tQDCALBB+IKEe0PQAoMJc6wG6PwAT9J17RmeA9gUBA9oMQM4esRl4AER8OwVkJmFzANzTjPvy6wEQ62Fg86CanEhNmOABuj+AXhIYnQHqAYYB3QBQDzCtnF2vj116uuOC+G4zwB5D8qcJgJYZmfUAiPhmYMNgKjVh6nlBuj/AWem3vx2dAeoBW/ZOYLPeD73qeUFdAHjcC4A86NslAbcaDFTwDgAJ06oH1MJ9/cTQggez8wDdH9Ae7r2fjs4A9QCUAcjJBc2gHgCB3ln7m7fwacuSv/MjCfWANgMwewUmwgC8B+j+AG+Ub58cnQEL9wACAITkgiZXDyg7QQsPsON+M+jDZuAWEsivB9j7hI0NODyYpwfo/gB6MUD3ByRuDihOiGtuEcDtD6ABQAgDZuYBDgact53rffsGafUAiPvNpFAxMzsPoO0M0OcH5MxQD0jEAJwVaniAPzeUDAAhDJiTB9iL/Wb0hxkT6EER9LygD57NHkzWfn343IG0a91OAZkxJsTTCsL6/IAX1kZnwDLrATEAEMKA2XiACfEQ6FsG9mIfORZSDwgawEzrAbo/oD317/10dAYssB4QCQAhDJiHB4ABtIR++MiJ+1OpB0AuKDSYSm+o7g/QfcLZoaFHV6nnwWHuT0wERdQD4gEghAEz8AAT3O1XQIJ34DAg9FZaPaBdAiZ0VoSdFOJPB+nzA+CAB8YB5ayIRXlAEgCEMGByHpCH9bbNAbDeh4y/ifIwD2+ntT8guPwv9wrMzwN0f4A329M+OXouaDn1gFQACGHADDwAFvu2CthjCPqhJX/nvIR6QNMDgApz7QvS/QHt4d776egMWIgHMABACAMm5wHO/gAvAGDSO3Aivvx6AMR6GNg8qCYn0huKrQfo/gDdH3CMXDMYph7AAwAhDJirBzjR3z48zmFA6K3MegBEfDOwYTCVXBC1HoCpGVT3aD2AsQwAX6X1AGuPGBsAhDBg6h5g53wg4+8M7Hsg4kO1QP7+AE+4L2sANhKmwgCsB+R7vnR/gDfh0zI5ei5o3vUATgAIYcDMPMCJ/ibiwyQAgDqQUA+wwz08Omb2HlCUhc3q3uwEbn9VD4DFO+NAPSD3AGYACGHA/DwAIr4zgLcOAOTXAxZ6XlC+6ddsTr58aL3K9ohnwNUX1q4cXmt/NTe0LOejP1IPSCwJeB4mvLFCOA46dEy0d17C2dEz8wBn4Q9xHwYOAFreSqsHgAfU1v5mh/B89wkXW4Xb4779qXoA4/IfvmrxHrDn3T//I28QT5yUwICZeQDE+pYBcGIq+wNsDwASNAfzqwfo/oAIG1APYPeAHADzZcCcPMDpBYJY7wxa1v6hj4TUA4IGMFMP0P0BU2TAzPYHlACYLwNm5gEOBuyWUDADJ9BPpR7QXPg7M3PzAN0foPsDxt4fYKWA5suAOXmAifLeVxsGDgNCb6XVA9olYMbnBWGrwaYqoPUASOIzDhZZD8i7gEzo7wcA2heEeJgww/OEwQwcD5jc/gBn1Q9vDRsmxADdH6Dnhso/N7Q0gAUwYK4eAKHfHoSW/J3zEuoBTQ9wMDCVXBBpn7DuD6CWBEavCc+gHuADQD8qoH1BCBV47NLT7pWH9eDzhGG97wzgrRPx5dcDINbDwOZBNTmz84J0f4DWA8aoB/z/aIqJItiLplsAAAAASUVORK5CYII=;movable=1;resizable=1;rotatable=1;deletable=1;editable=1;connectable=1;" vertex="1" parent="22">
                    <mxGeometry x="81" width="35.5" height="35.5" as="geometry"/>
                </mxCell>
                <mxCell id="26" value="" style="group;movable=1;resizable=1;rotatable=1;deletable=1;editable=1;connectable=1;" vertex="1" connectable="0" parent="28">
                    <mxGeometry x="21.25" y="41" width="103" height="89" as="geometry"/>
                </mxCell>
                <mxCell id="20" value="" style="rounded=1;whiteSpace=wrap;html=1;fillColor=#f5f5f5;strokeColor=#666666;fontColor=#333333;movable=0;resizable=0;rotatable=0;deletable=0;editable=0;connectable=0;" vertex="1" parent="26">
                    <mxGeometry width="103" height="89" as="geometry"/>
                </mxCell>
                <mxCell id="21" value="" style="shape=image;verticalLabelPosition=bottom;verticalAlign=top;imageAspect=0;image=https://www.jenkins.io/images/logos/jenkins/jenkins.svg;fillColor=none;movable=0;resizable=0;rotatable=0;deletable=0;editable=0;connectable=0;" vertex="1" parent="26">
                    <mxGeometry x="21" y="12" width="61" height="65" as="geometry"/>
                </mxCell>
                <mxCell id="85" value="" style="line;strokeWidth=4;html=1;perimeter=backbonePerimeter;points=[];outlineConnect=0;labelBackgroundColor=#FFFFFF;fontSize=15;fontColor=#000000;fillColor=default;strokeColor=#000099;" vertex="1" parent="28">
                    <mxGeometry x="171" y="56" width="51.5" height="10" as="geometry"/>
                </mxCell>
                <mxCell id="89" value="&lt;font color=&quot;#000000&quot;&gt;&lt;b&gt;&lt;font style=&quot;font-size: 20px;&quot;&gt;Jenkins Master&lt;/font&gt;&lt;br&gt;&lt;/b&gt;&lt;/font&gt;" style="rounded=0;whiteSpace=wrap;html=1;fillColor=none;strokeColor=none;" vertex="1" parent="28">
                    <mxGeometry x="-3.25" y="145" width="152" height="57" as="geometry"/>
                </mxCell>
                <mxCell id="75" value="" style="shape=singleArrow;direction=north;whiteSpace=wrap;html=1;labelBackgroundColor=#FFFFFF;fontColor=#000000;fillColor=default;" vertex="1" parent="1">
                    <mxGeometry x="24.75" y="253" width="17.5" height="158" as="geometry"/>
                </mxCell>
                <mxCell id="76" value="&lt;font color=&quot;#000000&quot;&gt;&lt;b&gt;&lt;font style=&quot;font-size: 20px;&quot;&gt;push to main branch&lt;/font&gt;&lt;br&gt;&lt;/b&gt;&lt;/font&gt;" style="rounded=0;whiteSpace=wrap;html=1;fillColor=none;strokeColor=none;" vertex="1" parent="1">
                    <mxGeometry x="42.25" y="314" width="120" height="60" as="geometry"/>
                </mxCell>
                <mxCell id="77" value="&lt;font color=&quot;#000000&quot;&gt;&lt;b&gt;&lt;font style=&quot;font-size: 20px;&quot;&gt;Trigger pipeline&lt;/font&gt;&lt;br&gt;&lt;/b&gt;&lt;/font&gt;" style="rounded=0;whiteSpace=wrap;html=1;fillColor=none;strokeColor=none;" vertex="1" parent="1">
                    <mxGeometry x="119" y="31" width="120" height="60" as="geometry"/>
                </mxCell>
                <mxCell id="79" value="" style="shape=singleArrow;whiteSpace=wrap;html=1;labelBackgroundColor=#FFFFFF;fontSize=15;fontColor=#000000;fillColor=default;" vertex="1" parent="1">
                    <mxGeometry x="115" y="87" width="138" height="19.25" as="geometry"/>
                </mxCell>
                <mxCell id="90" value="" style="group" vertex="1" connectable="0" parent="1">
                    <mxGeometry x="491" y="314" width="528" height="439" as="geometry"/>
                </mxCell>
                <mxCell id="86" value="" style="rounded=1;whiteSpace=wrap;html=1;labelBackgroundColor=#FFFFFF;strokeColor=#9673a6;fontSize=15;fillColor=#e1d5e7;movable=1;resizable=1;rotatable=1;deletable=1;editable=1;connectable=1;" vertex="1" parent="90">
                    <mxGeometry x="-15" y="43" width="543" height="396" as="geometry"/>
                </mxCell>
                <mxCell id="87" value="" style="shape=image;verticalLabelPosition=bottom;verticalAlign=top;imageAspect=0;image=https://upload.wikimedia.org/wikipedia/commons/9/93/Amazon_Web_Services_Logo.svg;labelBackgroundColor=#FFFFFF;strokeColor=#000099;fontSize=15;fontColor=#4C0099;fillColor=default;" vertex="1" parent="90">
                    <mxGeometry x="15" y="142" width="107" height="64" as="geometry"/>
                </mxCell>
                <mxCell id="88" value="" style="shape=image;verticalLabelPosition=bottom;labelBackgroundColor=default;verticalAlign=top;aspect=fixed;imageAspect=0;image=data:image/png,iVBORw0KGgoAAAANSUhEUgAAAgAAAAIACAIAAAB7GkOtAAAAAXNSR0IArs4c6QAAIABJREFUeAHtvX+oH9d16CuMEUKcHg4H1ZjS3P4T+m8u+eNijN69Ji+Q/NfyuJTWlOAaY4QwQoiDoyjGPCGEUPOrimscY4QjCimGFx6ht3D/CSEY9+EKowTX1wghi4M4kRX5cHyi60iqrOoxs2fW7Nmz98xae6+ZWTOzyvBlf/d3zlfxqbQ++7PW2nv2XN9Y3dpY8VwvrmyxX8dXtmKvG8dX/NeJlRtd180T+8nXS/tvcl+3Xt7fx7V9cn9+7ds+OcZ1at824to5tY92nd6307h2T+9Nus7s3e3hun12L+P12Xce7fH63qOfRV13vvdo8PrBo3eI171zj4xzvfLIvcB1/5VHIq9XH7nvux68uifpem3PA77r4Wt7sut1z7Xn+saqubY2VgwMKiSwA+DFeABshQBwvBsAN06sGACYAeY1uz8WALdeDv5sHwC49XIGgPx1X/srDyFOZZjZyV+LL0QAYJsKgFMeAOyc3tcEQDZ5Zq/5yB4378xmKAC4fRZ7PyMAbp/d2yMAvkMAwJ0fZDeb12zQcqEBcO9cRYt75x6584NHva/xeHglQ8v9wGv2tQEA3IsGwCt+ANx/9REvAELznptxAHiY3/bw9QwYodfsowADagCwPaDAwOwYgFEBAEY0A26+lEVk74/3x4BODzB44MFAbhsVBkZlQDPWGxI056kM2D2Tre4x2JglAxxdYGEA6EJLlDdgaLkh6aOxGeCJ9SFdwDEA6QpeBlQAcDyggsEcGdAuATdf2s/CAC8ADBv6wECnBzCG/izt42ScxmZAbflfOgELAzAAMKhgxMCSPSApvptlvnpAwwm8HuABgAn9tXTQHBlAUIHYXJA0D7ATRG74dqI5+m0lASdRxYD+ckHeWG9SQ56PKLkg9QBbBQbwADs1lAqDUL1BPSAvCbgAAA+oDMCUiGfHgHYJqAzAFJATGCDHA7iCftv3SPCA03lJoF0CiPUApASoB0CGp3PQUg/gCfqBSoCpEGR/xNgMkFAPCALANoBl1gMyBjDlgoTUA2wD4K0HyPWAdgyoB0Q1BXHVhAESTsS3DUDrAUXNoJ96gB8ARcRvtofOzgNunijS/U0hKHJETAyQ4AFtK3d0zgf1JXI8IF/pBxNB6gEi+4IcHiS9VQ/wdQdBPSAIgKYBLMoD3OV/yYlQHMfMj+4BTQNYigeUSSFPMYDOAO0LgpJAT/WApgGoB/TkAW0AWI4HBJf/eQHAfFoVjSdbD0At3hlVQIIHQAoIBt7dZMRcELIkwNgUtKj9AUlLfm/VVz0g4AEdAFimB9jLfzN2MkWY9X7onhE9IGQAy/GAXaMCHAxQD+jPA0IGoB7A7gHdAFiOB0CUrxb7LWdITNADhjYAIxMSPKBMAbUVA+i5IPWAnvYJ8xuA0YLleUDL9mCzbRgFgKV5QDMj1JzJIJHAgFE8oN0AluIBrLkg9QD1gO5DhHyHBRF6QPvcJ4wFwKI8oMMAJtsX1HlWRI+KIMcDtC+o87w5dG9or+cFqQd0HxqB7g0NHRNEAIB6gPEAwEPxVj0gXDeWuz+gTAppX5D/zAk0A8AAzIC9L0jrAR0YQDPAe2QQDQBL94By7e+QICUXFPrZPg4LypM8iz47Ws8L8od7rxOgGaAe0J0FMqeNUnJBhBwRmgFNDyADYMkeAGv/olxc8kDrAe25I8keoH1BbUhAM0A9oA8GdKz97doAmgGOB8QAYKEeUIb72vK/nExkgHpA86kytAfIoJ8fABG/ZgPexlDtCxKzT1jrAd0wQDPA9oBIACzTA8AAMgbYoX+y+4S1LyirAWhfkDcFBJPqAYFj47Cr/ubTZii5oO7QDyqAZgB4QDwAluUBZbivLf+nv09Y+4KKnQGsDND9Abo/oJsNFAb0Vw9IAsDSPMAYgL38N2PYQVbgQfuCtC9InyNWeoP2BQVhQGFATx6QCoBFeUBz+Q9JIXeQwACtBwxdD4DlPwy8JQE9L6iM6U7Jt/lW+4KCQd9JB1EY0IcH7Nk8VjwUHp4OHzFwHihfUGGOZ0c7i32DhOZrxoMEBug+4SEZ0NwKEDwxgsgA3ScMbFAPCCKBwgB2D8gAwMUA9yFiGytbM2WAu963jwwqqwWJDAjxQ/cHELqDTu/baVzNcK99QW2doFAKhoF6wKg1YV4PKADAxYBmVWCuDGiu+p0EUfFWPWCK9QDWXJB6gHpAcPkPGaGRPKACABcDlusB5drfIUFoLZ8yrx7Qrwdw94ZqX5D2BfEygMsDagDgYsAyPcDOC2UMKHmQmAvSesCI9QCzWcybNULGdLhNPUA9gJcBLPUAFwBcDFicB5Thvrb8LycTGRByBfWAvjwAUkAw0L4gqAHYA60HTLwe4AEAFwOW5gFgAO7yX/cJh8sAcIiQnhcErrB7Zu8snyUJBmAG2hcUFIIB6wF+AHAxYCkeUK70a8t/3SeMiPsAAHcg5/kB7RKg5wXpeUEBCbgHBd6IAYUBKfWAIAC4GLAcDzAGYC//zdjZOhDK52DmtR4wWj2gHQO6PwCdC1IPCC78HU5QGBBdD2gDABcDFuIBzeU/JIXcQUJvaIgTWg/oqx4Az5FnZYCd8GkZzzIXpPuE+2BAnAd0AICLAcvxAIOB9teMBwkMUA8YzQP0OWJ2Bbg5Vg8IpIOwEd+RgFceud+zB3QDgIsBC/EAd7FvbxLO434lCgkMCPFDPaAvD4DlPwy0L6gJAK0HBAAgth6AAgAXA9QDAA8FBhIYoB4wogfA6RGeLQJaD1APCGBAoAdgAcDFgOV6QKhTKIEB6gFDMsCcEGe2hgVPizNaQGRASw3A/kjrAXd+8CjmuneuuE2fI9ZZHCYAgIsBy/QAWPvr84Tdjs/WblG5+wNYc0G6Txi6g3R/QFAUeqgH0ADAxYDFeYB3+V9OJtaE1QPG8QA9L8hbA7An0bkg7QsKBn2nLExhAKYviAwALgYszQPAALLsvx36dZ9wqwEYXZDrAdoXZEf85hjNADAA3SfcAQMKA5hTQObhAVwMWIoHlOG+6v8pW4PcGa0HIGCQIUHCPmFIAcFA+4KaANC+oEBBWEhfUIwBMD5DZjkeYAzAXv6bse4TxpcEJHuA9gW1PVVGPSCAgY7FvpP/sd8yeUA8ANQDbpxY6bxqmZ9y4Q+T/oF6wIQ8oEwBaV9QGwDUAwIAGN0DkgDAxYDleIDJ+bS/ZlRIYIDuD2gmiAi7w07ty25uPEiyI76X3Z9ttxF7Q7UvCKoC2hcUFIVkD0gFABcDllIPaJeAslqQyIAQP3SfMIEEaAaYoF+Efq0HeMsAMInOBWlfUDDo24kg4lkRzb4gBgBwMUA9ADJCRhFCcRwzrx4wmgeUSSHPJmH62dHqAeoB3SRI8AAeAHAxYLkeUK79i9APopCQCwpxQj2gLw+A5T8MtC8I1v72QD0gUBLojvXO8h/eUhhgewAbALgYsEwPgLW/7hPGNwVtn8zy9dX9Y/eGNpf8wZKA1gPQDAAD0P0BHXigMAD2B3ACgIsBi/MA7/K/nNR6QBXiO7uDxmZAVQ9olwB6Lsg+FKhlrOcFYQ4LuvODR/W8IOMBzADgYsDSPAAMIEsB2aFf9wl3Bn3JHtCOAfUA9YBRc0EPXt3DDwAuBizFA8pw72b/IfRrPQDBgJolyPEAPS/ITv17x2gGaF9QRwooqh6wZ/PoKhzwwDi4vrGaeG1trCzHA4wB2Mt/M9Z9wrXI3koCyfWALDV0Zm+zSJDNqAegGaD1AHYG5AAQzICFeEBz+Q9JIXegfUGtGKiAIcEDIAUEA+0LUg8498j9Vx65V75mDy0IJIIG2CdcAkAwA5bjAQYD7a8ZDxIYoPsDRtwfoOcFtR0XoR4QwAB21Q8pIBgg+oIsAAhmwEI8wF3sQ/bfDMpqQSIDQvzQ/QF97Q8ot4YFu0LLkySo6SDM/doXpH1BzSfLW22gR1ezMgBcx/hLAonFgKYBmJmtF1f4r+MrW7HXjeMr/otyZpyT9LdtAPBQ5IvUA8K5ILn1ANZckO4ThqqAnhcUFIVWD6gbgMGAVAYs1wPKtX8R+sEMEhigHjBkLqjaH6B9Qd4agD2JzgVpX1Aw6EMWyAzCDNhzDdb+9kAqA5o2wC8BL8ZLwFZIAo53HxztBHfv2l/3CVc13vDyH+6R6wFlUkj7gvxVATQDwAB0n3AHDAIMyAAwLQYszgO8y/9yUusBEO67B9oXdHYvY0nAH7vttXzKGM0A9YCO0A824GNAbgDHJsaApXlALftvh37YLJaQC9K+oCFzQc0lf7AyrPsD0AxQD4hmQGEA6gH+VFJsQZgtF1SGeydBBLViYEMop58yr31B2hfUaQzqAVkjf9xl7QawdwaY8TD7AywDUA/wthWNzoCy5JsxwObBS/sBAwUe1APChQG59QDtC2rPFKkH9Lk/oGYA6gEyPaC5/K8W/iUeipkEBoRcQT2gXw/QvqB2AOjzhAMAYNkn3DAA9QCpHmAw0P6aYSCBAVoPGLEeoOcFtWWT1AMCGMBm/6EUDIO8JuwxAPUAmR4QXPXrPuFw5qejNUj7grQv6AePYrYKz/X5AQEDUA+YmgcAHrQe0BH0JT8/ID8TQvuCgiqgHsDtAUEDUA+YjAfYlWG7JJCQCwrlkbQe0G89oL0gTD87GnNY0O4Zzs0Bt8/uDYbvzlw/5gY0A3R/ACY7VAFg06z6m6/2DmHZZ0UsbX9AsziczZQ80HpAuwpoX5CNh852T9INQhig+wM6GVABwCz5va/VUXEAA6lnReg+YRP3KzaoByArBBLqAeaICO0L6lQB9QCmXJALAPUAf+anWRIQsD+givJ55sdd/us+YUTol+sBel5QOwbQDFAPaPEAFwBeA9B6gJ8KozOgzPY4JIANYlAZDuX0U+a1HtBXPQAqATDQ54h5YYBmgNYDQgzwA0A9wB/xRXqAifL28t+MAQMFHhJyQbo/YMT9AfocsbaKApoB6gFeBvgBoB6ABYCAs6Oby/9q4W83BaXtEQu5gnpAXx5QpoCCXaH6HDGjBWgGqAc0GdAGAPUALAZGzwWV6X4Dg9CrqQ+HQnnnvHrAaB7AmgvS54iBDehzxNoAoB6ABYAADwiu+nWfMKIU7G8Y1b4g3Sc8933C3QBQD8BiQLAHAB60HuCP9RYktC9I9wdUZoADgH2YxL1zj9z5waMtr5FnR3eeOB1oDG0/M64bAOoBWADI9IBQp1BCTTiULNJ6QF/1AEgBwUD7grQv6Nwj9lME4p4fsOfa0bWWEA8fqQdgMSDMA2DtXzQFlTxYXD3g1B98+v0/2X39yep648nd7uuJ3TeI1/kndonX7fNPsF1vPnG76/r9m0+Y67MLT0i+7lx4wlx3/+G/MF53Xv9Pd36wD8oAMKhW/d971B3P1wMMAFAMABg4A90n7LJBAAOKuF+G+1qnUDmZyIApeMD+31342r2Lf//5J9cePnzwUP9PfwPFb+DB559cu3fx7+/9P//nZ9/LTgM1GHDjvk0CNAOmdW4oAADFAPUAN9Y3dwaYGQEMqAV90yZkh/6ycSgUxzHzkvuCfnfha/dvXNKIp7+BwG+gWBA8uHHJYICRAVASaKkEmDrB6PWAPdeOrOVZIPOaPR0+7lIPcNkwOgPKcO+QADaIVdmhmdUDTq/d/dVPAv/sdVp/A57fwL//6sKdc/sZGTAVD8gBQGSAeoAb6wV7gInyGQNsHsz3ecLbZ79wf/NfPP/EdUp/A62/gc+3/jUvD2TpIJZc0CQ8oAQAkQEhS1APcNkwtgc0l//Vwn9++4RPr2n0b41y+mHoN/Dg4cMHGQMW5gEWAIgMUA9wY71gDzAYaH9NrAlLqAdo5icU3nQe9xt4kOWCWGvCwj2gDgAiA9QDJsSA4MI/PyOoEoXJ1gN+d+FruH/kepf+Btp+A+w1Ycn1gAYAiAxQD5gQA0IGAGwoMJDAgPE8YP/9Le35aYtr+hnyN5AlgqyNAvOuB/gAQGSAesCEGACxvhjYlWG7JJDAgFD/aK/7hHX5j4xuehvmN7Cc/QEBABAZoB4wIQbYHmDzIJsveZDNJzBgeA+4d/HvMf+w9R79DWB+A/cu/j1UAhh7QwXWA8IAIDJAPWBCDGhb/jMxIMSPnjwg3+uL+aet9+hvoPM3kO0TNnF/9vuEWwFAZIB6wIQYUKT7y7SPu/yf1j7hk6t60kNnVNMbKL+BB44BzNUDugBAZIB6wGQYUK70HRJMb5/wydVPv/8niH/bDx7ev3v3Vz+5c/F8dr032nXvvfN9XZfO3+O77l96Q8T16zfu813//qsLD+/fRfxteXjn9f9UBP28KxR4wFITltMXhAAAkQHqAZNhgG/5b1QAMFDgQXY9YOe1JzH/pO/+6iedDwNIvWHsZ8jseo+J9k6e2Wuf+881vi38GTLfezRjAOL/7v7Df4EskDNgYYCQegAOAEQGqAdMhQHN5b9dFq6NExjQdz1g53UUAO5cPG/i+62X96cGeniAzKl92yf3yXmGTPYA4fKZAfbYDwYKA5APktw9s1c0A7736P1fv4GI/w8dABgDmJ8HoAFAZIB6wFQY4Cz2DRKar5L7gqgA4MdAzoMKA8I8wJAgnQEmuGNcQTID4gDgSMBszguiAIDIAPWACTGgttgvU0PFZFktSGRAfx5ABQCnARgVyD2gZhVjM6C2/C+dgIUBGABI9oAUAMzPA4gAIDJAPWBCDGiu+p0EUfE2IRfU0/4AKgBsA+CFQSUBJ/dtj82AZrjPqMBRD0Cmg2R6QAoA5ucBdAAQGaAeMCEGuB5Qrv0dEoTW8inzKfsDqADgDfq1hT/UBsAMEBggPEn4VFZv2DntubyR3UT8mg14AXC6l4KwTA9IB8CcPCAKAEQGqAdMiAG2B9g8yOZLHiTmgtg9gAqApgHwIkGuB7DmgibqAekAmJMHxAKAyAD1gAkxoIj7ZbivLf/LyUQGhFwhzgOoAOAN920GIM0D8pV+MBG0DA/gAsA8PCABAEQGqAdMiAG1oC/+ecJUAIQMgBcMcj3g9F6TFPJmjZA1Xrhtch7ABYB5eEAaAIgMUA+YDAPKlb5DAugZrbJDCTVhLg+gACDbAcAb6LsNQI4HQAoIBt6SAGV/AJCgcyCkJswLgKl7QDIAiAxQD5gMA8pmUDv7b8aAgQIPCQxgqQcQAVDsAjMYCL1iw7pT9W28lewBu0YFOBgwIQ/gBcDUPYADAEQGqAdMhQHN5X+18C/xAAWD0HI+eh5fD0AeBXHn4vk83O8fxwDkeECZAmorBsy3HtAHAKbrAUwAIDJAPWAqDHAW+wYJzdfEmnCiB5AAYBiwfbLAQMgAeCEh1wNYc0GT8AACAL7zaHOBj5yZynlBfAAgMkA9YEIMCC78ZTxPmAoAYABXnof8PYjNAdum5Z/0GrE/YHl9QTQAUBgwRQ9gBQCRAeoBE2JAc9XvJIiKt2PUAyIAAAxoN4CleECZFFpCXxAZABQGOH4g3wO4AUBkgHrAhBjgekCoUyiBAaGCQXs9IA4AwADy+r1R6Y38BgkeACkgGHDUhDs7gswNo/QFxQCAwoBpeUAPACAyQD1gQgywPcDmQTZf8mD4ekA0AIAB6gGw9g9Whom9oWLrAZEAoDBgQh6w5+oLa9eO9HAdXbtWXKuhZX7n/ObRVfc6trrJfV3fWE28tjZWPNeLK9jIjr/z+MpW7HXj+Ir/OrFyo+uyY30xLsN9LRFUTiYygOoBKQAABkSu4tNtQIIHlCmgYPQ3WkBkgEwPiAcAhQFT8YAMABIYoB6ApUUsALZCADjeDYBalIfHBZedoO7yH25IyAWR+oISAQAMUA/IPIA1FyTQA5IAQGHAJDygAIAEBoSEwJWAo/wSsHksVQKub6x6JGCjBwl4MV4C2BhQrvQdMEDPaGUMCQzAe0A6AIAB6gHsDJDmAakAoDBAvgdUAJDAAPWACXmAifL28t+MAQMFHhIYgPQAFgAAA9QDTD1grucFMQCAwgDhHlADgAQGqAdMhQHN5X+18C+zQ8VMAgMwHsAFAGDAoj0AUkAwmFdfEA8AKAyQ7AEuACQwQD1gKgxwFvsGCc3XDAMJDOj0AEYAAAPUA+baF8QGAAoDxHqABwASGKAeMCEGBBf+Q+0T5gUAMGDRHjDfviBOAFAYINMD/ACQwAD1gAkxoLnqdxJExdt+PIAdAMAA9QD2mvDofUHMAKAwQKAHBAEggQHqARNigOsBoU6hBAaE8kh9AAAYoB7AzoBx+4L4AUBhgDQPaAOABAaoB0yIAbYH2DzI5kse9FEP6AkAwAD1gDn1BSEBcOfCE59951HC9b3Io0PHPS+oAwASGKAeMCEGFHG/DPe1RFA5mciApgf0BwBgwKI9ANqBYDDlvqD7l954iPg/MgCm6QHdAJDAAPWACTGgFvQHeZ5wrwAABqgHzKMvqEcAUBggpB6AAoAEBqgHTIYB5UrfIQH0jFbZIaZ6QN8AAAYs2gPm0heEBMBn1BQQ5IvQuSAJ9QAsACQwQD1gMgwoN4LZ2X8zBgwUeEhgAOwPGAAAwAD1APaa8MB9Qb0DYFIeQACABAaoB0yFAc3lf7XwL/EABYNmWp80MwwAgAHqAewMGLIvaAgAUBgwrgfQACCBAeoBU2GAs9g3SGi+pteEBwMAMEA9YLp9QQMBgMKAseoB9849QgaABAaoB0yIAcGFP8c+YZMF2n7tIKKt4+Gdi+fbnyyG/HT75P782jeOCkh4fgC0A8FgOn1BwwGAwoCxPCAGABIYoB4wIQY0V/1Ogqh4G1sPGBgA6gHQDgSD4JNkiM+QGaAeMCgAKAwY3gMiDUDIM2TUAybEANcDQp1CUQwYHgDAgHEk4OS+bQkeMM2+oKEBQGHA8B4QaQBCGKAeMCEG2B5g8yCbL3kQVw8YBQDAAK0HsNeEe/WAEQBAYcCQHpBkAEIYoB4wIQYUcb8M97VEUDkZwYCxAAAMUA9gZ0B/fUHjAIDCgCE9IMkAhDBAPWBCDKgF/X72CYdaSJE1XuptpiasHmDqAfKfIzYaACgMGMYDGAxACAPUAybDgHKl75AAekar7FBUPeDmS/thg1iTBNTgjrxf+4KqR8mL7wsaEwAUBgzjAQwGIIQB6gGTYUC5EczO/psxYKDAQywDWjCAjOnU29QDoCOoUgGO3lD2esDIAKAwoG8PYDMAIQxQD5gKA5rL/2rhX+IBCgbNhXziDDW4I+9XD9idQl/Q+ACgMKBvD2AzACEMUA+YCgOcxb5BQvM1oiZs4yGUDkLGdOpt6gGVB7Dmghg9QAQAKAzo1QOYASBhj5h6wIQYEFz4c+wTtknQHFODO/J+9YDCA07vrQoDHLkgrr4gPABun91LeCAMnAaKHwg4N5QfABIYoB4wIQY0V/1Ogqh4q/WAk8HDJ3ZOWR+NvUeskoA87kvrCyIBQA4DevKAXgAggQHqARNigOsBoU6hBAY0DcDMINf11NvUA6rlP2suKN0DqACQw4A+6gF7rhxeM+l79tdrR9b4r6Nr14prNRTiYV49YEIMsD3A5kE2X/JA6wHtO84ke0CVF2qmg4Y9LygCAHIYwO4BGQBmzACAgTPYPLrqXsdWN7mv6xuridfWxornenEFG9nxdx5f2Yq9bhxf8V8nVm50XXasL8ZluK8lgsrJRAaoBzQPEdo5tY92nd6307ictI/dCWpSQMHT4gwPiAxI8YA4AMhhAK8HFACYMQPUA7C0iAXAVggAx7sBUIvyZmOw1QbqLv/hhoRckPYFDcmAGhhYc0HRfUHRAJDDAEYPKFJA6gGFEHBLwOaxVAm4vrHqkYCNHiTgxXgJYGNAudJ3wAA9o5UxJDBAPWBIBpi1f2EArAyI84AUAMhhAJcHVAYwbwaoB7R4wG++9Ye3Xjl481x23XoleN049ac3TrRBwp8ICnjAze9+efu1g7deza7t8FWE/pf2w6BiA5EB22e/sP3aQbh2XnvSe22f/QK15Gvu3z77hZ3Xn2xen/7ooLnMR9n/jJP7QmcHtWf5m5/uvvFk6/XE7htP7L72n5sRvzlDSwSd8iSCOvI8ZfY/u+3M3poclB8hYzrcFuEBiQCQwwAWD6gM4OoLWTFgxrkgpwwAb91iwFH+YoBoDzi+cvMc6olan118s7NOgGfAveuXMI/xMkv+Kugn7A/Y/dkLmD9x92cvxAHg9j+hvv/2P73QjOPRM5j/ovtbl5rh3jvTHwNM0JfgAekAkMOAdA9wDWDeDFAP8HoAFgDvdgMAnwvCA8BUAppZoIIKaA8QBYCQAZh5PA+wABDwDJnmkj9oDMSaMMkDWAAghwGJHuAagHpAJQSLqQfwAgDJADwA7Ly/Cfo1IcidIJTWt+fxADBnyVE9QLQBmE1kY+8RMxG/ZgOQ/HEGRAZAUqh9cPvsXi4AyGFAigf4DUA9QHhN2FSG7Vfv0h45yQ4ADAPwAPAG/WyyrBgje0NJAIhgAAUA2ZnVLZUAvAcgDaDaIjA2A2oewFoTRnoAIwDkMCDaA/wGoB6wKA/oAwCdDMADoDCAMtzXlv/lJIYBVABQGYAEwP/+2QuM+4SRAKjllMZmQOUBY5wXxAsAOQyI84A2A1APWIgH9ASAdgaQAFAL+rHPEYsAAIkBSADc/qesyMx1bigeAJUEyKsHmKRQTQ4gI0TMBXV6ADsA5DAgwgPaDEA9YCEe0B8AWhhAAgBkexwSNCvDdtLfGccBAM8AEgCAAbW1efi4t9BteAC43yDBAyAFBAOI+/aAyID2MkAfAJDDAKoHdBuAesDsPaBXAIQYQANAYHuwqQQABgo8BPqCogGAZAAVAMAAk/Fvf3XDd4kKKgAke8Aw5wX1BAA5DCB5QLcBqAfM3gP6BoCXAUgA2Et+e1y1BllsqCZ9DEgBAIYBEQAABoTie+c8FQDuF0rwgGGfI9YfAOQwAO8BWANQD5ixBwwAgCYD8ABw4r552/7qrQknAqCTAXEAAAa0G4D51A3fJ/fFAUCuB7CMosL/AAAgAElEQVTmgrz1gF4BIIcBSA+oAGBW+u2vuk84w8Ds9gcQAMB3XhAJAA4DqpV+c/kf7gvCAyB0YFw7A5Dfb4rAziaD6L6gOAC4IJHjAf33BfUNADkMwHjAniuH183qHv/K/uQAfZ4w11kR9s6A4hQ5xInQNAAwMYAKAIcBIQMANhT3W7kgZIDe/dkLpnocwoATu+Et8vu9AIj2gBQAyPWAMinUR1/QAACQw4BODzAAqBjQbgBaD5hlPYAMAA4GRADAYQDE+mJQrv3d20oGIAM0AMBpIrLfQtC3B8jvDwEAGOAuz8t6r3c+BQDuF0rwAEgBwcBuB4JxQl/QMACQw4B2DwAAVAxAqoB6gNhcENUDYgCQzIA4ADjB3bx1JkPnhiIDtAMAvAcgv78FAMAAk/FvfzXhOx0Akj2gj76gwQAghwEtHmADoGKAegCcFWoPquU/PFBsFvWASACkMSAaAM1wnxmAd/lfTpobkAHaAYC98HfG9vL/1sv7kd/fDgBggLs8D3hAOgDcP0iCB5QpILNn2J8IyqsF7S3/3k+HBIAcBoQ8wAFAxQD1gGt5vdd9hdAPA6kMwHtAPAASGJACAIcBnrd26C+fI4YM0F4AYDwA+f2dAAAGtBuA+ZQLAHI9gDsXNDAA5DDA6wFNAFQMUA+wl/8wnp8HJAEgigE3TqwkAqAW9MtwX5vMG4TsGWSA9gLAWfvbb8EDkN+PAQAwwF2eNzyACwDuHyTHA/j6gm7nlYPhASCHAU0P8AKgYoB6gGsAx1azmeY1ZQ9IBUAUA9IBYAd3KAhnkzYP4FFiJ7ApmhYAtHsALwCAAe0ewAsAuR5QJoX86SBKTXgUAMhhgOMBIQBUDFAPgLW/PZgQAzyPFK73hjIAgMgAFgO4cSJ76Hwt9De3BVgzyADdAgB74e+MGWsAoBTAAHd5bnkALwDcP0iCB0AKCAbQC2QP0AzAA2D3zN7bZzmvz77zaI/X9x51gnvore0BLQCoGKAeMG8P4AEAkQEsBuAwwDkUyOABIMEFgJAHIL8fmQICDLSfG9oHACR7QHpfEAkAc2UAsKEdABUD1APs5T+M5+EBbABAM+DGcXQNIPBMeRP64RU8wDMoM0LIAB1nADdfwqaYqABo94A+ACDRA8oUUHpfEBUAc2WA8YBOAFQMUA+YqwdwAgDNAKwBHF/JHjSfZ3vaX+3Q76z9zUe8AGh6APL7IwAADGjWA/oDgFwPSMsF3bt0HvNL++zCE3YX6SxzQZ9971EMACoGqAfA2t8eTN0DmAGAYwANAHQGZEG/XPsbHiADtEADMOkg73lBmFh2f+uSu6i3qgjYjyTUA4wHpPUFxQFgrh6w58qh9fw4oM7XNaQBmNt0n/CE9gnzAwDBADIA4hjQcxHY9gA8YCC/Tx006wF9A0CuB5RJIWpfUDQAZsmAHABEBqgH2Mt/GE/XA3oBQBcDYgBAYYCdBRJlALs/yx4JGX05HtA3AFw/kOABkAKCgd0OBONAX1AKAObHgBIARAYgbUA9QK4HfPuL2z/+q51/Pv37d/7uzvs/w8SRz397+bN33+S6Htz+GPOHxv1xdy6eb173N/8F8yfe3/yX5s9iZvr+fu//Bsx/0X/c+fTOe+d//87fffY/jvzuwtfcmI5IB0n2AGpfUCIAZsYACwBEBqgHwNrfHgj3gK3jKx//8Ot3/9f/fHj/bh47HmAiiN4z8d/Ag4cP4Xr44PbHv3/n77bPfiGCBMWPSPCAMgVE7QtKB8CcGLDn8qH1rAwAV/Z4gM5L6wH5fmCzK7j5Knaf8Le/iFzsTzze6f/87t/Af9z59LP/cYTEALkeQMkFsQBgNgzIAJDCAPUAe/kPY4EecPO7X/78k2vdgUHvWNJv4M5757dP/QEJA9XNcjyA0hfEBYB5MKAAQAoDtB4gf3/AjVN/isy5Lyn66X9r9hv4919dqGL6xOsBWTrozN72viBGAMyAARUAUhigHgBrf3sgxAN+860/vLd5SaOd/gZCvwFqLqgGDAkeACkgGEAvkD3I+4J4ATB1BtQAkMIA9QCxHvDJT7+V1wBD//x1fum/gf+48ym1Jiy3HpBH/GBl+MxeJAB+/2a2E/j22b32fuDQeLr7hF0ApDBAPcBe/sN4XA/4zbf+UJM/Sw/wiP/+rC8Ikf8J3iPBA3B9QSQAhCJ+c36iDPAAIIUB6gHSPGD7x3+F+Oevtyz9N/Dg9sf5FrN9wRDvw4NcDwjngiIAMGMP8AMghQHqAbD2twejeMDWiyu3331r6bFN//txv4HdN54kRX/PzXI8INwXhATA7TwF1Fzpt89MzgOCAEhhgHqAHA+4v6XlX1z8W/xdWSk4qiVUrgeUSSG7LygaALP0gDYApDBAPcBe/sN4eA/4jzufLj6y6S8A8xt4kFoGgByRBA+AFBAMynagaAC0r/3tTyfkAR0ASGGAeoAED9D+H0zw03sePnx45+J5T1YHwnrXQLIH2OcFJQJgZh7QDYAUBqgHwNrfHpA84NrRtZvf/fK965fiLkxo+/y3l2+e+6++6+DNc0Nct145yH+9evBW67X96sF+r9cObjeundeeTL1ef3IHcX36o4Pm2nn9ydv/77OYvwYPbn98f+tS4vXgRvENu6/9522ECuyc2ke7Tu/baVx2hgfGphPUbA2zu0ITAWCv9NvHk/AAFABSGKAekO4Bv/n+f8P8A46+5971S9c3Vr2X54HyGytb9WfK87w9vrIVe2VPCjMPDnNeic8Rs58p1jZ+KXvUDO8VfTp0+w+as6N3Xn8y+u9G9A/uvvEEBgDbVACc8gDAju8AAHdQ5oJYADAbD8ACIIUB6gH28h/GeA8YEQCGClsbK9c3VuE1o4I0BjihH96iGdB8fkBoxjxrLA4A9gNknG9oD+XRn26f3P/pjw5Gx/HoH8wAcHLfuAywl/8ACRYAtK/97U+FewABACkMUA9I8QAJALBVwMBgfgxoW/WXTxYzVEhhwM2XsqfBONHfvI2O8u0/OBIAyqZSRCJoOA84jd0JjGkDnYEH0ACQwgD1AFj72wOMB4wOAMcDKhjMzgNuntgfWvgXob98znAiA7wAMGxoj+YRn44MgLE9oKgAs6aA7DU+ZizWA8gASGGAekCcB8gBgAn9tXTQHBlAUIGEYsBgHjBSDSAzgKo1SIwHsKeAJu0BMQBIYYB6gL38h3G7BwgBAHhAZQAbK9l4dgxol4AqC2TyQgkMGMYDRgRAra90bAaYMgA7ADAGYO4R6AGRAEhhgHoA1QOkAcA2gGXWAzIGMOWCBvCAcQFQSYCAXNAuaw3ADv0T9YB4AKQwQD0A1v72IOQBogBQRHyz9rdfZ+cBLfWAIkfExIC+PWBcANQkQAADsAZwPjsOuo9LlAckASCFAeoBeA+QBoCmASzKA9zlf1k3DsVxzHyvHiABAHI84N575zG9rbfPP5HtJCAyYHIekAqAFAaoB9jLfxg3PUAgAJbjAc16gF0inkQ9QAIA5HgADQB0BiCZIcQDGACQwgD1AIwHyATAMj3AXv6bsZMpwqz3Q/f05AFyACDBA8gAoDNgQh7AA4AUBqgHwNrfHtgeIBYAy/EAiPL28j84FtYXJAcAEjwgBgB0BkzFA9gAkMIA9QCMB2RIOEa+MOnOlrOAvAcEOZNwRITtBPPrDTXhvpkRas5kdyYwgN0DkABIPA3UDe7h00PH9YBIANAZMAkP2HP5+fXLh9iuK4fWq+vw+pXua81Ef/UAe/kPY9sDijGRAQMAYFEeEFz1l3sCDA8SGRDiR8Q24Fsv76cC4NbL+7dP7mu+4kM87c5h9wfEA4DOAPkekANABgPUA/rwgGEAYK/97fHSPADwUGBAhgdQARAK3wYJoU+p82N5QBIA6AwQ7gElAGQwQD0A1v72IMUDkADYPOY/DtrJ9rS/dXcIz3SfMET52qDcE1AZQOkEoeV89DzVAygA8K/9eUO/HxVDeUAqAOgMkOwBFgBkMEA9gNcD8ADgYoBtAEV2aI57xKAs7EZ8sy2g5EFiLoilHkAEQMYA72Unhbw3REwO7wEkAMAh0s2nCyDDurlNrAfUASCDAeoB9vIfxnEeQAIAFwM8KjBTBhQSUIb7GgzKyUQGhEQB7wE7r6EeCHPn4vk8xGenVQ9aA7B5078HkADgxv3ywcIRe8SQwBh4f0ADADIYoB7A5QFUAHAxYGkeAOmgjAF26BewT5gEAMOA/FFirgc0wRCx5Pf+yJAeQAKA/UgZDwymv0/YBwAZDFAPgLW/PaB6QAQAuBiwFA8ow31t+Z8XANyZhJpwigdQARDyAG/s7mWyTw8gAcAT9G0JmH49IAAAGQxQD0j3gDgAcDFgOR5gDMBe/puxWypIYEB0PSACAF4PaBqAmeFiwDAeQAKAbQCzrAeEASCDAeoB9vIfxngPiAYAFwMW4gHuYt+0AHlfExgQ5wFxAGh6AFegx35PPx5AAkC3ARghIOaC5NQDWgEggwHqASkekAIALgYsxwMMBtpfE2vCER4QDQDHA0IGMC0PoAIAJQH0XJCQvqAuAMhggHoArP3tAcYDEgHAxYCFeACUgv2DslqQyACqB6QAwPYA7Mrd7upJH3N7ABUANQkoHyxcm4SqwAQ9AAEAGQxQD4jzgHQAcDFAPQCoUOSLEnJBJA9IBAB4QLsBTMUD4gBgFwCME7AwYHQPwAFABgPUA+zlP4zbPYAFAFwMWK4HlGt/t1SQwAC8B6QDABgwjgSwPkcsDgBZuIflPwxg7W8PJuUBaADIYIB6ANUDuADAxYBlegCs/YumoJIHibkgpAewAAAYMHUPiAeAHeXzsa0FNSEgMmBED6AAQAYD1ANg7W8PQh7ACAAuBizOA8pwX1v+l5OJDMB4ABcAgAGT9oAUAJiIb1JAwehvOEFkwFh9QUQAyGCAegDeA3gBwMWApXkAGEDGADv0D7JPmBEAwIDpekAKAGrLfDsp1JADkzJChnVz2ygekAHgw+cOZE8FwF/6/IAja9fYr6Nr14pr1V7ak8ZND2AHABcDluIBZbivLf+H3SfMCwBgwEQ9AA+A0Bq/8gBuBiCBwXheUGEAGQMgrGNIADcnD6oHyBzCPEBmHbn8h9uuvrDWx8UPgCMAgDVM0N88lnHC83p01cZAHwDgYsByPMAYgL38N+Nh9gmzAwAYMEUPIAEgxABHBbLbzux1Jou3xFzQwB5QpoAOZR5QYAADABm5IK0HeFExAAC4GLAQD2gu/yEp5A566AvqAwDAgMl5ABUAIQaYoF98Otm+oBIAZdCnpYOSl/+gHeoBlVJQckEeAzBmUHpATwZgnk7c/nwYzKf6PGFXAnp4nnBPAAAGTMsDkADYPf/Ezul9cPlX943Uf4gWyNwO3DaYB9QAQDMAwwwBDFAPaPGAXgGgHnDjxErn5a7xvQcE5XG/EgVWD+gPAMCACXlAHABCkd3MZ6/tEkA/KwJg0D5IrAfUAAAFYRoJBDAAMv7tgz6KAVdf6KEgzFcP6BsAXAxYTj3ARPnmK3CiwEACA5z9Ab0CABgwFQ+IBkCIATU5aMeAvHqAC4DLeTGgeC3zQt0NQgIYoB7g9YABAMDFgIXUAyDQV4NQp1ACA+z9AX0DABgwCQ9IAUCIAZUHTK0vqAEAfNB37hTAgPblP3y6HA+4dnR1GABwMWCZHlCRoJ/nCQ8AAGCAfA8gAOBUVQOAYkCIATUPOL03u20KfUFtAKAVhLUvqLdc0PVvf/HWW0e33zoScQ0GAC4GLM4DvMv/cjJjQ7IHIAFwf/Nfdn/2wu7PXrj9TzHX/67/4PbZLwwtBLhzQ2kAoDDABP2CEKy5oPYyAHwaUQ9oA0BREoClvbPk976Fm5MH2hcEfUG/+f5/w8Tx6HvuXb9kunrSXzGdP+33LLAvCAwgy/7boZ9jn/DNl/YjARD998f7gzuvP+l9srxRBEY2UJ8jdue9897/wc5k1gV0al9xWe1AoALOkj/0NmgMMuoBHQAwxYDJ1YRnVg/Y+tunnL+dvG8ZAaAe0NkUVNR4TS9QGe5rk3z7hE01ePu1g7x/YTDfZgDAGOixX9XlATEAoHpAmQIKRn8x5wV1AaBc5tPSQcnLf90fAMv/a0fWpgUALgYspx5gDMBe/puxu0UgNhc0CgA+/dHBFgMY0QMiAUBhQM0GWHNB7PsD9nz4XPcpQDQDMMwQwICZeMDR6QGAiwELqQc0l/+QFHIHUQwYDwD7scv29AeHOd8Q9oB4AFAYYNb+8usBGQCwDDDHxh3qBkbRNiqAAdD50z4Q3hc0OQPQfcI3jndvEHPivnnb/prxgM6AUQGwX1pfUBIAKAyoeUCZFHImi7fj1QMKAHQzQPcHRB0qZ2dyIsfDGEB+rlx6Edj5hvZ6L+ZTjwRsrGy92MN1fGUr9srCvfeSsU94FADsvP5kHvr3b5+U5QGpAKAwIDMASAHBoHGARIYBIgOQ93f2BVUA6GZAWQ/o3hdm36kekHxw9BAGYM4OOpYdL8p7YaJ8+z0L7AtqegDkggpvoHjAiAAABsjxAAYAUBjQXPIHK8NEBrDUA6oUEDIXBMdFEDAggAETrgcMZgCyGeBRgYV4QKhTCM2AcQEADBBSD+ABAIUBVT2gXQLG8ICaAdAYAGHdXu+HxnBz8mCB+wOGMwDZDFhOX5BtALD2j36e8Par47SB3no5KwCYK08EiagHsAGAwoCaB7RjYFgPqAEgX92jasK6PyCibiy9BlCeIJ09ToA7EaR9QbT9AXBiqHf5X04ia8ISACDHAzgBQGFA5QGSzgvakz8HJgv6zoXM8Oj+ABIJ4hgwtAGoB7wYXxDe8laDzSSxJlyk+0sYZG/t0I/eJywEAMCAcesBzACgMKDmATL6ggwADtjRH+8Buj+AFP3NzWQGDFIDyJ4u2bzUA8btCyrDvUMC2CBWZYda6wFyAAAMGLEegAXAG9ZREHAmRGiAPitCWl8QAKDGAOBBpwcYA6CRILkMsLR9wuYwuFtvHcVczoFxmF37965fMkdJT4gBy6kHmChvL//NGDBQ4CHMACQA4DA4cyRc52v7mXHbZ78ABQBnMG49oBcAJHjArlEBjt7QiL4gGwA1BmA9QPcHjLU/oNld6nuWJAkA6gGeHQaxEsCVC2ou/6uFf5kdKmYCDEAC4M7F881dZk7s5nprGDCKB/QFAAoDqnpAe0G4/74gBwA1BuA9oFMUPDeoBzQjePpMgwF4AJjHC0+LAcvxAIOB9tcMAz4GpADg5ktVJw9X9DffM5YH4AGwHUr4tMyjc0G1ekA7BvrsC2oCoMYArAfk3Z+0grA+P6C35wdcKzCwin8gTJECyh8oPy0GLHd/gL38L6sFXgYkAqBvBgzsASQA9MqAygPG6wvyAqDGAJIHFMUAs7oP7Qmw59UD0lf9zW+wPCDGAHIMaD3ATQeNnQtykv62DUBSqMgX1T2ABADnecKgFLzLf/i24T2ACoBeGVDzgDH6gkIAqDGA4AF5SWByNeEJ7xNuRn8zUzIAD4DmI4UnxIDlekC59i9CP2iBxQASACDiNwcQtXkHA9cDIgDQKwPG7QtqAUCNASQPyIFxwJP3t9f+9liAB3x05MD1b39x88xXrp99iuva+tunOq/I3tBQ3LfncwbgAWBqAPbrtHJBy6wHwNq/ZZ9wBABm7AFxAOiVAY4HDNkX1A6AGgPwHkAzAEOCkRiwde7Pdn7+o88/uYYJlH3cAzsJyPsD7FgfGh9dw/xvvrdZtIHaEjDFmvDiPMC7/C8noR4QAYDm8h9meJf/8G2DeUA0AHplQFUPaC8Ic/cFdQKgxgC8B5iCMI0EwzJg69yf3du8hImPvd4DALjaT00Y8z8eAOAs/zMD0HqA98g5MfUAMIAsBWSHfmufcDQAZukBKQDolQE1D2jHAF9fEAYANQZgPUDw/oCPjhy4/e5bmMg4wD02APpgAOY/AQDgNYCiQUj3CTskGJ0BZbh3s/8Q+st6QDQAYNXfHMDKnXcwgAckAqBXBlQeMFRfEBIANQbgPYBQBoCSQM8ecP3bX7z70buYsDjMPQ4A2BmA+a9wAADJn8oA1AOc6G/ejs6AMsTby38ztluGEgEwMw9IB0CvDKh5QP99QXgA1BiA9YA8rJt0EAEGvTHgoyMHREX/hw8fNgHAy4AIABRL/nJPQE0L1AMcEozNgObyH5JCMEgEQHP5DzO8y3/4tl49gAUAvTJgyL4gEgBqDCB5QFEMMJEdFvstg34YICfzA3HZCwBGBsAf1DJwDKAW8c3a336dDgOW2RdkkGC/sgBgNh7ABYBeGeB4QH99QVQA1BhA8AAB+wO2zv1ZSxAc66MQALgYgPnv8gLATgTZSJhWb+ji+oLKpBAs/2+e2M8CAFj1Nwewcucd9OQBjADolQFVPaC9IJzWFxQBgBoDSB6QA2Ok/QGH1yX0/DTDcQsAWBjQ/BObM14A2IkguztI+4LcHcJi6gH2qt8eMwJgBh7AC4BeGVDzgHYMxPYFxQGgxgC8B9C6Qk2CiCkXJHP5H6oB2FRI3B/QDPfNmRYAOGt/+63uE3ZJMHY9wF7122NGADSX/zDDu/yHb2P3AAIATu7bPoW6dlqOh/N+hD4zrvKAfvqCogFQYwDeA0xBmEYCDgbs/PxHzcAnYcaO9aFxCgMw/42dAPAYgPYFOdVgwR7ADoBJewAaAE8Wp9SNzYCaB7D2Be2e2ZsCgBoDsB4w0v6AEff6tofgUNB35qMZ0P6nm087AWAv/J2xeoB8D2AHAKz6mwNYufMOGD2ADAAhHgApIBikPUPmdp41SgRAjQF4DyC0hEKnUIIHXDm8jomDo9zjBPqWt3EMwPxHIQGgHuDGeq8ESHqesKkE9ASAiXoACQA7p/bJ9ACuvqA9Hzx7IH8ufMpr9UB5rAfkYd2kgwgwiGLAlcPrV7/5JUwcfHj/7u1339p9+8KQV0vEh4+yR0L+41HaVT4/EvMfngNgzVnak96qB7hskFQPQAKA+kjI9mdGtjwSMloOWDyABIDaswrGzgVV9YB2CaD0BWUA4GUAyQOKYoCJ7LDYbxlEMWDzzFOYOHj73beuHF67cng9cK3ln2JfIXynD7b+FvW/H/Pf6L2nBACKAeoBbqwX7wFIAHj/bkRP7rz2ZHSgb/lBw4D84fL72l9rsftkuZA/uY8KgEoCBOSCavWAdgzg+oIKAPAygOABg+wPQAJg9+0LgdAPSCii/8DPDxgQACgGhORAPcBlgwwPmBMA8qC/P8dAFdNDsd47TwWA+yVyPICjL6gCAC8DSB6QA6PH/QF8AFgnScCVw2vpy/+rL6wNAYAja+WDJFEMUA9wY71gDxgLAH0/S7LdAMynbvimG4D5BrkekNYXVAMALwPwHkDrCjUJIkouiBUAFQMG84CBAEBkgHrAVBgwIgD6ZkAzvnfOpBqAySZJ8ABIAcGA3hfkAoCXAXgPMAVhGgnQDCAA4BBke9oH2EqAMYZEDxgOAEQGqAdMggHjAqBvBlA9IAUAkj0gri/IAwBeBmA9oM/9ATQAEBkwgAcMCgAiA9QD5DNgdAD0zYDOVb99QwoA7O/JxhI8oEwBmR6hWpXYFoJATdgPAF4G4D2A0BIKnUIIDyADgMgAZGEg2gOGBgCRAeoBwhkgAQB9MwDvAekAkOsB9FxQEAC8DMB6QB7WTTqIAIMuBiABsPP2hSuH1qsr2A9qZ4eG6AsaAQBEBqgHSGaAEAD0zQB3eW61ftofpQPA/jZZHkDvC2oDAC8DSB5QFANMZIfFfsuglQF4AFy2ASDGA8YBAJEB6gFiGXDr1YPR7fzRP7j92sHmQRF9MwDjAVgAvF6eBRQAiVwPKJNC/nRQPRfUAQBeBhA8gHV/AAkAKQzoqR4wGgCIDFAPkMkAUQDomwHu8rwRvu9cPI+h2m4XANw/SEI9AFJAMLDLADC2GNANAF4GkDwgBwbD/gAqAFIY0Ec9YEwAEBmgHiCQASMCQOB5QbwAkOwBmL4gFAB4GYD3AFpXqEkQ+XJBEQBIYQC7B1w/2/9REEfW2g6bOwrbxFZDy/zOed0n7LJhqH3CIwLAmwUyky3nPaR81Hle0N1f/QRjADtUA5CzP6BMAWH6grAA4GUA3gNMQZhGggYD4gCQwgBeD4g5DK48PA7zdz07C6gdAOoBGytu+A5t/SXND8IAJADYD4OD6N/iAXcunh/yyqL//bsPHz7o/Hfx6ff/xE3yNLJJcINcD+jKBREAwMsArAdw7A+IBkAKAxg9IDvQ9AXaqRIQ0Dv/oj98+BAFACIDQkKgHuCCpH8GIAFw5+J5+zlinvFL+yGmcw0wfz/HuOfB9qk/gPhOHkioBxgP6OoLogGAlwF4DyC0hEKnkOUBKQBIYQCvB8QxAPOPBwsAIgO0HuDG+pAc9MwAEgDshwk3xylx3+sBmL+fw9/z+W8vk4P+yX1yPaBMCjX7gsgA4GUA1gPysG7SQQQYlAxIBEAKAxg9gAoA80x5zD8eAgCIDFAPkMAAEgA8C/8T+2uTrB6A+fs5/D2/f+fvIgDg/ogED4AUEAygFygfxACAlwEkDyiKASayw2K/ZZDfuXn6K5i/QztvX7hcMqM5qDaIidkfgEEC5j+cBgAiA9QDRmcACQDNVX9zhtEDMH8/h7/ndxe+5kbzcAHAuVOyBzT7giIBwMsAggdE7Q9gAcBEPQDzj4cMACID1APGZQAJALXFvrP2t98yeQDm7+fA93y+9a8pzxtweCD8vKB4APAygOQBOTAI+wO4AJDCgLHqAZh/PDEAIDJAPWBEBlAB0FzyN2cyTiQwAOoBmL+fA9+TsvyH6C/XA+q5oCQA8DIA7wG0rtDn1xkBkMKAUeoBmH88kQAgMkA9YCwG3HoFdRREdxeQMYCX9hseJDLA8APz93PIe+68dx6COOdAQj3A1xeUCgBeBuA9wBSEkSTgBUAKA4b3AMw/nngAEBmgHjAKA5AA+OzdN+38T0gK4IcAACAASURBVHPVX8X9nATF2wQPuPnSfszfz8Huub/5L0ndn406gVwPKGHAAABeBmA9gLI/gB0AKQwY2AMw/3iSAEBkgHrA8AzAA8AJ8TYPzHrfpkL1aRQDTBYI8/dzmHuy6H/2C5yr/gYPRNUDTEsoDwB4GYD3AGRLaB8ASGHAkB6A+ceTCgAiA9QDBmYACQAOA/wR/0SeBeLIBWH+fg5wT5b5KXd+hR4mHM0GgR4Ap0SwAYCXAVgPwO0P6AkAKQwYzAMw/3gYAEBkgHrAkAygAsBhQLHSL8N97dNy0vhBRFkY8/ez13s+3/pXqPqyh34/M0atBxShvywFcwKAlwEkD2jfH9AfAFIYMIwHYP7x8ACAyAD1gMEYEAGAWpQ3632rBzT71A79cAM9F4T5+9nDPQ8+/+3lexf//ncXvmY/QsDE6+aMP443MzytMwI9YPf0XmYA8DKA4AGt+wN6BUAKAwbwAMw/HjYAEBmgHjAMA+IAUGNAGe5rk3YpGPBAZMD2awfta+e1J1Ov15/cCV/brx389Pt/cuvkKhw4agf3gQzAcGJUD4AdYfwA4GUAyQNyYHj2B/QNgBQG9O0BQwOAyAD1gAEYEA2AZri/Wc/+GxUoJhM8oDN3BPGad2DOjnbivm0Azkc2LeLG0jygFwDwMgDvAaGu0AEAkMKAXj1gBAAQGaAe0DcDUgBgM8AeVy1AsPa3B0QPAADABjGYgQFv6Idvs58fwB7uuyExtgfs+eCZAx8828v14XMH0q51WP7DoLPtx7s/YBgApDCgPw8YBwBEBqgH9MqARAA4cd+8bX+NrgmbcB/CAERt3oHNgO2T+5oGwA4GOR6QA2AKDMB6gG9/wGAASGFATx4wGgCIDFAP6I8B6QBwGNC2/C+rBYkMgIW/M+AN/fBt3lxQ9/q9tepL+PHxPGDP+88cyCRgCgzAe4AjCkMCIIUBfXgAEgDm7Gh4jAzbgPIsSfWAnhjAAgCHASEDADYU98fmgsyz453oD34AgZtxAB4QMoBZekAGgAkxAOsB9f0B1ziOg24eEN0yE312NLsH4AEggQHqAX0wgAsADgMg1heDcu3v3pbAAC8ADBsYQz98FTCAsHjnkoCT+0bZJ5wbwLNTYgDJA0xZGAuAX7Y9D6Al3Hs/imYArweQACCBAeoB7AxgBIAT3M1bZ9LpFErMBY1SD2iXAF4VGLceUBjAjD3g8vPrBAA8v+6N5nGT0Qxg9AAqACQwQD2AlwEEABxfuXGi+3LX/vnR0B4YlE6QyAD1gKYc7JzKnkBJuE7v22lc2UawLP9jDGC+HkADgAwGcHlABAAkMEA9gJEBNADQGeAYQPbWDv0c+wPUA3piQM0A5uoBZADIYACLB8QBQAID1AO4GEAGAJUBZbh3SAAbxCpj0HoAsmYwVF9QwwDm6AExAJDBgHQPiAaABAaoB7AwIAYAVAaUu8Ds5b8ZAwYKPCQwQD2A3QM8BjA/D4gEgAwGJHpACgAkMEA9IJ0BkQAgMqC5/K8W/iUeipkEBmg9gJcBAQOYlwfEA0AGA66ffQoTx6Pvubd56eoLa6GLbU/AkbXqq3R/wIsr2MiOv/P4ypbvQgIg+u+P9we3Xz3orP0NIdQDOntMh+wLChrAnDwgCQACGDAuANQDrm+sJl5bGyueCx/Z8XcKA0BQAtKeKa8ewOUBrQYwFw9IBcDYDNg8M6YBGDOoFu/2Qj5xrB6Aj+z4OxsMEGgA6gFCPKDDAObhAQwAGJUBEgCgHpAoAdc3Vj0SsNFDIuhFNxE0IgDaDMAUBrQeMGpfUAGA2lYAs/C3Xid0VoR3nzAPAMZjgBAASGCA9gVhKweWB4wIADvvHxqH8jmYee0LSswFdRuAYcOEGNA8L4gNACMxQA4AJDBA+4KoDBgRAN0GoB6ANABzG/f+gBoAmh5gUkDVbuFpnhvKCYAxGCAKABIYoB5AYsC4AAgt/O35jBMJuSD1gGgPqAEAwn2R+q9ngaZbD2AGwOAMkAYACQxQD8AzYFwAdEhAuYs4kQEhfsBJn7yD2Zwb6gEA5HxsHtTkYGoewA+AYRkgEAASGKAegGSABADY6317DHgwk6E4jplXD4jwAA8AqoSPzwCm6AHXTn3Fu1fFmdx5+4LzJJmOt4fYjg5tPzdUJgAkMEA9AMOAm+cOOn/VB3h769WDRUx3tgHD23Lt796WkAsKcYJ3+Q/fNgMP8APAXvsXEd+CQWED0/EALAB+mQEg9GR5PwwGYYBYAEhggHpAJwNGBIAT3M1bZ1KfH9C5J8C+gXefsB8AH5jHhFlBv4mECfUF4QFAi/75c8fiHhXg/amQB0gGgAQGqAe0M2BcADTDvUn3e2BQOoHWA+yI3zFO6wvyA6AZ7ms1AAsMk3ieMB4AhQEI84CP/u//497mpbgLI/vtZwGFzgiy53WfcOI2sa2NFbNTzH5tD+v4T5EAeHD74/tbl+5d57lufvfL9rNlINcPBwTBTEYCO/Tr8wMQjaFcHtAGANsDmkiAGfkMIAHg8qEiC5TZgFnjY177zQWtXTm8Hr7WWk6NHgYA6gGJAOh1nzASAJ+9+6ZzltyNE9mm4trr8ZUbzoV4gpghAUR8CPdNOXBntB6AgEGmCLEe0AYACPHesnDNCWTXA2gAwIR77z39MqAFAOs2AOzjo68cXhsMABIYoPUArxZEA8DhgXnrAgB4gCBBxYCyFGwv/80YFKGAQQIDtC+oCQbnKZLdADAeYMPAO5bsAdEAoEnAsL2hDSFwPcCQYEgASGCA1gOaDOAFQOYEoYvCAHexXyKhCYlQb0/KPHTy8A4m1xe05/1nHvMG9OZkbclvlwHyseSacDQAqqYgs7r3LvydSRkeAE4wMAAkMEA9wGEAOwC4GOAs9g0Smq8ZEtQDwrmglHqAAQCWAU0qmBnDBrEMSAGAKQnQuoPGZoCdBRoeABIYoB5gM6APADAywLPkBxuwi8MJDAjxg3f5D982IQ/Y8/43HsslAMuApgcAFYqP5NUDkgBQLvBp6aCxGTCiAejzAzaPpT5Axu4Fssd2WMePewIAIwOaq34nQVS8TWCA1gO89YAcAEQGQMR3isMwL60ekA4AmgEYZozNgFFqAKJ6Q9UDDCT6AwAjA1wPKNf+DglCa/mUeVi58w4m4QElAIgMgJwPBH0HBqIYkA4AmfsDGnVgu1OoqAmPkgICDOj+gMT2UJb9Ab0CgJEBtgfYPMjmSx5oPaB9Xxi1HmABIIoBdkbIhoGoegALAETuD7AjfnOcMQAJgCuHgw+Fh2geNxidAeoBfQOAkQFF3C/DfW35X04mMiDkCrzLf/g24R5QBwCRAW7Eb7QGCfEAHgCUxQDC7jABuSA8AGbMgIX3BQ0AAEYG1IK+2RVsh37dJxxuBwI5wHtAAwBoBtj7hL0ZIYMHCQzAA+DD59Yx8Z1WEB51fwAJADNmwJI9gACAxvOEvXvBQpMs+wMg2+OQAHpGq+xQQk1YPcDUhH0AQDOg2wCME4zdF0QCAIEBUObFyAHcnDwInRnnLQngAWCKxjNmwGI9gAYACQwo20Dt7L8ZAwYKPCQwQPuCtk/tCwAAzQDbAxwe2G/H9QAqAFAMyI8MonUHJYd+OEMUzwA8AEzoN/2jcen+zp/SekB6TXhrY8W9XlxpbwklA0AAA5rL/2rhX+IBCgah5Xz0PGTweQcC6wFhAKAZAIHeLgh7xuN5QAQAUAzIF/60dNDgDCABAHYPqAdsHl3dPMZ/JQLA3hNgj/kBIIABzmLfIKH5mlgTXrgHtAIAzQDh5wVRAZA3fa5jGEAzgDFqwiQA2FuIZ8yApdUDYgzAWMXx7DTQuIunHuAs9p23dnE4IRcUEgXe5T98mygP6AIAmgHGAzwLf6s1aKzeUCoAPnwui/7m6qwJGwOgkWBAD8ADAGoA6gHZ8h+u6XtAPABkewAkhbQeAP0/oUGoLwgBACIDICPkDKBTaPh6QBwAsB4g8fkB1Z4APAAg7qsHVNHfYEAqA9xiwIa/GJAEABkMgFgPeX87F1R9qh6AaBLNIFE+PwAHACIDmh4AMCg+GrYeQAHAAVj724NOD4i5YRAPwAPAifvAgxnnghbSF5QKABkM8Ef85kaBBAYssB6ABgCRARDxnSMiYH5IDyACoMYArAdEFIQH2R+AB4Ad8aEjCPJCnR0+cTdoX1BiWdgjAQ0PYACADAa0Lf+1HoBc+9u3tbWBfuOx7KBQ58oeHkA7NxQivhnU5GAoD6ADoMYAUAHMMr8oBpjVvYD9AXgA2AYAcd+mQlyI7/yp0Rkwew/gAYAMBhTp/rIanL21Q7/uE7bje2Bs1wMoBmBgQGeAHfRdHgzCgCgA1BhA8ABh+wPwALBjPYxtKsw4FzTvviA2AEhgQBnuHRJAz6jWA0J1YO88HQAJuSAnHTRYPSAWADUGkDwgB4aIZ8qTAGCHe68EzJgBM/YATgBIYIBv+W9UADBQ4EHrAQEJ2D65z3hAFADQDLD3CZtw7xhAkRfq2QMSAFBjAN4DaF2hfe4PIAEAFv4w8CKhM6sTd8PouaC5egAzAAQwoLn8rxb+JR6gYBBq84+eh45+3sEo+wNiAYBmgBPx7XRQbdwnA9IAUGMA3gOE7A+IAIAd9IEEziAuxHf+1OgMmKUH8ANAAAOcxb5BQvM1w4B6QNgDEgCAZoDtAQ4P7Lf99QVdPflVTBzc+eWFD587ELhqW8MMBjpqwjL2B2D+w+9tXsoPkiueIWPHehsG9njGuaD5eUAvAJDBgODCP4/7lSgkMCDED97lP3zbwB6QBgA0AyDQ11b91ibhYr4fD+AAQKQHdEDC2ybU2B9w9Ztf2n3nws7b5Gv37QsUAKw3Q7890xx3rujjblAPSO8NtU8KQgLg899e/uzdN7muG6f+9MaJtmMkuM6KaK76q7ifp4OKtwkMmPH+gGQAoBkw1nlBHz53gAkANQbg6wHkgnBjf8DmmacwcTz6ntIAzP7hmgfYq/7mWD1A8plxsEUACYDovz/eH7z16sHOQ4S4GOB6QKhTKIEBc/UADgCgGWA8oF0C+jgviA8ANQbg6wEFA2Bp7134O5Nw86H1YQFQ84Dmqr85E7fM7/wp9QAuDxgHAK90A4D9OWLO2r+oE5Q80HpAsxOUCQBEBkBGyBkYNvAygNUATIWAXg/IF/WmupCd6e/E+tDbkgGDA6BiQHPV35xRDxDuAZIBwMiAwgPKcF+DQTmZyID5eQAfAIgMaHoAwIC9HsBqAC4DSB5ATgflDNg8/RWvZXNN1lNAcJBcLRfUXPg7M50r+rgb1APSPUA4ABgZUAv6zWOCdJ9wox2IFQBEBkDEdzaIwTxLX1APBuAyAF8PiNsfMBIA1ANWQx1BZt49NFTqM2TkA4CNAeVK3yEB9IxW1QKtB+Qw4AYAkQGQ84Gg78CAhQE9GIDLALwHROwPGA8AFQOc9X7obdwyv/On1ANSPODmuf/KJYv477mFqwHYhWLemnDGAJsHL+0HDBR4SGDAbPqCegBAFAPsjJANg/R6QG8G4DIA6wH0/QGjAqBiQDP735zReoDAesBUAMDlAc3lf7Xw133C9SxQPwAgMsCN+Nz7A3ozAJcBeA/A1oHz+vDYAKgYEFr4O/OdK/q4G9QD4jxgQgDgYoCz2DdIaL4m1oRn4AF7fv3XjTOfnSOgo9/izg219wl7M0IGD9G5oJ4NwGUA1gPyyG7SQZ0wEACAigHNVX9zRj1AlAdMCwCMDAgu/HWfcOkBGQBGZ0C3ARgniN0n3LMBuAwgeUBRFjYdn4F+UBkAqBjgrPdDb+OW+Z0/pR5A9YBRAHDzHGofgF0DsMdc9YDmqt9JEBVvl1oPKAAwOgNsD3B4YL+N84BBAFDbI0bwAMTzA4YAwCHo/mwfFL2hzVV/c0Y9QIgHjAYAmecF2ZVhuySQwIDp7g+oADA6AyDQ2wVhz5juAUMBoMYAkgfkwAg+P2AgABAZEFr4O/OdK/q4G9QD8B4wJgBkMMD2ADsvlM2XPFhmPaAGgNEZ0NN5QXgAfPCsyeekvMbsEw7uD8j94KMjBzZPfyV4nXlqM3yh+vbu3723eUkv2m/g+qV7E7k+/+1lzF+DO+//7Oa5gyzXrVcO/uZbf7j14kpxHW87Fc7O/DTHXLmgIu6X4b6WCConExkwRQ9wATA6A4wHeBb+VmsQtTeUBABeBuA9ILg/IC8P+MvF5VkR2fESgevh/bsPHz7A/PvXexb+G/j9O39nzhCtAjdE8IjB8TL6m58VwIBa0Nd9wmYjmCkCO6/us+CjG4GcH8T1BUEuyDuATiF8PYAKAF4GYOsB3v0B5uAgE9y9JeJA3C948Pz6559cW3hc0/985G/gk59+qwDARj12R0R/74+MzoBype+QAHpGq+zQYuoBHgOQ0xfU9ABAQvERrh4QAQBeBuA9wNMSmsaAzy6/owaAjIALv237x3+VZWA2Vjg9wCHB6Awoq7529t+MAQMFHhIYMKH9AUEACMkFQcR3joiAeYwHxAGAlwFYDyiX+VVVAABQfuSHhFcFnl//5KffWnhc0/981G/g/t0bp/60MoCNjAQ8uSBhDGgu/6uFf4kHKBiE0vrR8/DkL95B9HPE2gAghAGQ84Gg78CgkwHRAOBlANUDDANcEoQw4AXAofWr3/ySGgAqAi77prv/63/CA2QMBubtAQYD7a+JNeFJeEAHAEQxwM4I2TDorAmnAICXATQPKKsCkND3rP1tHjQYcCXv7Pz0nZ8sO7jpf333b+DjH35968Uy+WOW//DqLOFZ3orJBfmX/2W1IJEBIVHgXf7Dt0V4QDcAhDDAjfhWU1BnPSARALwMSPUAO+I3xw0GXDYSoL1A3TFwuXfcef9nsKsAagBL9gCgwuzrASgAjM4Ae5+wNyNk8BDKBaUDgJcBkR7QDPfemSYDnl//7Y+f1UTQcgN863/5559cM9l/mwGQDqoGLAt/50sEekC59ndLBQk1YckegAXA6AzoNoDweUEsAOBlANUDOpI/Dgl8DNBqcGsYXOiHD25/fPO7X948tgrR3wwW6wGw9i+agkoeJOaCxNYDCAAYnQG2Bzg8sN82PYALALwMIHmAfyOYE/fttw0GfPjcgcwDslyQ/p/+BrLfwN2P3nXW/jYGqrU/FANm2hdUBf0y3NeW/+VkIgNkegANAKMzAAK9XRD2jOv7AxgBwMsAkgcU7UAmstuxPjRuMODy81lT0M7bFzQdtHACPLj98Sc//dZvvvWHdsRvjhfoAQCDjAF26J/p84TJABidARHnBfECgJcBBA9AnBvqZoqaDDi0fiUvC3/y0299dvmd7JQYdYJl0ODB7Y/vb1367N03t3/8V52hH2CwIA8ow31t+Z/vDHBnZlQPiAHA6AwwHuBZ+FutQXZvKDsAeBlA8oAcGMFzQ10APB88I6i689D65pmnMDFw9+0LWV+puQ63nxptPi3OjnbOBzVv721ewvyhcWeF2j8F54be+sejmD/x1ltH4UeCg6Nr14qrenD89ltHMN+//dYRxmfKY/7Ee9cvQUCPGCzKA4wB2Mt/M57rPuFIAAhhAGSEnAF0Cpl6ABIA27+48MGzB/DXh8+lHBpaOzsa7wHVvrBQ5qc57/MA+/A4JAB2bAAQz45uPi1gMABcfWHNxHFOABwBAKyZaH7t6CoeAJvHCmxkDwxwrmOrm5QLD4BmpRcPg+V4gLvYd/YG229n4QHxABDCgKYHAAyKj5450BMAxvIAUxCmkaCVAXgAXAYDSPaAIQFgGMAMgAYD8AAoDCDHgAuAo30BAB/uvXcuygMMBtpfE2vCQvqCkgAghAEQ8Z0jImC+PwDwMgDrAeUOYUOCKpnTXPvbM2EGkACQwgDbAwYGwNUX1rAA+EdECuhIYRVlIijzADwAwADSc0FIA0hZ/gMPluMBUAr2D8pqQSIDJPQFpQJACAMg5wNBH2Dwfp8GYPJFjLkgaj0AG/0NCQIMoAIghQFQD5gJACwPwAOgZgBpHoAHABcD7B3CyzwvCKhQ5IsSckGjewADAEQxwM4IAQN6NQB2BmA9II/pNAkI1IQjAJDCAOMB8wFAyYBbb6GKzNtvHXEMIMUDSADgYoBHBZwtvixvdZ/wy/vhnB+ugXNeEA8AhDDAXv7b4wEAwJsLInlAUQwwq3s75xMaNzwgDgApDLhyeG1WAMgZgAeAxwBiPYAKAC4GLNMDYO0/m33CbACQwAB7+W+PhwEALwMIHpC8PyAaACkMmBsAjqzhAeA1gDgPiAAAFwMW5wFl6r/WKVROTrQewAkACQywF/4wHgwAvAwgeUAOjMj9ASkAiGYAEgBXDq/ZTf0p416KwFANpgAgaAB0D4gDABcDluYBYAAZA+zQP9l9wswAkMAAe+1vxkMCgJcBeA+gdYXWa8KJAIhjAB4AXAyQBgCDAe8rvjc0GgBcDFiKB5Thvrb8n/4+YX4ASGAArP3NYGAA8DIA7wGmIEwjQV4P2Dz9FUwc2Xn7gr19zBlXm4Rxe8RIAGBhgEwAmHSQ59XZIBbYH4D5f9y965dCm8ugxTN6sKj9AcYA7OW/GU93n/CeS08/Zp4Cz/v6/jce6+V65rH3s+tA52V7wPAA4GUA1gNi9wewAIDqAXgAmK6hdAbIBIDXAIocEYIBiQBQD7hxYqXzqmV+7M3ALeOE3tAh9wdkAJgrAwASowCAlwF4D6DtDMhzQVwAIDEADwDYOpDIAMkA8BgArh6QDgAuBiytHmByQaHXxJrwYPsDCgDMlQGj1ADs04QY94hhPSCP6SYdhIQBIwDwDMADwN4/nMIAyQCI9gAWAHAxYCn1gJaF/4n9teKweA8oUkDz9oCxDIB9jxjJA4piAGJ/AC8AkAzAA8A2ADOO6wWSD4AID+ACABcD1APcfFECAwbwgMoAZsyAcQHAmwsieAB6fwA7ADAMwAPANoCUeoB8AER4ACMAuBiwXA8IdQolMKDvekBlAL/+66wYMMtcEAEAzxCOg7ZTPZ1jxlwQyQNyYHTsD+gDAJ0MwAOgaQBxHjAVAJA8gBcAXAxYpgfA2n9C+4RdA5glA2gAmAID8B6A6QrtCQDtDMADoGkAcR4wFQCQPIAdAFwMWJwHeJf/5WRiTbg/D3ANYJYegAeA/RyxzkV9xA2jeIApCLeQoD8AtDAAD4CQAVA9AA8AeIZM8Ilg1gZguAd5FET2xLGj1XPEQmOkB/QBAC4GLM0DwADsjQJm0jQLheI4Zr6neoDfAGbmASQATIgBWA/o2h/QKwBCDMADIGQAVA8gASCCARQAVM8RCwGgZd7eJ9wTALgYsBQPKFf6RaC32oTcGWH1AL8BzMwD8AAwbaMTYgC1HuBtDO0bAF4G4AHQbgB4D6ACgMoAIgBQDOj0gP4AwMWA5XhAtdi3efDSfsn7hNsMYDYegAcA7B2bEAOwHhDeHzAAAJoMwAOg3QDwHhABABID6ABAMSCkAsYDegUAFwMW4gHuYt/yAMgOFQMxHlABwKz6m68z6AvCA8A+QGJCDCB5QHN/wDAAcBiABwDGADAeEAcAPAOw3/9W/sjJo/BY+aR6QN8A4GLAcjzAYKD9NcNAAgMY6wEVAMx6P/TKe1KQ+bZeDgv6hjksqHZeEB4AYACTywURPKCxP2AwANgMoAIg3QOwAfofjzY3mkGlt2WA/X4DgPI5YvlThbsZEPKAAQDAxYCFeIC72Hc8oMwOJTIgxA/qg8NcADQNYAb1ADwAIO4bEhRC8MyBD6bQG0rygBwYxf6AIQEADEADYB1vAO0egA3QPgBgPAD7/QAAIgOa9YBrR1eHAQAXA9QDAA9FvmhsD3ABEDKASdcD8ABoGkBBgokwAO8Bdlfo1W9+aeeXFzqv3/74WecI6JS3O/98evftC53XlcPr+bUGwd0cB9Ty6j0v6Mrh9Y9/+HX/H/fOhV3r+viHX28agJlpWf5fO7L28Q+/fvudNzuvj3/49dr3UHJBtgcYHgT/uP/vzdvltfPPp0PHQZPmo4+Mhh/0SMDGyhbLA4SdL9HnCeOeJ+wHwMw8AA8AtwbwbHbu9Fw9oHN/gKdlqPE84WgGUJ8fwOUBoeCOnK/F7vpuAIwl+H+cwgDbA2o8QJwdTQr33pshlEcPFvX8ALsSAGt/UfuE/QCYmQfgAQAG4B1kiaAp5IKwHlDuD/AEevPIMPv10Hp2Gx8AIBdUkKBY6Zv1fug11QOQUb79Nn8Qr8OAfA+FARD3HRjY+wOK8bFVbxxPmYwO/fCDS/SAMvVfZH5MYaCcHLEesOfS04+Hwv1sPAAPANsAmuNZ9gWZXJCdEQryQBIDkELQHsqjPyXHdwweKAwwoR9IcC1/Xlj22rykMmBp9QAwgIwBdugf9XnCBgBBBoTYMK3eUDwAvAv/ogyQp4MmxACqB5iMUHf0N1rApwLRuaD0vqBoAMRne9pJQGFAFfTzR8cADCbEAI8KOKl8lrej1wPKcF9b/ucS4M4k1ITj+oIAAEEGzMADrrz8VUyzxPYvLtix3jYAAMNc6wHBuO/NAolhwMI9AIK+A4MJMWA5HmAMwF7+m/G4+4RtAAQZMHUPoAIAwn2TB/DR3OoBeUxvkwDI/zhIYFIB9YAqrYT2AKcGUOPBdHJBC/EAd7Hv7A+w3w7oAQ4AggyYtAfEAcAs9iHiN2EwFQaQ9gcUxQAT1u1YbyrA8AofMQEgpSasHuAaAO55wimlYPhZKO1GDxbbF2SQ0HxNrAmT9gk3ARBkwHQ9IA4AVQOo1Qzq8mBmfUF5fDdnVmcNPxDlIe47k+YGAQxYcj2gWRAGFZhQLmghHgClYP+grBYkMgBfD/ACIMiAiXpANACccO9Fwiw9wN4nXGHAmwUSw4CFe4CdDqqNp5MLWk49oLnqdxJExduEXBDSA0IACDJgih4QDYAPnrE2gpVdQB4qzM4DPF2hLdFfDAOW7AGw6m8O1APczcaj9wXZGX8zLtf+DglCa/mUefu8oBYAkAaHhQAAGsJJREFUBBkwOQ+IBoAn1lvpILtNaH4eYArCNRJMgQHqAVoPcMO9t5dUAANsD7AzQtl8yYPEXFCnB7QDIMiAaXlAIgBsD2giAWamwoCY/QFQE/bWAJxSAVNJQPuCIvqCmst/mFEPcMEggAFF3C/DfW35X04mMiDkCsYDOgEQZMCEPCARABDi/TUA2wkmkgsi9QUV9QA4N2IKDEjxgN/++NnsbLjmQXXWgXG771y4/u0vfnTkgHcrWRW427d9kT5F94b6DUD7gmR7ABiAu/zveZ8wBgBBBkzFA1gAYDzAhoF3PDcPKPP7tVyQveT3jpkkIKU3NLoesPvOBcy2wetnnwoBQMg+YVj72wP1AHEeUK70a8v/vDDgziTUhEMesOe9v3w8Pw6o8/Uxb7ifhAewAADCfS31by//yyrxVBgQ5wFVU5A39MOkAAbEecDu2ygAbP3tU97lP0yqB0TvDDA/uKj9AcYA7OW/Gfe9TzgDQCIDvGAwk0KeI8YLACBBcwB7x6bCAGw9wIR1kwWCEN85EMCACA/gAoB6QCIATFfoQvYHuIv9ZpsQzLB6QAGARAYI9wAKAGrPkmyGeJhpeoD70UzrAVgDKJnBdYJ0dE2Y6gGMAJDAgNqeAFMJ0HqA7HqAgUHoNbEm7PQFVQBIZIBkDyACAMsAiPhOcRjmZ+kBpj2UgIGpeQAvACQwwK4B2GOtB4irB8Ay3zsoqwWJDLDrATUAJDJArAcQAOB7pjwE9OYAcj72RzU5mKMHFAVhE9k7E0HmGAkmDAzgAUgAXD/bUQOAYoAEBqgHuLHeKwEvrmwJ6A1tW/vnYCjyRQm5IPAAFwCJDJDpATQARDHADvo2DDI5mAgDCPWAvBgw176gPgAggQH22t8eqwe4bBDAAOgKLQbl2r8I/eAHCQwwHuABQCIDBHoAGQBEBrgRv9EaNBUGxPQFYQxgUvWAngAggQHqAW6sn4gH2DzIGFDyID0X5AdAIgOkeUAMANAMsPcJezNCBg9TYQDeA2gGIIMBmKag/gAggQH22t8eqwe4bJDjAWW4ry3/y8loBpgsUBAAiQwQ5QGRAEAzoNsAjBNMJBeE9wBTEKaRgKkYkLJHrL0vqFcASGCAeoAb68V7ABiAu/xP3ifcBoBEBsjxgHgAoBlge4DDA/vt3DygPB/CkADbGjQ2A9o9oG8ASGCAvfa3x+oBLhtG94BypV9b/tul4LR6QAcAEhkgxAOSAIBmAAR6uyDsGc/OA7Bx364WjM2AFgkYAAASGKAe4MZ6wR5gDMBe/ptx+j7hbgAkMkCCB6QCAM2AJZ8XRJMAAb2hIQ8YBgASGGCv/e2xeoDLhrE9oLn8h6SQOyD2BaEAkMiA0T2AAQBoBhgP8Cz8rdagCfWG4usBcGhosfXXXu+HxiI9YDAASGCAeoAb6wV7gMFA+2vGAwoDsABIZMC4HsADACIDICPkDKBTaG71gJbnCYcAINIDhgSABAbYa397rB7gsmFsD3AX+5D9N4OyWkBiAAEAiQwY0QPYAEBkQNMDAAbFRzOtB9DSQcI8YGAASGCAeoAb6yfoAYCHIl+E8wAaABIZMJYHcAKAyACI+Ms5L4jWFWrkYGwG2PWA4QEggQH22t8eqwe4bBDoAeXa3y0VIBhABkAiA0bxAGYAEBkAOZ8QDKaSC8LXA4wB0EgwNgOgL2gUAEhggHqAG+sn4gGw9i+agkoeYHJBMQBIZMDwHsAPgCgG2BkhGwYTqglj9wlPeX/AWACQwAB77W+P1QNcNsjxgDLc15b/5WQnAyIBkMiAgT2gFwAQGeBGfKspaN71ANouAQEeMCIAJDBAPcCN9eI9AAwgY4Ad+hH7hOMBkMiAIT3gyktfxTzldfsXF97/xmO065nH3s+uA+2XvU/YmxEyPz6VXBDWA/L8Pq0gLKAvaFwASGCAvfa3x+oBLhtG94Ay3NeW/5R9wkkASGTAYB7QIwBiPcBOB9XGc+wLKooBZnXf0hIKH43qAXgAXDm8Zh/6zzjW5wknPk5Snyec7QYoDaDAg68mnAqARAYM4wH9AgDNANsDWoxhhh4wqecHkAAwYwbYa397rB4gzQOay39ICrmDBgMYAJDIgAE8oHcAoBkAcb+26l9MPYCWDhrJA6gAmDEDtB7gxnrx9QADg9BrsybMA4BEBvTtAUMAAM2AxZ4XROsKHW9/AAkAZgPBjBlgr/3tsXqAy4bR6wHOxmDnbVktcBjABoBEBvTqAQMBAM2AouTbXPhbMxPqDZ3Z/gASAGD3wIwZoB7gxvoJegDkgpx6ACcAEhnQnwcMBwAiAyAj5AygU2hu9YAp7A8gAcDeQjxjBthrf3usHuCyQaAHlGt/t1SQ1wOYAZDIgJ48YFAAEBnQLAYADIqP5tgXRNscMGxvKAkAtgGYMWMvkP1V2hekfUE3Tqy0XLDGd5t/rFxQxoCSByYXxA+ARAb04QFDA4DIAIj4yzkvqDg7Gvo+MYOhasIkANgGoPWASgiOrW5yX4kAuL6xurWx4rlC+ZyUeTkeUIb72vK/nLx5Yv+e9/7i8ff+kv+69PTjiOsxb7hn94ARAEBkAOR8QjCYSi4IXw8Q+/wAEgCaBqAeUGCAGwCbx1ZZGGBIYL+6aZyU0A8/K4ABtaBv9gRYod8YQw4AeQzwgsFM/vqvH6NeSAB8+s5PaNuAO7cN4/YJm6DfkgsqbphILoiwT1jk/oDb776F2Td+/exTJunvfdV6QIYBqQxYigeU4b5GgvpkCQB5DGD0gKvf/BLmn/TD+3c/fecn27/4h/y6sP2Lka+dX2b/A8xr3P+YnV9mPz636+0LO0zX7tsXnCuL/vfvYv62XP/2F68cXg8ZgHqAekAmFgI8wKz03ex/WRiwACCPAVwecOnpxx8+fID5V6336G8A9xt48NGRA961v10VUA9QDxidAbXlfx73zYx5rQNAHgO4PODzT67h/mHrXfob6P4NfP7by53Lf5ADu5mHcax9QYklgUWdF1QF/fyMIGgZagBAHgPSPeDS04/v/PxH3f+s9Q79DeB+Azs//xEkedQD7J0BZlzkf46uVgOtB8Smg24cX/FfrV2hpmEUAr09qGBQdAH9xeNZL5B9za4v6OrpP8f909a79DfQ/RvYOvdnsMBHDhjX/vZXqQeoB7RsDjCxHqK/87ZsA7VDP4yFMSDFA0xD6t2P3u3+l6136G+g6zdwb/NSnv+pKsB23j801nqA1gNGrwdkJAh2AUHoh4EwBiTWA1QCuiKbfo76DeTL/3WHAeoB1/K+T/fVzgKZsdRckL0zoNg1Bk39jIPYRNBWKBF0vG17MMgBSIAz2HMRwr13IIwBiR7w6Ts/Qf0T15v0NxD4Dey+c6EM/S4DQmt/e149QD1gdA+o1QAu/sXj02JAigf829/88WeX3wn809Zp/Q10/AbufvRu3v0JoR8Ga0gDMLfZSXzGsdYDtB4AS37vwFn+ZzUAA4BpMSDOAy49/fi//c0fKwM6gpx+7P8NPLj70btXv/mlxvLfZYC93g+N1QPUA4R4QJ4C+stMAqbFgDgPAAZs/+If/P/MdVZ/A77fwO47F8zOrzAAqpow0gYY1/72V6kHqAd4l/8waXtAZQCTY0C0B5imoKun/1zTQb5Yp3O138C9zUtZ1fcQrPTbB0UuKLT2t+fVA9QDRveAAgDv5RJQvHqrwWZSWE04zgPMWXKXnn7813/92NXTf77z8x/l+4T1rIha4Fv2mweff3Jt5+c/2jr3Z5cPrWfR31zZ4T+dl9YDVt1eoGPWjPYFOT1Fo/YFuQawEA+A80RzG3iscIJvfunKS1/tuF7+6pUerqsnvzqV69qpr/Bfp79yjXJtnv4K4Trz1CblMon+y9bjByoAqAccXbtWXFlMj7uyhb9zSe0Nnf25oTUALNADgAS5TGRO0HkxHxkNZ0pTzo62HxvgHac8P+DD5w588OyB0Kv56MPnshtir3V4bAAMyM8I6+0ZMlcOr9nR34yjGaD1AL8NOAAQfHb0vPcH1AAAHUFL84BQ0H//mYIHMDB3jsuAD5454Dw7zPssgRQGfPBsxoCWKzb0AzMqBhCeH/D8+ofPHaChwlrIN8M6aSaaAXbePzTWeoDWA0apB3gAsHAPcGJ9kA2wcucdMHnAjJ8nnDEAwnpvHlD9EfBnQSVA6wFHIBG0hskCbdo1AHusHjB2PcADAPWAYpnfWP6//41agkiyB0BeaIYeIPI5YuHisPYFtZUK3GKA4FzQLOsBQQAs3AP+7W/+2LQJhQxAQi4IonxzUEsKTeRZktR6AC0dZC3kvat7/GR0LkjrAVoPQD1/eMC+oCAAluwBEPohHdQcABhkeoCDhPl5QJEIwqSA4B4BDAjVAOx5rQdoPWCwekAHAJbjARD0IbJ3DiAjNC4DnFhv3tYM4Nm8aDw7DzAGQCOBAAaoB6gHyPGADgAswQMg9MPAhP5LTz/+/jPZFoF/+5s/NjOVB9SLAb/+68fGZUCzL8hPhYkwANsXlBcDLptXWOZ3DgQwwF7vh8bqAeoBA3gACgCz9wAn9Heu/b03jMsAJ+J7DGCmHkDrCjV4EMAA9QD1AAkegALAXD3AxH2I/s5bJ8obG6gkoOwRsm8blwG2Bzg8sN/Orx6QG4PuD1izj4TrHI9+Zlyof1T7glww9FkTJgBgxh7gMMCO6cixtHpA0ADm6wFFMcCs7jsTQc+v49t+Ou/UvqAKJ5SzInR/gBvrnW0B8LY3BhAAMEcPeLwZ+r0e4K8E5BIAoR9QIcED7CW/dzxDD9D9AS/QJODqC2tV4D7CN6YwQD1gXAaQATAzD7CPAHJgAG8hsuMH4zLARPx2CcgOk5hITVj3B5iCQWdWJ+6G0RmgHjAiA/Zc/O/F02CcBT7y7XvTOTu6+fwAiP4Q62FgYr3z1tzvFAOyFiB59QDvqh8mDRsmxABsX5A5LOjQOq0yLKAmHOoFsue1L0j7gtj7gnIA0BkwAw8wPAAGNAfQBtqy8A+FfvMjMj3AwcD8PED3B0SogHrAMp8jVgKAzgBbEaboAXnEz9r8Tei3wz0s/OHTJgNgc4D9kbR6AMR6GNh5oWpyIrkgrAfo/gB6MUDrAYkAMKdGT+68IAsAdAZM2gMcAzDPhIFoDgwwMy1vQQJgAF9iBnI8ACK+GdgwmJ8H0LJAuj8gZ4Z6QCIGtjZWpvX8gDoA6AyYrgeUBpAd8Anx3caAs/yHe5z4jnkrhwF20Hd5MDMPyGO6SQcRYKD1AMZ2IPgq7QuChk7GAUdvaAMAdAZM1AOaNWEI8S0DJ9ybQ0O9a38nHSSBAW7EN3sC7NeJMIDUF6T7A6glAfWA5XiADwB0BkzRA4wBNF6LkoDRAtPwY4K+IwS2NwAVDAmc0F99yvvoGPg23DNk7H3C0AXkIGGWfUHmsKACA5gNYjL2iNn9P6Gx9gVpX1BiX9Cei//9j7JO0Ob1F7T20Hl4AIR1O9yDEMCnENNhMMXnB9jpoNp4jh5APi5CQC5IzwvS84JQWwQSckEGADwMmJwH5AHd1ACK12bcb+kOgugPA8gFwQA+gsG4uSDbA5rLf5iZSk0Y2xek+wO0L+jY6ibxSkwETaIvCADAw4AZe4CJ4GADMIDI3jJwkkLjMqCK8nb2vzmenQfo/gBqMUBCb6juE0ZJwIsrcbkgGwA8DJilB9jJHwj9MIDQ3zwyyAn9cOe4DDAeACQIDebmAbo/QD2AKAGbx1bn7QEOAHgYMEsPQDIAQnznYFwGmKBfS/03JGBCNWFSXxChK1T3B+j+ACYGyNwf0AQADwPm5wGw3rerAjYVIOLbHhA6KcjcLIEBweV/zoMJMQBfDyAXhLUvSM8N3UhVAc8m4Y0VbHqHtHuAUhP2AoCHATPzAIj1hgTAA5gHALQPnKSQBAY0PQCoUHw0u3pAwQBo9cG0h8LNyQN9fkC11YCyR0zrAVhgoBkQAgAPA+bnASa4Q/RvDuzoD+cFSd4fALEeBjYPqsmJMIDgAfr8AHpJoArcsMs3fUBhgD4/gJcBLQDgYcAMPADW+M7avz36w6c2EkJjOR4AEd8MbBhMpSZMrQfQjotIXv7D88XUAyqcUBigHsDIgHYA8DBgch5w6enuzQFeFfAGffAA+fWAWrgvawA2EqbCALwH0HYIi6kJh/YG2/O6T1j3CXf2hnYCgIcBS/AAEAVnmW+oYJ8qYW5wigEZHuB0B94B7qwIO9DDuImEqTAA7wG6P0D3B4yyR0xCXxAGADwMmLoHQHw3AR1eIbLD8h8GQALnIWKT2CdsQj+QwB5MhQFYD9D9AfRigIQ9YloPSM8FIQHAw4C5egBE/OYAMkXN9T7gwRmI8gCPAZjtAhOpCeM9gLw5QEZvqJ4XpOcFoTAQ6AvCA4CHAbP0AJAD76BiwDPZgwdg+d/SGjQuAxZ7XlDRG4ppCYV7BNSE7bx/aKz1AK0HeOsBJADwMGCuHmCiP2SEbBg4a3zM23EZAAmfoAHM1wOKsrCJ7BDoWwYCGKAeoB4Q5wFUAPAwYOoeYFI99iuEe+9kM+JDaxAIQfOecRmw0POC8sTOh88doHUHCWBAaO1vz6sHqAc4HhABAB4GzMwDIPsPJLAHzeCOnBmXAcYD2iVgQmdFUOsBpjsIWxsQwAD1APUAqgfEAYCHAfPzAMCAM4C3obgvth4AuSDvADqF5tYXpM8P0L6gZZwbGg0AHgbMzAPsVb8d9O0xMACyQDATGsj0AEBCoQiz6wvS/QG6P2D2+wNSAMDDgBl7QJMHNglgbJMgVBKQwACI+FnaxxSB67uF5+YBuj9APWDuHpAIAB4GzNUDIMTDILTGD83buwckMAByPiEYTIUB1HoAthJgmoW0HpB+QlzzG/S8INKh0Lib97z7f/1R/lz4lFeGZ8pP3QNgsW9ivR3xYdz8yPyUd5+wHfoBD3IY4DUAQ4WpMAC7TziP6bSCsIw9Ynb/T2isfUEL7wvKACCEAXP1AGCDPYCYTh1IYIC9/HfSQXOtBxR7xGBp37ItAD6Cm5MHem6onhu6tbFSPGUet7RHtQO9uFIAQAgDZukBtgHANjGYdAAgvx5g7xP2ZoRm6wH6/AB6SaAK3M2UTvQMJRek5wW1k6ACgBAGzM8DYOHvpIBCDHCQAG/tpJAoD7DTQbXx7PqCTCWAlg5KXv7r8wM8FKEwQJ8f0MKAGgCEMGDqHmAH+ktPP+48Qxh4YA9MlIc7oRdI7P4A2wOcjJD9dn71gCz6H1qfXE04VAOw57UesMB6gAsAIQyYmQc4SIBwD6v7uIEQD6it+q320GJ+dh6g+wN0f8Bs9gd4ACCEAXPygJbFfvMjgMFU6gH2kt87npsH6P4AejFAnx9wfWM18draWPFcaTVhPwCEMGAGHlA+XfJxCPQsNiCtHtAuATM+L2hyuSA9L0jPC7JLAkEACGHA5DwgD/TYRwoDFewBJIimtT/Au/aHJtEJMUD3BxhIROR5MD/iqehGtwPBD1JqwtoXhAWAEAbM0gPsiA/tQDCALBB+IKEe0PQAoMJc6wG6PwAT9J17RmeA9gUBA9oMQM4esRl4AER8OwVkJmFzANzTjPvy6wEQ62Fg86CanEhNmOABuj+AXhIYnQHqAYYB3QBQDzCtnF2vj116uuOC+G4zwB5D8qcJgJYZmfUAiPhmYMNgKjVh6nlBuj/AWem3vx2dAeoBW/ZOYLPeD73qeUFdAHjcC4A86NslAbcaDFTwDgAJ06oH1MJ9/cTQggez8wDdH9Ae7r2fjs4A9QCUAcjJBc2gHgCB3ln7m7fwacuSv/MjCfWANgMwewUmwgC8B+j+AG+Ub58cnQEL9wACAITkgiZXDyg7QQsPsON+M+jDZuAWEsivB9j7hI0NODyYpwfo/gB6MUD3ByRuDihOiGtuEcDtD6ABQAgDZuYBDgact53rffsGafUAiPvNpFAxMzsPoO0M0OcH5MxQD0jEAJwVaniAPzeUDAAhDJiTB9iL/Wb0hxkT6EER9LygD57NHkzWfn343IG0a91OAZkxJsTTCsL6/IAX1kZnwDLrATEAEMKA2XiACfEQ6FsG9mIfORZSDwgawEzrAbo/oD317/10dAYssB4QCQAhDJiHB4ABtIR++MiJ+1OpB0AuKDSYSm+o7g/QfcLZoaFHV6nnwWHuT0wERdQD4gEghAEz8AAT3O1XQIJ34DAg9FZaPaBdAiZ0VoSdFOJPB+nzA+CAB8YB5ayIRXlAEgCEMGByHpCH9bbNAbDeh4y/ifIwD2+ntT8guPwv9wrMzwN0f4A329M+OXouaDn1gFQACGHADDwAFvu2CthjCPqhJX/nvIR6QNMDgApz7QvS/QHt4d776egMWIgHMABACAMm5wHO/gAvAGDSO3Aivvx6AMR6GNg8qCYn0huKrQfo/gDdH3CMXDMYph7AAwAhDJirBzjR3z48zmFA6K3MegBEfDOwYTCVXBC1HoCpGVT3aD2AsQwAX6X1AGuPGBsAhDBg6h5g53wg4+8M7Hsg4kO1QP7+AE+4L2sANhKmwgCsB+R7vnR/gDfh0zI5ei5o3vUATgAIYcDMPMCJ/ibiwyQAgDqQUA+wwz08Omb2HlCUhc3q3uwEbn9VD4DFO+NAPSD3AGYACGHA/DwAIr4zgLcOAOTXAxZ6XlC+6ddsTr58aL3K9ohnwNUX1q4cXmt/NTe0LOejP1IPSCwJeB4mvLFCOA46dEy0d17C2dEz8wBn4Q9xHwYOAFreSqsHgAfU1v5mh/B89wkXW4Xb4779qXoA4/IfvmrxHrDn3T//I28QT5yUwICZeQDE+pYBcGIq+wNsDwASNAfzqwfo/oAIG1APYPeAHADzZcCcPMDpBYJY7wxa1v6hj4TUA4IGMFMP0P0BU2TAzPYHlACYLwNm5gEOBuyWUDADJ9BPpR7QXPg7M3PzAN0foPsDxt4fYKWA5suAOXmAifLeVxsGDgNCb6XVA9olYMbnBWGrwaYqoPUASOIzDhZZD8i7gEzo7wcA2heEeJgww/OEwQwcD5jc/gBn1Q9vDRsmxADdH6Dnhso/N7Q0gAUwYK4eAKHfHoSW/J3zEuoBTQ9wMDCVXBBpn7DuD6CWBEavCc+gHuADQD8qoH1BCBV47NLT7pWH9eDzhGG97wzgrRPx5dcDINbDwOZBNTmz84J0f4DWA8aoB/z/aIqJItiLplsAAAAASUVORK5CYII=;strokeColor=#000099;fontSize=15;fontColor=#4C0099;fillColor=default;" vertex="1" parent="90">
                    <mxGeometry x="30.996950354609908" y="227.99693641618495" width="64" height="64" as="geometry"/>
                </mxCell>
                <mxCell id="121" value="" style="group" vertex="1" connectable="0" parent="90">
                    <mxGeometry x="154" y="61" width="351" height="369" as="geometry"/>
                </mxCell>
                <mxCell id="99" value="" style="rounded=1;whiteSpace=wrap;html=1;labelBackgroundColor=#18141D;strokeColor=#6c8ebf;fontSize=20;fillColor=#dae8fc;" vertex="1" parent="121">
                    <mxGeometry width="351" height="369" as="geometry"/>
                </mxCell>
                <mxCell id="120" value="" style="group" vertex="1" connectable="0" parent="121">
                    <mxGeometry x="37.25" y="9" width="266.5" height="341" as="geometry"/>
                </mxCell>
                <mxCell id="97" value="" style="editableCssRules=.*;shape=image;verticalLabelPosition=bottom;labelBackgroundColor=#ffffff;verticalAlign=top;aspect=fixed;imageAspect=0;image=data:image/svg+xml,PHN2ZyB4bWxucz0iaHR0cDovL3d3dy53My5vcmcvMjAwMC9zdmciIHhtbG5zOnY9Imh0dHBzOi8vdmVjdGEuaW8vbmFubyIgd2lkdGg9IjcwMi44NDYzMTM0NzY1NjI1IiBoZWlnaHQ9IjY4MS45NjcxMDIwNTA3ODEyIiB2aWV3Qm94PSIxMC4wMDEwMjYxNTM1NjQ0NTMgMTAuMDAwOTMzNjQ3MTU1NzYyIDcwMi44NDYzMTM0NzY1NjI1IDY4MS45NjcxMDIwNTA3ODEyIj4mI3hhOwk8c3R5bGUgdHlwZT0idGV4dC9jc3MiPiYjeGE7CS5zdDB7ZmlsbDojMzI2Y2U1O30mI3hhOwkuc3Qxe2ZpbGw6I2ZmZjt9JiN4YTsJPC9zdHlsZT4mI3hhOwk8cGF0aCBjbGFzcz0ic3QwIiBkPSJNMzU4Ljk4NyAxMC4wNmMtNi4yMTMuMzEzLTEyLjMwMSAxLjg1NC0xNy45MDYgNC41MzFMOTYuNzM3IDEzMS4zNDJjLTEyLjgxMSA2LjExOC0yMi4xMTYgMTcuNjg5LTI1LjI4MSAzMS40MzhsLTYwLjI4MSAyNjIuMjVjLTIuODEyIDEyLjIwNy0uNTI0IDI1LjAyNCA2LjM0NCAzNS41MzFhNDYuMzUgNDYuMzUgMCAwIDAgMi42NTYgMy42ODhsMTY5LjEyNSAyMTAuMjgxYzguODY4IDExLjAyMiAyMi4zMTMgMTcuNDQgMzYuNTMxIDE3LjQzOGwyNzEuMjE5LS4wNjJjMTQuMjEyLjAxIDI3LjY1Ny02LjM5NiAzNi41MzEtMTcuNDA2bDE2OS4wNjMtMjEwLjMxM2M4Ljg3My0xMS4wMjggMTIuMTk3LTI1LjQ2NCA5LjAzMS0zOS4yMTlsLTYwLjM3NS0yNjIuMjVjLTMuMTY1LTEzLjc0OC0xMi40Ny0yNS4zMTktMjUuMjgxLTMxLjQzN0wzODEuNjQzIDE0LjU5MmMtNy4wNS0zLjM2OC0xNC44NDEtNC45MjYtMjIuNjU2LTQuNTMxeiIvPiYjeGE7CTxwYXRoIGNsYXNzPSJzdDEgc3QyIiBkPSJNMzYxLjQwOCA5OS4zMDhjLTguMDc3LjAwMS0xNC42MjYgNy4yNzYtMTQuNjI1IDE2LjI1IDAgLjEzOC4wMjguMjY5LjAzMS40MDYtLjAxMiAxLjIxOS0uMDcxIDIuNjg4LS4wMzEgMy43NS4xOTMgNS4xNzYgMS4zMjEgOS4xMzcgMiAxMy45MDYgMS4yMyAxMC4yMDcgMi4yNjEgMTguNjY3IDEuNjI1IDI2LjUzMS0uNjE5IDIuOTY1LTIuODAzIDUuNjc3LTQuNzUgNy41NjNsLS4zNDQgNi4xODhjLTguNzc3LjcyNy0xNy42MTIgMi4wNTktMjYuNDM3IDQuMDYzLTM3Ljk3NSA4LjYyMi03MC42NyAyOC4xODMtOTUuNTYyIDU0LjU5NC0xLjYxNS0xLjEwMi00LjQ0MS0zLjEyOS01LjI4MS0zLjc1LTIuNjExLjM1My01LjI1IDEuMTU4LTguNjg3LS44NDQtNi41NDUtNC40MDYtMTIuNTA2LTEwLjQ4Ny0xOS43MTktMTcuODEyLTMuMzA1LTMuNTA0LTUuNjk4LTYuODQxLTkuNjI1LTEwLjIxOS0uODkyLS43NjctMi4yNTMtMS44MDUtMy4yNS0yLjU5NC0zLjA3LTIuNDQ4LTYuNjkxLTMuNzI0LTEwLjE4Ny0zLjg0NC00LjQ5Ni0uMTU0LTguODI0IDEuNjA0LTExLjY1NiA1LjE1Ni01LjAzNSA2LjMxNS0zLjQyMyAxNS45NjggMy41OTQgMjEuNTYzLjA3MS4wNTcuMTQ3LjEwMS4yMTkuMTU2Ljk2NC43ODIgMi4xNDUgMS43ODMgMy4wMzEgMi40MzggNC4xNjcgMy4wNzcgNy45NzMgNC42NTEgMTIuMTI1IDcuMDk0IDguNzQ3IDUuNDAyIDE1Ljk5OCA5Ljg4MSAyMS43NSAxNS4yODEgMi4yNDYgMi4zOTQgMi42MzkgNi42MTMgMi45MzggOC40MzhsNC42ODggNC4xODhjLTI1LjA5MyAzNy43NjQtMzYuNzA3IDg0LjQwOS0yOS44NDQgMTMxLjkzOGwtNi4xMjUgMS43ODFjLTEuNjE0IDIuMDg1LTMuODk1IDUuMzY1LTYuMjgxIDYuMzQ0LTcuNTI1IDIuMzctMTUuOTk0IDMuMjQxLTI2LjIxOSA0LjMxMy00LjguMzk5LTguOTQyLjE2MS0xNC4wMzEgMS4xMjUtMS4xMi4yMTItMi42ODEuNjE5LTMuOTA2LjkwNi0uMDQzLjAwOS0uMDgyLjAyMi0uMTI1LjAzMS0uMDY3LjAxNS0uMTU1LjA0OC0uMjE5LjA2My04LjYyIDIuMDgzLTE0LjE1OCAxMC4wMDYtMTIuMzc1IDE3LjgxM3MxMC4yMDMgMTIuNTU3IDE4Ljg3NSAxMC42ODhjLjA2My0uMDE0LjE1NC0uMDE3LjIxOS0uMDMxLjA5OC0uMDIyLjE4NC0uMDcuMjgxLS4wOTQgMS4yMDktLjI2NSAyLjcyNC0uNTYxIDMuNzgxLS44NDQgNS4wMDMtMS4zNCA4LjYyNy0zLjMwOCAxMy4xMjUtNS4wMzEgOS42NzctMy40NzEgMTcuNjkyLTYuMzcgMjUuNS03LjUgMy4yNjEtLjI1NSA2LjY5NyAyLjAxMiA4LjQwNiAyLjk2OWw2LjM3NS0xLjA5NGMxNC42NyA0NS40ODMgNDUuNDE0IDgyLjI0NSA4NC4zNDQgMTA1LjMxMmwtMi42NTYgNi4zNzVjLjk1NyAyLjQ3NSAyLjAxMyA1LjgyNSAxLjMgOC4yNjktMi44MzkgNy4zNjEtNy43MDEgMTUuMTMxLTEzLjIzOCAyMy43OTMtMi42ODEgNC4wMDItNS40MjUgNy4xMDgtNy44NDQgMTEuNjg4LS41NzkgMS4wOTYtMS4zMTYgMi43NzktMS44NzUgMy45MzgtMy43NTkgOC4wNDItMS4wMDIgMTcuMzA1IDYuMjE5IDIwLjc4MSA3LjI2NiAzLjQ5OCAxNi4yODQtLjE5MSAyMC4xODctOC4yNS4wMDYtLjAxMS4wMjYtLjAyLjAzMS0uMDMxcy0uMDA0LS4wMjMgMC0uMDMxYy41NTYtMS4xNDMgMS4zNDQtMi42NDQgMS44MTMtMy43MTkgMi4wNzItNC43NDcgMi43NjItOC44MTUgNC4yMTktMTMuNDA2IDMuODctOS43MiA1Ljk5Ni0xOS45MTkgMTEuMzIzLTI2LjI3NCAxLjQ1OS0xLjc0IDMuODM3LTIuNDA5IDYuMzAyLTMuMDdsMy4zMTMtNmMzMy45MzggMTMuMDI3IDcxLjkyNyAxNi41MjIgMTA5Ljg3NSA3LjkwNmExODkuNzcgMTg5Ljc3IDAgMCAwIDI1LjA5NC03LjU2MmwzLjEyNSA1LjYyNWMyLjUwNi44MTUgNS4yNCAxLjIzNiA3LjQ2OSA0LjUzMSAzLjk4NSA2LjgwOSA2LjcxMSAxNC44NjQgMTAuMDMxIDI0LjU5NCAxLjQ1NyA0LjU5MSAyLjE3OCA4LjY1OSA0LjI1IDEzLjQwNi40NzIgMS4wODIgMS4yNTYgMi42MDUgMS44MTMgMy43NSAzLjg5NSA4LjA4NSAxMi45NDIgMTEuNzg3IDIwLjIxOSA4LjI4MSA3LjIxOS0zLjQ3OCA5Ljk4LTEyLjc0IDYuMjE5LTIwLjc4MWwtMS45MDYtMy45MzdjLTIuNDE5LTQuNTgtNS4xNjMtNy42NTQtNy44NDQtMTEuNjU2LTUuNTM3LTguNjYyLTEwLjEzLTE1Ljg1OC0xMi45NjktMjMuMjE5LTEuMTg3LTMuNzk3LjItNi4xNTggMS4xMjUtOC42MjUtLjU1NC0uNjM1LTEuNzM5LTQuMjItMi40MzctNS45MDYgNDAuNDU3LTIzLjg4OCA3MC4yOTktNjIuMDIxIDg0LjMxMy0xMDYuMDYyIDEuODkyLjI5NyA1LjE4Mi44NzkgNi4yNSAxLjA5NCAyLjItMS40NTEgNC4yMjItMy4zNDQgOC4xODgtMy4wMzEgNy44MDggMS4xMjkgMTUuODIzIDQuMDMgMjUuNSA3LjUgNC40OTggMS43MjMgOC4xMjIgMy43MjMgMTMuMTI1IDUuMDYzIDEuMDU3LjI4MyAyLjU3Mi41NDcgMy43ODEuODEzLjA5Ny4wMjQuMTgzLjA3MS4yODEuMDk0LjA2NS4wMTUuMTU2LjAxNy4yMTkuMDMxIDguNjcyIDEuODY3IDE3LjA5NC0yLjg3OSAxOC44NzUtMTAuNjg3cy0zLjc1NC0xNS43MzItMTIuMzc1LTE3LjgxMmMtMS4yNTQtLjI4NS0zLjAzMi0uNzY5LTQuMjUtMS01LjA4OS0uOTY0LTkuMjMxLS43MjYtMTQuMDMxLTEuMTI1LTEwLjIyNS0xLjA3MS0xOC42OTMtMS45NDMtMjYuMjE5LTQuMzEyLTMuMDY4LTEuMTktNS4yNTEtNC44NDEtNi4zMTMtNi4zNDRsLTUuOTA2LTEuNzE5YzMuMDYyLTIyLjE1NCAyLjIzNy00NS4yMTEtMy4wNjItNjguMjgxLTUuMzQ4LTIzLjI4NS0xNC44LTQ0LjU4MS0yNy40MDYtNjMuMzQ0bDUuMTg4LTQuNjU2Yy4yMzctMi42MjQuMDMzLTUuMzc2IDIuNzUtOC4yODEgNS43NTEtNS40MDEgMTMuMDAzLTkuODc5IDIxLjc1LTE1LjI4MSA0LjE1Mi0yLjQ0MyA3Ljk5LTQuMDE3IDEyLjE1Ni03LjA5NC45NDItLjY5NiAyLjIyOS0xLjc5OCAzLjIxOS0yLjU5NCA3LjAxNS01LjU5NiA4LjYzMS0xNS4yNDggMy41OTQtMjEuNTYycy0xNC43OTctNi45MDktMjEuODEyLTEuMzEyYy0uOTk5Ljc5MS0yLjM1NCAxLjgyMy0zLjI1IDIuNTk0LTMuOTI3IDMuMzc4LTYuMzUxIDYuNzE0LTkuNjU2IDEwLjIxOS03LjIxMiA3LjMyNi0xMy4xNzQgMTMuNDM4LTE5LjcxOSAxNy44NDQtMi44MzYgMS42NTEtNi45OSAxLjA4LTguODc1Ljk2OWwtNS41NjIgMy45NjljLTMxLjcxOS0zMy4yNjEtNzQuOTA1LTU0LjUyNS0xMjEuNDA2LTU4LjY1NmwtLjM0NC02LjUzMWMtMS45MDQtMS44MjItNC4yMDMtMy4zNzctNC43ODEtNy4zMTItLjYzNi03Ljg2NC40MjYtMTYuMzI1IDEuNjU2LTI2LjUzMS42NzktNC43NjkgMS44MDctOC43MyAyLTEzLjkwNi4wNDQtMS4xNzctLjAyNi0yLjg4NC0uMDMxLTQuMTU2LS4wMDEtOC45NzQtNi41NDgtMTYuMjUxLTE0LjYyNS0xNi4yNXptLTE4LjMxMiAxMTMuNDM4bC00LjM0NCA3Ni43MTktLjMxMi4xNTZjLS4yOTEgNi44NjMtNS45NCAxMi4zNDQtMTIuODc1IDEyLjM0NGExMi44MiAxMi44MiAwIDAgMS03LjU5NC0yLjQ2OWwtLjEyNS4wNjMtNjIuOTA2LTQ0LjU5NGMxOS4zMzQtMTkuMDExIDQ0LjA2My0zMy4wNiA3Mi41NjItMzkuNTMxIDUuMjA2LTEuMTgyIDEwLjQxLTIuMDU5IDE1LjU5NC0yLjY4N3ptMzYuNjU2IDBjMzMuMjczIDQuMDkyIDY0LjA0NSAxOS4xNTkgODcuNjI1IDQyLjI1bC02Mi41IDQ0LjMxMy0uMjE5LS4wOTRhMTIuOTEgMTIuOTEgMCAwIDEtMTcuNjg3LTIuMzc1Yy0xLjc3MS0yLjIyMS0yLjcwMS00LjgzMi0yLjgxMi03LjQ2OWwtLjA2Mi0uMDMxek0yMzIuMTI2IDI4My42Mmw1Ny40MzcgNTEuMzc1LS4wNjIuMzEzYTEyLjg4IDEyLjg4IDAgMCAxIDEuNjI1IDE3Ljc1IDEyLjg5IDEyLjg5IDAgMCAxLTYuNjg3IDQuNDA2bC0uMDYyLjI1LTczLjYyNSAyMS4yNWMtMy43NDctMzQuMjY1IDQuMzI5LTY3LjU3NCAyMS4zNzUtOTUuMzQ0em0yNTguMTU2LjAzMWM4LjUzNCAxMy44MzMgMTQuOTk3IDI5LjI4MiAxOC44NDQgNDYuMDMxIDMuODAxIDE2LjU0OCA0Ljc1NSAzMy4wNjcgMy4xODggNDkuMDMxbC03NC0yMS4zMTItLjA2Mi0uMzEyYy02LjYyNy0xLjgxMS0xMC42OTktOC41NTItOS4xNTYtMTUuMzEyLjYzMi0yLjc3IDIuMTAyLTUuMTEzIDQuMDk0LTYuODQ0bC0uMDMxLS4xNTYgNTcuMTI1LTUxLjEyNXptLTE0MC42NTYgNTUuMzEzaDIzLjUzMWwxNC42MjUgMTguMjgxLTUuMjUgMjIuODEzLTIxLjEyNSAxMC4xNTYtMjEuMTg3LTEwLjE4Ny01LjI1LTIyLjgxMnptNzUuNDM4IDYyLjU2M2ExMi44MyAxMi44MyAwIDAgMSAyLjk2OS4yMTlsLjEyNS0uMTU2IDc2LjE1NiAxMi44NzVjLTExLjE0NiAzMS4zMTMtMzIuNDczIDU4LjQ0LTYwLjk2OSA3Ni41OTRsLTI5LjU2Mi03MS40MDYuMDk0LS4xMjVjLTIuNzE2LTYuMzEuMDAyLTEzLjcxIDYuMjUtMTYuNzE5IDEuNi0uNzcgMy4yNzEtMS4xOTcgNC45MzgtMS4yODF6bS0xMjcuOTA2LjMxM2ExMi45IDEyLjkgMCAwIDEgMTIuMzc1IDEwLjAzMSAxMi43NyAxMi43NyAwIDAgMS0uNzE5IDcuOTM4bC4yMTkuMjgxLTI5LjI1IDcwLjY4OGMtMjcuMzQ3LTE3LjU0OS00OS4xMjktNDMuODI0LTYwLjc4MS03Ni4wNjJsNzUuNS0xMi44MTIuMTI1LjE1NmMuODQ1LS4xNTUgMS43MDEtLjIzIDIuNTMxLS4yMTl6bTYzLjc4MSAzMC45NjljMi4wMjQtLjA3NCA0LjA3OS4zNDEgNi4wMzEgMS4yODEgMi41NiAxLjIzMyA0LjUzNyAzLjE3MyA1Ljc4MSA1LjVoLjI4MWwzNy4yMTkgNjcuMjVjLTQuODMgMS42MTktOS43OTYgMy4wMDMtMTQuODc1IDQuMTU2LTI4LjQ2NSA2LjQ2My01Ni44MzkgNC41MDUtODIuNTMxLTQuMjVsMzcuMTI1LTY3LjEyNWguMDYzYTEyLjkxIDEyLjkxIDAgMCAxIDEwLjkwNi02LjgxMnoiIHN0cm9rZT0ibm9uZSIgc3Ryb2tlLXdpZHRoPSIuMjUiLz4mI3hhOzwvc3ZnPg==;fontColor=default;strokeColor=#000099;fontSize=20;fillColor=default;" vertex="1" parent="120">
                    <mxGeometry x="93.77999999999997" width="78.94" height="75" as="geometry"/>
                </mxCell>
                <mxCell id="98" value="" style="editableCssRules=.*;shape=image;verticalLabelPosition=bottom;labelBackgroundColor=#ffffff;verticalAlign=top;aspect=fixed;imageAspect=0;image=data:image/svg+xml,PHN2ZyB4bWxucz0iaHR0cDovL3d3dy53My5vcmcvMjAwMC9zdmciIHhtbG5zOnhsaW5rPSJodHRwOi8vd3d3LnczLm9yZy8xOTk5L3hsaW5rIiB4bWxuczp2PSJodHRwczovL3ZlY3RhLmlvL25hbm8iIHdpZHRoPSI3MTguNjM1MDcwODAwNzgxMiIgaGVpZ2h0PSIxMDYuNjUwMDAxNTI1ODc4OSIgdmlld0JveD0iMTAgMTAgNzE4LjYzNTA3MDgwMDc4MTIgMTA2LjY1MDAwMTUyNTg3ODkiPiYjeGE7CTxzdHlsZSB0eXBlPSJ0ZXh0L2NzcyI+JiN4YTsJLnN0MHtmaWxsOiMzMjZkZTU7fSYjeGE7CTwvc3R5bGU+JiN4YTsJPGcgY2xhc3M9InN0MCIgZmlsbD0iIzMyNmRlNSI+JiN4YTsJCTxwYXRoIGQ9Ik0zMC4xMTUgNjkuNGw2LjA3NS02Ljc1IDYuMjEtNi44ODUgNS41MzUtNi42MTUgNC41OS01LjRINzYuNDJMNjIuMzggNTkuNTQ1Yy00LjUgNC45NS05LjQ1IDEwLjA4LTE0Ljg1IDE1LjM5IDIuNyAyLjQzIDUuNDkgNS4zNTUgOC4zNyA4Ljc3NWExOTEuODYgMTkxLjg2IDAgMCAxIDguMzcgMTAuMzk1YzIuNyAzLjYgNS4xNzUgNy4yIDcuNDI1IDEwLjhzNC4xNCA2Ljg4NSA1LjY3IDkuODU1SDU0LjI4Yy0xLjQ0LTIuMzQtMy4xMDUtNC45MDUtNC45OTUtNy42OTUtMS44LTIuODgtMy43MzUtNS43MTUtNS44MDUtOC41MDVhOTguMDcgOTguMDcgMCAwIDAtNi42MTUtOC4yMzVjLTIuMjUtMi42MS00LjUtNC44MTUtNi43NS02LjYxNXYzMS4wNUgxMFYxMy4yNEwzMC4xMTUgMTB2NTkuNG0xMTcuMjI5IDQyLjkzYy0zLjQyLjk5LTcuODMgMS44OS0xMy4yMyAyLjctNS40LjktMTEuMDcgMS4zNS0xNy4wMSAxLjM1LTYuMDMgMC0xMS4wNy0uODEtMTUuMTItMi40My0zLjk2LTEuNjItNy4xMS0zLjg3LTkuNDUtNi43NS0yLjM0LTIuOTctNC4wMDUtNi40OC00Ljk5NS0xMC41M3MtMS40ODUtOC41MDUtMS40ODUtMTMuMzY1VjQzLjc1aDIwLjExNXYzNy4xMjVjMCA2LjQ4Ljg1NSAxMS4xNiAyLjU2NSAxNC4wNHM0LjkwNSA0LjMyIDkuNTg1IDQuMzJhODIuOTUgODIuOTUgMCAwIDAgNC41OS0uMTM1bDQuMzItLjU0VjQzLjc1aDIwLjExNXY2OC41OG02NC41MDktMzMuNjE1YzAtMTIuOTYtNC43Ny0xOS40NC0xNC4zMS0xOS40NC0yLjA3IDAtNC4xNC4yNy02LjIxLjgxLTEuOTguNTQtMy42IDEuMjE1LTQuODYgMi4wMjV2MzYuNTg1Yy45OS4xOCAyLjI1LjM2IDMuNzguNTRhODUuNDQgODUuNDQgMCAwIDAgNC45OTUuMTM1YzUuNDkgMCA5LjYzLTEuODkgMTIuNDItNS42N3M0LjE4NS04Ljc3NSA0LjE4NS0xNC45ODVtMjAuNTIuNTRjMCA1LjY3LS44NTUgMTAuOC0yLjU2NSAxNS4zOS0xLjYyIDQuNTktNC4wMDUgOC41MDUtNy4xNTUgMTEuNzQ1cy03LjAyIDUuNzYtMTEuNjEgNy41NmMtNC41OSAxLjcxLTkuODEgMi41NjUtMTUuNjYgMi41NjUtMi40MyAwLTQuOTk1LS4xMzUtNy42OTUtLjQwNWExMTUuMzkgMTE1LjM5IDAgMCAxLTcuODMtLjgxYy0yLjUyLS4zNi00Ljk1LS43NjUtNy4yOS0xLjIxNS0yLjM0LS41NC00LjQxLTEuMDgtNi4yMS0xLjYyVjEzLjI0TDE4Ni40NzMgMTB2MzUuMzdjMi4yNS0uOTkgNC41OS0xLjc1NSA3LjAyLTIuMjk1czUuMDQtLjgxIDcuODMtLjgxYzUuMDQgMCA5LjQ5NS45IDEzLjM2NSAyLjcgMy44NyAxLjcxIDcuMTEgNC4xODUgOS43MiA3LjQyNXM0LjU5IDcuMTU1IDUuOTQgMTEuNzQ1YzEuMzUgNC41IDIuMDI1IDkuNTQgMi4wMjUgMTUuMTIiLz4mI3hhOwkJPHVzZSB4bGluazpocmVmPSIjQiIvPiYjeGE7CQk8cGF0aCBkPSJNMzY5LjQ2NSA2MS41N2wtNi4zNDUtMS4zNWMtMi40My0uNTQtNS4wNC0uODEtNy44My0uODEtMS4yNiAwLTIuNzkuMTM1LTQuNTkuNDA1LTEuNzEuMTgtMy4wMTUuNDA1LTMuOTE1LjY3NXY1NC4yN0gzMjYuNjdWNDcuNTNjMy42LTEuMjYgNy44My0yLjQzIDEyLjY5LTMuNTEgNC45NS0xLjE3IDEwLjQ0LTEuNzU1IDE2LjQ3LTEuNzU1IDEuMDggMCAyLjM4NS4wOSAzLjkxNS4yN2EzOS45IDM5LjkgMCAwIDEgNC41OS41NCA0MC45MiA0MC45MiAwIDAgMSA0LjU5LjgxYzEuNTMuMjcgMi44MzUuNjMgMy45MTUgMS4wOGwtMy4zNzUgMTYuNjA1bTE0LjE1OC0xNS4zOWMzLjQyLS45OSA3LjgzLTEuODkgMTMuMjMtMi43IDUuNC0uOSAxMS4wNy0xLjM1IDE3LjAxLTEuMzUgNi4wMyAwIDExLjAyNS44MSAxNC45ODUgMi40MyA0LjA1IDEuNTMgNy4yNDUgMy43MzUgOS41ODUgNi42MTVzNC4wMDUgNi4zIDQuOTk1IDEwLjI2IDEuNDg1IDguMzcgMS40ODUgMTMuMjN2NDAuMDk1aC0yMC4xMTVWNzcuMDk1YzAtNi40OC0uODU1LTExLjA3LTIuNTY1LTEzLjc3cy00LjkwNS00LjA1LTkuNTg1LTQuMDVhNDEuNjYgNDEuNjYgMCAwIDAtNC41OS4yNyA1MC43NyA1MC43NyAwIDAgMC00LjMyLjQwNXY1NC44MWgtMjAuMTE1VjQ2LjE4bTc2LjI1NCAzMy42MTVjMC02LjMuOTQ1LTExLjc5IDIuODM1LTE2LjQ3IDEuOTgtNC43NyA0LjU0NS04LjczIDcuNjk1LTExLjg4czYuNzUtNS41MzUgMTAuOC03LjE1NWM0LjE0LTEuNjIgOC4zNy0yLjQzIDEyLjY5LTIuNDMgMTAuMDggMCAxOC4wNDUgMy4xMDUgMjMuODk1IDkuMzE1IDUuODUgNi4xMiA4Ljc3NSAxNS4xNjUgOC43NzUgMjcuMTM1IDAgMS4xNy0uMDQ1IDIuNDc1LS4xMzUgMy45MTVsLS4yNyAzLjY0NWgtNDUuNjNjLjQ1IDQuMTQgMi4zODUgNy40MjUgNS44MDUgOS44NTVzOC4wMSAzLjY0NSAxMy43NyAzLjY0NWMzLjY5IDAgNy4yOS0uMzE1IDEwLjgtLjk0NSAzLjYtLjcyIDYuNTI1LTEuNTc1IDguNzc1LTIuNTY1bDIuNyAxNi4zMzVjLTEuMDguNTQtMi41MiAxLjA4LTQuMzIgMS42MnMtMy44MjUuOTktNi4wNzUgMS4zNWMtMi4xNi40NS00LjUuODEtNy4wMiAxLjA4cy01LjA0LjQwNS03LjU2LjQwNWMtNi4zOSAwLTExLjk3LS45NDUtMTYuNzQtMi44MzUtNC42OC0xLjg5LTguNTk1LTQuNDU1LTExLjc0NS03LjY5NS0zLjA2LTMuMzMtNS4zNTUtNy4yNDUtNi44ODUtMTEuNzQ1LTEuNDQtNC41LTIuMTYtOS4zNi0yLjE2LTE0LjU4bTQ3LjI1LTcuNjk1YTE4Ljg2IDE4Ljg2IDAgMCAwLS45NDUtNC45OTVjLS40NS0xLjYyLTEuMjE1LTMuMDYtMi4yOTUtNC4zMi0uOTktMS4yNi0yLjI5NS0yLjI5NS0zLjkxNS0zLjEwNS0xLjUzLS44MS0zLjQ2NS0xLjIxNS01LjgwNS0xLjIxNS0yLjI1IDAtNC4xODUuNDA1LTUuODA1IDEuMjE1LTEuNjIuNzItMi45NyAxLjcxLTQuMDUgMi45N3MtMS45MzUgMi43NDUtMi41NjUgNC40NTVhMzEuMTEgMzEuMTEgMCAwIDAtMS4yMTUgNC45OTVoMjYuNTk1bTM0LjI4OC00Ni4wMzVsMjAuMTE1LTMuMjRWNDMuNzVoMjQuMTY1djE2Ljc0SDU2MS41M3YyNC45NzVjMCA0LjIzLjcyIDcuNjA1IDIuMTYgMTAuMTI1IDEuNTMgMi41MiA0LjU0NSAzLjc4IDkuMDQ1IDMuNzggMi4xNiAwIDQuMzY1LS4xOCA2LjYxNS0uNTQgMi4zNC0uNDUgNC40NTUtMS4wMzUgNi4zNDUtMS43NTVsMi44MzUgMTUuNjZjLTIuNDMuOTktNS4xMyAxLjg0NS04LjEgMi41NjVzLTYuNjE1IDEuMDgtMTAuOTM1IDEuMDhjLTUuNDkgMC0xMC4wMzUtLjcyLTEzLjYzNS0yLjE2LTMuNi0xLjUzLTYuNDgtMy42LTguNjQtNi4yMS0yLjE2LTIuNy0zLjY5LTUuOTQtNC41OS05LjcyLS44MS0zLjc4LTEuMjE1LTcuOTY1LTEuMjE1LTEyLjU1NXYtNTkuNjciLz4mI3hhOwkJPHVzZSB4bGluazpocmVmPSIjQiIgeD0iMzUxLjQ3NSIvPiYjeGE7CQk8cGF0aCBkPSJNNjk4LjUzIDEwMC4zMTVjMy42OSAwIDYuMy0uMzYgNy44My0xLjA4czIuMjk1LTIuMTE1IDIuMjk1LTQuMTg1YzAtMS42Mi0uOTktMy4wMTUtMi45Ny00LjE4NS0xLjk4LTEuMjYtNC45OTUtMi42NTUtOS4wNDUtNC4xODVMNjg4IDgzLjAzNWMtMi41Mi0xLjI2LTQuNjgtMi43NDUtNi40OC00LjQ1NS0xLjgtMS44LTMuMTk1LTMuOTE1LTQuMTg1LTYuMzQ1cy0xLjQ4NS01LjM1NS0xLjQ4NS04Ljc3NWMwLTYuNjYgMi40NzUtMTEuOTI1IDcuNDI1LTE1Ljc5NXMxMS43NDUtNS44MDUgMjAuMzg1LTUuODA1YzQuMzIgMCA4LjQ2LjQwNSAxMi40MiAxLjIxNSAzLjk2LjcyIDcuMTEgMS41MyA5LjQ1IDIuNDNsLTMuNTEgMTUuNjZjLTIuMzQtLjgxLTQuOTA1LTEuNTMtNy42OTUtMi4xNi0yLjctLjYzLTUuNzYtLjk0NS05LjE4LS45NDUtNi4zIDAtOS40NSAxLjc1NS05LjQ1IDUuMjY1IDAgLjgxLjEzNSAxLjUzLjQwNSAyLjE2cy44MSAxLjI2IDEuNjIgMS44OWMuODEuNTQgMS44OSAxLjE3IDMuMjQgMS44OSAxLjQ0LjYzIDMuMjQgMS4zNSA1LjQgMi4xNiA0LjQxIDEuNjIgOC4wNTUgMy4yNCAxMC45MzUgNC44NiAyLjg4IDEuNTMgNS4xMyAzLjI0IDYuNzUgNS4xMyAxLjcxIDEuOCAyLjg4IDMuODI1IDMuNTEgNi4wNzUuNzIgMi4yNSAxLjA4IDQuODYgMS4wOCA3LjgzIDAgNy4wMi0yLjY1NSAxMi4zMy03Ljk2NSAxNS45My01LjIyIDMuNi0xMi42NDUgNS40LTIyLjI3NSA1LjQtNi4zIDAtMTEuNTY1LS41NC0xNS43OTUtMS42Mi00LjE0LTEuMDgtNy4wMi0xLjk4LTguNjQtMi43bDMuMzc1LTE2LjMzNWE3MS4yIDcxLjIgMCAwIDAgMTAuNTMgMy4yNCA1NC4yOCA1NC4yOCAwIDAgMCAxMC42NjUgMS4wOCIvPiYjeGE7CTwvZz4mI3hhOwk8ZGVmcz4mI3hhOwkJPHBhdGggaWQ9IkIiIGQ9Ik0yNDQuNDU3IDc5Ljc5NWMwLTYuMy45NDUtMTEuNzkgMi44MzUtMTYuNDcgMS45OC00Ljc3IDQuNTQ1LTguNzMgNy42OTUtMTEuODhzNi43NS01LjUzNSAxMC44LTcuMTU1YzQuMTQtMS42MiA4LjM3LTIuNDMgMTIuNjktMi40MyAxMC4wOCAwIDE4LjA0NSAzLjEwNSAyMy44OTUgOS4zMTUgNS44NSA2LjEyIDguNzc1IDE1LjE2NSA4Ljc3NSAyNy4xMzUgMCAxLjE3LS4wNDUgMi40NzUtLjEzNSAzLjkxNWwtLjI3IDMuNjQ1aC00NS42M2MuNDUgNC4xNCAyLjM4NSA3LjQyNSA1LjgwNSA5Ljg1NXM4LjAxIDMuNjQ1IDEzLjc3IDMuNjQ1YzMuNjkgMCA3LjI5LS4zMTUgMTAuOC0uOTQ1IDMuNi0uNzIgNi41MjUtMS41NzUgOC43NzUtMi41NjVsMi43IDE2LjMzNWMtMS4wOC41NC0yLjUyIDEuMDgtNC4zMiAxLjYycy0zLjgyNS45OS02LjA3NSAxLjM1Yy0yLjE2LjQ1LTQuNS44MS03LjAyIDEuMDhzLTUuMDQuNDA1LTcuNTYuNDA1Yy02LjM5IDAtMTEuOTctLjk0NS0xNi43NC0yLjgzNS00LjY4LTEuODktOC41OTUtNC40NTUtMTEuNzQ1LTcuNjk1LTMuMDYtMy4zMy01LjM1NS03LjI0NS02Ljg4NS0xMS43NDUtMS40NC00LjUtMi4xNi05LjM2LTIuMTYtMTQuNThtNDcuMjUtNy42OTVhMTguODYgMTguODYgMCAwIDAtLjk0NS00Ljk5NWMtLjQ1LTEuNjItMS4yMTUtMy4wNi0yLjI5NS00LjMyLS45OS0xLjI2LTIuMjk1LTIuMjk1LTMuOTE1LTMuMTA1LTEuNTMtLjgxLTMuNDY1LTEuMjE1LTUuODA1LTEuMjE1LTIuMjUgMC00LjE4NS40MDUtNS44MDUgMS4yMTUtMS42Mi43Mi0yLjk3IDEuNzEtNC4wNSAyLjk3cy0xLjkzNSAyLjc0NS0yLjU2NSA0LjQ1NWMtLjU0IDEuNjItLjk0NSAzLjI4NS0xLjIxNSA0Ljk5NWgyNi41OTUiLz4mI3hhOwk8L2RlZnM+JiN4YTs8L3N2Zz4=;fontColor=default;strokeColor=#000099;fontSize=20;fillColor=default;" vertex="1" parent="120">
                    <mxGeometry x="65.74872340425532" y="86.99699421965306" width="135" height="20" as="geometry"/>
                </mxCell>
                <mxCell id="112" value="" style="group" vertex="1" connectable="0" parent="120">
                    <mxGeometry y="119" width="266.5" height="222" as="geometry"/>
                </mxCell>
                <mxCell id="104" value="" style="rounded=1;whiteSpace=wrap;html=1;labelBackgroundColor=#18141D;strokeColor=#666666;fontSize=20;fontColor=#333333;fillColor=#f5f5f5;" vertex="1" parent="112">
                    <mxGeometry width="266.5" height="222" as="geometry"/>
                </mxCell>
                <mxCell id="111" value="" style="group" vertex="1" connectable="0" parent="112">
                    <mxGeometry x="37" width="199" height="197" as="geometry"/>
                </mxCell>
                <mxCell id="105" value="&lt;font color=&quot;#000000&quot;&gt;&lt;b&gt;&lt;font style=&quot;font-size: 23px;&quot;&gt;Node&lt;/font&gt;&lt;br&gt;&lt;/b&gt;&lt;/font&gt;" style="rounded=0;whiteSpace=wrap;html=1;fillColor=none;strokeColor=none;" vertex="1" parent="111">
                    <mxGeometry x="36.25" width="120" height="60" as="geometry"/>
                </mxCell>
                <mxCell id="106" value="" style="rounded=1;whiteSpace=wrap;html=1;labelBackgroundColor=#18141D;strokeColor=#82b366;fontSize=20;fillColor=#d5e8d4;" vertex="1" parent="111">
                    <mxGeometry y="65" width="87" height="132" as="geometry"/>
                </mxCell>
                <mxCell id="107" value="" style="rounded=1;whiteSpace=wrap;html=1;labelBackgroundColor=#18141D;strokeColor=#82b366;fontSize=20;fillColor=#d5e8d4;" vertex="1" parent="111">
                    <mxGeometry x="112" y="65" width="87" height="132" as="geometry"/>
                </mxCell>
                <mxCell id="108" value="" style="sketch=0;aspect=fixed;html=1;points=[];align=center;image;fontSize=12;image=img/lib/mscae/Docker.svg;labelBackgroundColor=#18141D;strokeColor=#000099;fontColor=#4C0099;fillColor=default;" vertex="1" parent="111">
                    <mxGeometry x="9.349999999999994" y="108" width="68.29" height="56" as="geometry"/>
                </mxCell>
                <mxCell id="109" value="" style="sketch=0;aspect=fixed;html=1;points=[];align=center;image;fontSize=12;image=img/lib/mscae/Docker.svg;labelBackgroundColor=#18141D;strokeColor=#000099;fontColor=#4C0099;fillColor=default;" vertex="1" parent="111">
                    <mxGeometry x="119" y="108" width="68.29" height="56" as="geometry"/>
                </mxCell>
                <mxCell id="124" value="&lt;font color=&quot;#000000&quot;&gt;&lt;b&gt;&lt;font style=&quot;font-size: 23px;&quot;&gt;Kubernetes Server&lt;/font&gt;&lt;br&gt;&lt;/b&gt;&lt;/font&gt;" style="rounded=0;whiteSpace=wrap;html=1;fillColor=none;strokeColor=none;" vertex="1" parent="90">
                    <mxGeometry x="309" y="-26" width="120" height="60" as="geometry"/>
                </mxCell>
                <mxCell id="94" value="" style="shape=flexArrow;endArrow=classic;html=1;strokeColor=#030303;fontSize=20;fontColor=#4C0099;fillColor=default;" edge="1" parent="90">
                    <mxGeometry width="50" height="50" relative="1" as="geometry">
                        <mxPoint x="250" y="-49" as="sourcePoint"/>
                        <mxPoint x="250" y="34" as="targetPoint"/>
                        <Array as="points">
                            <mxPoint x="250" y="6"/>
                        </Array>
                    </mxGeometry>
                </mxCell>
                <mxCell id="123" value="" style="group" vertex="1" connectable="0" parent="1">
                    <mxGeometry x="532" y="-15" width="416" height="274" as="geometry"/>
                </mxCell>
                <mxCell id="5" value="" style="rounded=1;whiteSpace=wrap;html=1;fillColor=#fff2cc;strokeColor=#d6b656;" vertex="1" parent="123">
                    <mxGeometry width="416" height="274" as="geometry"/>
                </mxCell>
                <mxCell id="30" value="" style="shape=image;verticalLabelPosition=bottom;verticalAlign=top;imageAspect=0;image=https://git-scm.com/images/logos/downloads/Git-Icon-1788C.svg;fillColor=default;" vertex="1" parent="123">
                    <mxGeometry x="41.820105820105816" y="19.202928870292887" width="58.32804232804232" height="56.17573221757322" as="geometry"/>
                </mxCell>
                <mxCell id="42" value="" style="shape=image;verticalLabelPosition=bottom;verticalAlign=top;imageAspect=0;image=https://upload.wikimedia.org/wikipedia/commons/2/29/Postgresql_elephant.svg;fillColor=default;" vertex="1" parent="123">
                    <mxGeometry x="172.78306878306879" y="21.782426778242677" width="48.42328042328042" height="51.58995815899581" as="geometry"/>
                </mxCell>
                <mxCell id="43" value="" style="sketch=0;aspect=fixed;html=1;points=[];align=center;image;fontSize=12;image=img/lib/mscae/Docker.svg;fillColor=default;" vertex="1" parent="123">
                    <mxGeometry x="176.08465608465607" y="145.02510460251045" width="55.026455026455025" height="45.12169312169312" as="geometry"/>
                </mxCell>
                <mxCell id="45" value="" style="dashed=0;outlineConnect=0;html=1;align=center;labelPosition=center;verticalLabelPosition=bottom;verticalAlign=top;shape=mxgraph.weblogos.java;fillColor=default;" vertex="1" parent="123">
                    <mxGeometry x="318.05291005291" y="139.86610878661088" width="37.41798941798942" height="63.05439330543933" as="geometry"/>
                </mxCell>
                <mxCell id="47" value="Login" style="html=1;strokeColor=none;fillColor=#0079D6;labelPosition=center;verticalLabelPosition=middle;verticalAlign=top;align=center;fontSize=12;outlineConnect=0;spacingTop=-6;fontColor=#FFFFFF;sketch=0;shape=mxgraph.sitemap.login;" vertex="1" parent="123">
                    <mxGeometry x="307.04761904761904" y="12.610878661087867" width="53.925925925925924" height="51.58995815899581" as="geometry"/>
                </mxCell>
                <mxCell id="57" value="" style="shape=image;verticalLabelPosition=bottom;verticalAlign=top;imageAspect=0;image=https://www.svgrepo.com/download/362402/arrow-right-bold.svg;fillColor=default;imageBackground=none;" vertex="1" parent="123">
                    <mxGeometry x="107.85185185185185" y="25.08418410041841" width="51.72486772486772" height="40.41213389121339" as="geometry"/>
                </mxCell>
                <mxCell id="59" value="" style="shape=image;verticalLabelPosition=bottom;verticalAlign=top;imageAspect=0;image=https://www.svgrepo.com/download/362402/arrow-right-bold.svg;fillColor=default;imageBackground=none;" vertex="1" parent="123">
                    <mxGeometry x="236.6137566137566" y="27.365606694560665" width="51.72486772486772" height="40.41213389121339" as="geometry"/>
                </mxCell>
                <mxCell id="62" value="" style="shape=image;verticalLabelPosition=bottom;verticalAlign=top;imageAspect=0;image=https://www.svgrepo.com/download/459460/left-arrow.svg;fillColor=default;" vertex="1" parent="123">
                    <mxGeometry x="253.1216931216931" y="139.00627615062763" width="53.925925925925924" height="59.0418410041841" as="geometry"/>
                </mxCell>
                <mxCell id="64" value="&lt;font size=&quot;1&quot; color=&quot;#000000&quot;&gt;&lt;b style=&quot;font-size: 15px;&quot;&gt;clone&lt;/b&gt;&lt;/font&gt;" style="rounded=0;whiteSpace=wrap;html=1;fillColor=none;strokeColor=none;" vertex="1" parent="123">
                    <mxGeometry x="4.9523809523809526" y="55.029288702928866" width="132.06349206349205" height="68.7866108786611" as="geometry"/>
                </mxCell>
                <mxCell id="65" value="&lt;font size=&quot;1&quot; color=&quot;#000000&quot;&gt;&lt;b style=&quot;font-size: 15px;&quot;&gt;setup DB&lt;/b&gt;&lt;/font&gt;" style="rounded=0;whiteSpace=wrap;html=1;fillColor=none;strokeColor=none;" vertex="1" parent="123">
                    <mxGeometry x="130.96296296296296" y="52.73640167364017" width="132.06349206349205" height="68.7866108786611" as="geometry"/>
                </mxCell>
                <mxCell id="66" value="&lt;font color=&quot;#000000&quot;&gt;&lt;b&gt;&lt;font style=&quot;font-size: 15px;&quot;&gt;docker hub&amp;nbsp;login&lt;/font&gt;&lt;br&gt;&lt;/b&gt;&lt;/font&gt;" style="rounded=0;whiteSpace=wrap;html=1;fillColor=none;strokeColor=none;" vertex="1" parent="123">
                    <mxGeometry x="275.13227513227514" y="40.1255230125523" width="138.1164021164021" height="94.00836820083681" as="geometry"/>
                </mxCell>
                <mxCell id="67" value="&lt;font size=&quot;1&quot; color=&quot;#000000&quot;&gt;&lt;b style=&quot;font-size: 15px;&quot;&gt;build jar&lt;/b&gt;&lt;/font&gt;" style="rounded=0;whiteSpace=wrap;html=1;fillColor=none;strokeColor=none;" vertex="1" parent="123">
                    <mxGeometry x="275.13227513227514" y="178.84518828451883" width="132.06349206349205" height="68.7866108786611" as="geometry"/>
                </mxCell>
                <mxCell id="68" value="&lt;font style=&quot;font-size: 15px;&quot; color=&quot;#000000&quot;&gt;&lt;b&gt;build &amp;amp; push&lt;br&gt;image&lt;br&gt;&lt;/b&gt;&lt;/font&gt;" style="rounded=0;whiteSpace=wrap;html=1;fillColor=none;strokeColor=none;" vertex="1" parent="123">
                    <mxGeometry x="139.21693121693121" y="189.02560669456065" width="128.76190476190476" height="67.06694560669456" as="geometry"/>
                </mxCell>
                <mxCell id="69" value="Kubernetes" style="sketch=0;html=1;verticalAlign=top;labelPosition=center;verticalLabelPosition=bottom;align=center;spacingTop=-6;fontSize=11;fontStyle=1;fontColor=#999999;shape=image;aspect=fixed;imageAspect=0;image=data:image/svg+xml,PHN2ZyB4bWxucz0iaHR0cDovL3d3dy53My5vcmcvMjAwMC9zdmciIHhtbG5zOnY9Imh0dHBzOi8vdmVjdGEuaW8vbmFubyIgd2lkdGg9IjcwMi44NDYzMTM0NzY1NjI1IiBoZWlnaHQ9IjY4MS45NjcxMDIwNTA3ODEyIiB2aWV3Qm94PSIxMC4wMDEwMjYxNTM1NjQ0NTMgMTAuMDAwOTMzNjQ3MTU1NzYyIDcwMi44NDYzMTM0NzY1NjI1IDY4MS45NjcxMDIwNTA3ODEyIj4mI3hhOwk8c3R5bGUgdHlwZT0idGV4dC9jc3MiPiYjeGE7CS5zdDB7ZmlsbDojMzI2Y2U1O30mI3hhOwkuc3Qxe2ZpbGw6I2ZmZjt9JiN4YTsJPC9zdHlsZT4mI3hhOwk8cGF0aCBjbGFzcz0ic3QwIiBkPSJNMzU4Ljk4NyAxMC4wNmMtNi4yMTMuMzEzLTEyLjMwMSAxLjg1NC0xNy45MDYgNC41MzFMOTYuNzM3IDEzMS4zNDJjLTEyLjgxMSA2LjExOC0yMi4xMTYgMTcuNjg5LTI1LjI4MSAzMS40MzhsLTYwLjI4MSAyNjIuMjVjLTIuODEyIDEyLjIwNy0uNTI0IDI1LjAyNCA2LjM0NCAzNS41MzFhNDYuMzUgNDYuMzUgMCAwIDAgMi42NTYgMy42ODhsMTY5LjEyNSAyMTAuMjgxYzguODY4IDExLjAyMiAyMi4zMTMgMTcuNDQgMzYuNTMxIDE3LjQzOGwyNzEuMjE5LS4wNjJjMTQuMjEyLjAxIDI3LjY1Ny02LjM5NiAzNi41MzEtMTcuNDA2bDE2OS4wNjMtMjEwLjMxM2M4Ljg3My0xMS4wMjggMTIuMTk3LTI1LjQ2NCA5LjAzMS0zOS4yMTlsLTYwLjM3NS0yNjIuMjVjLTMuMTY1LTEzLjc0OC0xMi40Ny0yNS4zMTktMjUuMjgxLTMxLjQzN0wzODEuNjQzIDE0LjU5MmMtNy4wNS0zLjM2OC0xNC44NDEtNC45MjYtMjIuNjU2LTQuNTMxeiIvPiYjeGE7CTxwYXRoIGNsYXNzPSJzdDEgc3QyIiBkPSJNMzYxLjQwOCA5OS4zMDhjLTguMDc3LjAwMS0xNC42MjYgNy4yNzYtMTQuNjI1IDE2LjI1IDAgLjEzOC4wMjguMjY5LjAzMS40MDYtLjAxMiAxLjIxOS0uMDcxIDIuNjg4LS4wMzEgMy43NS4xOTMgNS4xNzYgMS4zMjEgOS4xMzcgMiAxMy45MDYgMS4yMyAxMC4yMDcgMi4yNjEgMTguNjY3IDEuNjI1IDI2LjUzMS0uNjE5IDIuOTY1LTIuODAzIDUuNjc3LTQuNzUgNy41NjNsLS4zNDQgNi4xODhjLTguNzc3LjcyNy0xNy42MTIgMi4wNTktMjYuNDM3IDQuMDYzLTM3Ljk3NSA4LjYyMi03MC42NyAyOC4xODMtOTUuNTYyIDU0LjU5NC0xLjYxNS0xLjEwMi00LjQ0MS0zLjEyOS01LjI4MS0zLjc1LTIuNjExLjM1My01LjI1IDEuMTU4LTguNjg3LS44NDQtNi41NDUtNC40MDYtMTIuNTA2LTEwLjQ4Ny0xOS43MTktMTcuODEyLTMuMzA1LTMuNTA0LTUuNjk4LTYuODQxLTkuNjI1LTEwLjIxOS0uODkyLS43NjctMi4yNTMtMS44MDUtMy4yNS0yLjU5NC0zLjA3LTIuNDQ4LTYuNjkxLTMuNzI0LTEwLjE4Ny0zLjg0NC00LjQ5Ni0uMTU0LTguODI0IDEuNjA0LTExLjY1NiA1LjE1Ni01LjAzNSA2LjMxNS0zLjQyMyAxNS45NjggMy41OTQgMjEuNTYzLjA3MS4wNTcuMTQ3LjEwMS4yMTkuMTU2Ljk2NC43ODIgMi4xNDUgMS43ODMgMy4wMzEgMi40MzggNC4xNjcgMy4wNzcgNy45NzMgNC42NTEgMTIuMTI1IDcuMDk0IDguNzQ3IDUuNDAyIDE1Ljk5OCA5Ljg4MSAyMS43NSAxNS4yODEgMi4yNDYgMi4zOTQgMi42MzkgNi42MTMgMi45MzggOC40MzhsNC42ODggNC4xODhjLTI1LjA5MyAzNy43NjQtMzYuNzA3IDg0LjQwOS0yOS44NDQgMTMxLjkzOGwtNi4xMjUgMS43ODFjLTEuNjE0IDIuMDg1LTMuODk1IDUuMzY1LTYuMjgxIDYuMzQ0LTcuNTI1IDIuMzctMTUuOTk0IDMuMjQxLTI2LjIxOSA0LjMxMy00LjguMzk5LTguOTQyLjE2MS0xNC4wMzEgMS4xMjUtMS4xMi4yMTItMi42ODEuNjE5LTMuOTA2LjkwNi0uMDQzLjAwOS0uMDgyLjAyMi0uMTI1LjAzMS0uMDY3LjAxNS0uMTU1LjA0OC0uMjE5LjA2My04LjYyIDIuMDgzLTE0LjE1OCAxMC4wMDYtMTIuMzc1IDE3LjgxM3MxMC4yMDMgMTIuNTU3IDE4Ljg3NSAxMC42ODhjLjA2My0uMDE0LjE1NC0uMDE3LjIxOS0uMDMxLjA5OC0uMDIyLjE4NC0uMDcuMjgxLS4wOTQgMS4yMDktLjI2NSAyLjcyNC0uNTYxIDMuNzgxLS44NDQgNS4wMDMtMS4zNCA4LjYyNy0zLjMwOCAxMy4xMjUtNS4wMzEgOS42NzctMy40NzEgMTcuNjkyLTYuMzcgMjUuNS03LjUgMy4yNjEtLjI1NSA2LjY5NyAyLjAxMiA4LjQwNiAyLjk2OWw2LjM3NS0xLjA5NGMxNC42NyA0NS40ODMgNDUuNDE0IDgyLjI0NSA4NC4zNDQgMTA1LjMxMmwtMi42NTYgNi4zNzVjLjk1NyAyLjQ3NSAyLjAxMyA1LjgyNSAxLjMgOC4yNjktMi44MzkgNy4zNjEtNy43MDEgMTUuMTMxLTEzLjIzOCAyMy43OTMtMi42ODEgNC4wMDItNS40MjUgNy4xMDgtNy44NDQgMTEuNjg4LS41NzkgMS4wOTYtMS4zMTYgMi43NzktMS44NzUgMy45MzgtMy43NTkgOC4wNDItMS4wMDIgMTcuMzA1IDYuMjE5IDIwLjc4MSA3LjI2NiAzLjQ5OCAxNi4yODQtLjE5MSAyMC4xODctOC4yNS4wMDYtLjAxMS4wMjYtLjAyLjAzMS0uMDMxcy0uMDA0LS4wMjMgMC0uMDMxYy41NTYtMS4xNDMgMS4zNDQtMi42NDQgMS44MTMtMy43MTkgMi4wNzItNC43NDcgMi43NjItOC44MTUgNC4yMTktMTMuNDA2IDMuODctOS43MiA1Ljk5Ni0xOS45MTkgMTEuMzIzLTI2LjI3NCAxLjQ1OS0xLjc0IDMuODM3LTIuNDA5IDYuMzAyLTMuMDdsMy4zMTMtNmMzMy45MzggMTMuMDI3IDcxLjkyNyAxNi41MjIgMTA5Ljg3NSA3LjkwNmExODkuNzcgMTg5Ljc3IDAgMCAwIDI1LjA5NC03LjU2MmwzLjEyNSA1LjYyNWMyLjUwNi44MTUgNS4yNCAxLjIzNiA3LjQ2OSA0LjUzMSAzLjk4NSA2LjgwOSA2LjcxMSAxNC44NjQgMTAuMDMxIDI0LjU5NCAxLjQ1NyA0LjU5MSAyLjE3OCA4LjY1OSA0LjI1IDEzLjQwNi40NzIgMS4wODIgMS4yNTYgMi42MDUgMS44MTMgMy43NSAzLjg5NSA4LjA4NSAxMi45NDIgMTEuNzg3IDIwLjIxOSA4LjI4MSA3LjIxOS0zLjQ3OCA5Ljk4LTEyLjc0IDYuMjE5LTIwLjc4MWwtMS45MDYtMy45MzdjLTIuNDE5LTQuNTgtNS4xNjMtNy42NTQtNy44NDQtMTEuNjU2LTUuNTM3LTguNjYyLTEwLjEzLTE1Ljg1OC0xMi45NjktMjMuMjE5LTEuMTg3LTMuNzk3LjItNi4xNTggMS4xMjUtOC42MjUtLjU1NC0uNjM1LTEuNzM5LTQuMjItMi40MzctNS45MDYgNDAuNDU3LTIzLjg4OCA3MC4yOTktNjIuMDIxIDg0LjMxMy0xMDYuMDYyIDEuODkyLjI5NyA1LjE4Mi44NzkgNi4yNSAxLjA5NCAyLjItMS40NTEgNC4yMjItMy4zNDQgOC4xODgtMy4wMzEgNy44MDggMS4xMjkgMTUuODIzIDQuMDMgMjUuNSA3LjUgNC40OTggMS43MjMgOC4xMjIgMy43MjMgMTMuMTI1IDUuMDYzIDEuMDU3LjI4MyAyLjU3Mi41NDcgMy43ODEuODEzLjA5Ny4wMjQuMTgzLjA3MS4yODEuMDk0LjA2NS4wMTUuMTU2LjAxNy4yMTkuMDMxIDguNjcyIDEuODY3IDE3LjA5NC0yLjg3OSAxOC44NzUtMTAuNjg3cy0zLjc1NC0xNS43MzItMTIuMzc1LTE3LjgxMmMtMS4yNTQtLjI4NS0zLjAzMi0uNzY5LTQuMjUtMS01LjA4OS0uOTY0LTkuMjMxLS43MjYtMTQuMDMxLTEuMTI1LTEwLjIyNS0xLjA3MS0xOC42OTMtMS45NDMtMjYuMjE5LTQuMzEyLTMuMDY4LTEuMTktNS4yNTEtNC44NDEtNi4zMTMtNi4zNDRsLTUuOTA2LTEuNzE5YzMuMDYyLTIyLjE1NCAyLjIzNy00NS4yMTEtMy4wNjItNjguMjgxLTUuMzQ4LTIzLjI4NS0xNC44LTQ0LjU4MS0yNy40MDYtNjMuMzQ0bDUuMTg4LTQuNjU2Yy4yMzctMi42MjQuMDMzLTUuMzc2IDIuNzUtOC4yODEgNS43NTEtNS40MDEgMTMuMDAzLTkuODc5IDIxLjc1LTE1LjI4MSA0LjE1Mi0yLjQ0MyA3Ljk5LTQuMDE3IDEyLjE1Ni03LjA5NC45NDItLjY5NiAyLjIyOS0xLjc5OCAzLjIxOS0yLjU5NCA3LjAxNS01LjU5NiA4LjYzMS0xNS4yNDggMy41OTQtMjEuNTYycy0xNC43OTctNi45MDktMjEuODEyLTEuMzEyYy0uOTk5Ljc5MS0yLjM1NCAxLjgyMy0zLjI1IDIuNTk0LTMuOTI3IDMuMzc4LTYuMzUxIDYuNzE0LTkuNjU2IDEwLjIxOS03LjIxMiA3LjMyNi0xMy4xNzQgMTMuNDM4LTE5LjcxOSAxNy44NDQtMi44MzYgMS42NTEtNi45OSAxLjA4LTguODc1Ljk2OWwtNS41NjIgMy45NjljLTMxLjcxOS0zMy4yNjEtNzQuOTA1LTU0LjUyNS0xMjEuNDA2LTU4LjY1NmwtLjM0NC02LjUzMWMtMS45MDQtMS44MjItNC4yMDMtMy4zNzctNC43ODEtNy4zMTItLjYzNi03Ljg2NC40MjYtMTYuMzI1IDEuNjU2LTI2LjUzMS42NzktNC43NjkgMS44MDctOC43MyAyLTEzLjkwNi4wNDQtMS4xNzctLjAyNi0yLjg4NC0uMDMxLTQuMTU2LS4wMDEtOC45NzQtNi41NDgtMTYuMjUxLTE0LjYyNS0xNi4yNXptLTE4LjMxMiAxMTMuNDM4bC00LjM0NCA3Ni43MTktLjMxMi4xNTZjLS4yOTEgNi44NjMtNS45NCAxMi4zNDQtMTIuODc1IDEyLjM0NGExMi44MiAxMi44MiAwIDAgMS03LjU5NC0yLjQ2OWwtLjEyNS4wNjMtNjIuOTA2LTQ0LjU5NGMxOS4zMzQtMTkuMDExIDQ0LjA2My0zMy4wNiA3Mi41NjItMzkuNTMxIDUuMjA2LTEuMTgyIDEwLjQxLTIuMDU5IDE1LjU5NC0yLjY4N3ptMzYuNjU2IDBjMzMuMjczIDQuMDkyIDY0LjA0NSAxOS4xNTkgODcuNjI1IDQyLjI1bC02Mi41IDQ0LjMxMy0uMjE5LS4wOTRhMTIuOTEgMTIuOTEgMCAwIDEtMTcuNjg3LTIuMzc1Yy0xLjc3MS0yLjIyMS0yLjcwMS00LjgzMi0yLjgxMi03LjQ2OWwtLjA2Mi0uMDMxek0yMzIuMTI2IDI4My42Mmw1Ny40MzcgNTEuMzc1LS4wNjIuMzEzYTEyLjg4IDEyLjg4IDAgMCAxIDEuNjI1IDE3Ljc1IDEyLjg5IDEyLjg5IDAgMCAxLTYuNjg3IDQuNDA2bC0uMDYyLjI1LTczLjYyNSAyMS4yNWMtMy43NDctMzQuMjY1IDQuMzI5LTY3LjU3NCAyMS4zNzUtOTUuMzQ0em0yNTguMTU2LjAzMWM4LjUzNCAxMy44MzMgMTQuOTk3IDI5LjI4MiAxOC44NDQgNDYuMDMxIDMuODAxIDE2LjU0OCA0Ljc1NSAzMy4wNjcgMy4xODggNDkuMDMxbC03NC0yMS4zMTItLjA2Mi0uMzEyYy02LjYyNy0xLjgxMS0xMC42OTktOC41NTItOS4xNTYtMTUuMzEyLjYzMi0yLjc3IDIuMTAyLTUuMTEzIDQuMDk0LTYuODQ0bC0uMDMxLS4xNTYgNTcuMTI1LTUxLjEyNXptLTE0MC42NTYgNTUuMzEzaDIzLjUzMWwxNC42MjUgMTguMjgxLTUuMjUgMjIuODEzLTIxLjEyNSAxMC4xNTYtMjEuMTg3LTEwLjE4Ny01LjI1LTIyLjgxMnptNzUuNDM4IDYyLjU2M2ExMi44MyAxMi44MyAwIDAgMSAyLjk2OS4yMTlsLjEyNS0uMTU2IDc2LjE1NiAxMi44NzVjLTExLjE0NiAzMS4zMTMtMzIuNDczIDU4LjQ0LTYwLjk2OSA3Ni41OTRsLTI5LjU2Mi03MS40MDYuMDk0LS4xMjVjLTIuNzE2LTYuMzEuMDAyLTEzLjcxIDYuMjUtMTYuNzE5IDEuNi0uNzcgMy4yNzEtMS4xOTcgNC45MzgtMS4yODF6bS0xMjcuOTA2LjMxM2ExMi45IDEyLjkgMCAwIDEgMTIuMzc1IDEwLjAzMSAxMi43NyAxMi43NyAwIDAgMS0uNzE5IDcuOTM4bC4yMTkuMjgxLTI5LjI1IDcwLjY4OGMtMjcuMzQ3LTE3LjU0OS00OS4xMjktNDMuODI0LTYwLjc4MS03Ni4wNjJsNzUuNS0xMi44MTIuMTI1LjE1NmMuODQ1LS4xNTUgMS43MDEtLjIzIDIuNTMxLS4yMTl6bTYzLjc4MSAzMC45NjljMi4wMjQtLjA3NCA0LjA3OS4zNDEgNi4wMzEgMS4yODEgMi41NiAxLjIzMyA0LjUzNyAzLjE3MyA1Ljc4MSA1LjVoLjI4MWwzNy4yMTkgNjcuMjVjLTQuODMgMS42MTktOS43OTYgMy4wMDMtMTQuODc1IDQuMTU2LTI4LjQ2NSA2LjQ2My01Ni44MzkgNC41MDUtODIuNTMxLTQuMjVsMzcuMTI1LTY3LjEyNWguMDYzYTEyLjkxIDEyLjkxIDAgMCAxIDEwLjkwNi02LjgxMnoiIHN0cm9rZT0ibm9uZSIgc3Ryb2tlLXdpZHRoPSIuMjUiLz4mI3hhOzwvc3ZnPg==;labelBackgroundColor=#FFFFFF;fillColor=none;" vertex="1" parent="123">
                    <mxGeometry x="47.87301587301587" y="146.4581589958159" width="46.22222222222222" height="44.02116402116402" as="geometry"/>
                </mxCell>
                <mxCell id="70" value="" style="shape=image;verticalLabelPosition=bottom;verticalAlign=top;imageAspect=0;image=https://www.svgrepo.com/download/459460/left-arrow.svg;fillColor=default;" vertex="1" parent="123">
                    <mxGeometry x="116.65608465608464" y="139.86610878661088" width="53.925925925925924" height="59.0418410041841" as="geometry"/>
                </mxCell>
                <mxCell id="71" value="&lt;font style=&quot;font-size: 15px;&quot; color=&quot;#000000&quot;&gt;&lt;b&gt;apply K8S&lt;br&gt;manifests&lt;br&gt;&lt;/b&gt;&lt;/font&gt;" style="rounded=0;whiteSpace=wrap;html=1;fillColor=none;strokeColor=none;" vertex="1" parent="123">
                    <mxGeometry x="7.1534391534391535" y="198.0481171548117" width="132.06349206349205" height="68.7866108786611" as="geometry"/>
                </mxCell>
                <mxCell id="80" value="" style="shape=singleArrow;direction=south;whiteSpace=wrap;html=1;labelBackgroundColor=#FFFFFF;fontSize=15;fontColor=#000000;fillColor=default;" vertex="1" parent="123">
                    <mxGeometry x="330.7089947089947" y="98.59414225941423" width="12.105820105820104" height="41.27196652719665" as="geometry"/>
                </mxCell>
                <mxCell id="82" style="edgeStyle=none;html=1;exitX=0.5;exitY=0;exitDx=0;exitDy=0;entryX=0.617;entryY=-0.088;entryDx=0;entryDy=0;entryPerimeter=0;strokeColor=#030303;fontSize=15;fontColor=#000000;endArrow=open;endFill=0;fillColor=default;" edge="1" parent="123" source="67" target="67">
                    <mxGeometry relative="1" as="geometry"/>
                </mxCell>
                <mxCell id="125" value="&lt;font color=&quot;#000000&quot;&gt;&lt;b&gt;&lt;font style=&quot;font-size: 20px;&quot;&gt;Pipeline Steps&lt;/font&gt;&lt;br&gt;&lt;/b&gt;&lt;/font&gt;" style="rounded=0;whiteSpace=wrap;html=1;fillColor=none;strokeColor=none;" vertex="1" parent="1">
                    <mxGeometry x="652.99" y="-63" width="152" height="57" as="geometry"/>
                </mxCell>
                <mxCell id="126" value="&lt;font color=&quot;#000000&quot;&gt;&lt;b&gt;&lt;font style=&quot;font-size: 25px;&quot;&gt;CI/CD Pipeline using Jenkins to deploy a 3-tier app on Kubernetes and AWS EC2&lt;/font&gt;&lt;br&gt;&lt;/b&gt;&lt;/font&gt;" style="rounded=0;whiteSpace=wrap;html=1;fillColor=none;strokeColor=none;" vertex="1" parent="1">
                    <mxGeometry x="-13" y="758" width="1055" height="57" as="geometry"/>
                </mxCell>
            </root>
        </mxGraphModel>
    </diagram>
</mxfile>